<mxfile modified="2023-04-04T20:08:27.714Z" host="app.diagrams.net" agent="Mozilla/5.0 (Windows NT 10.0; Win64; x64) AppleWebKit/537.36 (KHTML, like Gecko) Chrome/111.0.0.0 Safari/537.36 Edg/111.0.1661.62" etag="elgMPcpLohZGHSIcfIV6" version="21.1.4" type="github">
  <diagram id="WI9T0HZ2pTsCkuznbFz-" name="Page-1">
    <mxGraphModel dx="3438" dy="1454" grid="1" gridSize="10" guides="1" tooltips="1" connect="1" arrows="1" fold="1" page="1" pageScale="1" pageWidth="1169" pageHeight="827" math="0" shadow="0">
      <root>
        <mxCell id="0" />
        <mxCell id="1" parent="0" />
        <mxCell id="xwrEd6JPqay10O_X7JMk-7" value="" style="rounded=0;whiteSpace=wrap;html=1;fontSize=13;fillColor=#f8cecc;strokeColor=#b85450;" parent="1" vertex="1">
          <mxGeometry x="880" y="361.14" width="1090" height="748.86" as="geometry" />
        </mxCell>
        <mxCell id="xwrEd6JPqay10O_X7JMk-6" value="" style="rounded=0;whiteSpace=wrap;html=1;fontSize=13;fillColor=#b1ddf0;strokeColor=#10739e;" parent="1" vertex="1">
          <mxGeometry x="340" y="360" width="540" height="750" as="geometry" />
        </mxCell>
        <mxCell id="xwrEd6JPqay10O_X7JMk-5" value="" style="rounded=0;whiteSpace=wrap;html=1;fontSize=13;fillColor=#fad7ac;strokeColor=#b46504;" parent="1" vertex="1">
          <mxGeometry x="171" y="360" width="170" height="750" as="geometry" />
        </mxCell>
        <mxCell id="wkqdaRXwN99UUoOsyKMl-42" value="" style="group;fillColor=none;strokeColor=none;rounded=0;" parent="1" vertex="1" connectable="0">
          <mxGeometry x="-100" y="793.5" width="2170" height="420" as="geometry" />
        </mxCell>
        <mxCell id="xwrEd6JPqay10O_X7JMk-9" value="&lt;span style=&quot;color: rgba(0, 0, 0, 0); font-family: monospace; font-size: 0px; text-align: start;&quot;&gt;%3CmxGraphModel%3E%3Croot%3E%3CmxCell%20id%3D%220%22%2F%3E%3CmxCell%20id%3D%221%22%20parent%3D%220%22%2F%3E%3CmxCell%20id%3D%222%22%20value%3D%22%26lt%3Bb%20style%3D%26quot%3Bfont-family%3A%20Helvetica%3B%20font-size%3A%2012px%3B%26quot%3B%26gt%3B%26lt%3Bfont%20style%3D%26quot%3Bfont-size%3A%2014px%3B%26quot%3B%20face%3D%26quot%3BComic%20Sans%20MS%26quot%3B%26gt%3BPresentation%20tier%26lt%3B%2Ffont%26gt%3B%26lt%3B%2Fb%26gt%3B%22%20style%3D%22text%3BstrokeColor%3Dnone%3BfillColor%3Dnone%3Bhtml%3D1%3BfontSize%3D24%3BfontStyle%3D1%3BverticalAlign%3Dmiddle%3Balign%3Dcenter%3BfontFamily%3DComic%20Sans%20MS%3B%22%20vertex%3D%221%22%20parent%3D%221%22%3E%3CmxGeometry%20x%3D%22250.5%22%20y%3D%22643%22%20width%3D%22100%22%20height%3D%2240%22%20as%3D%22geometry%22%2F%3E%3C%2FmxCell%3E%3C%2Froot%3E%3C%2FmxGraphModel%3E&lt;/span&gt;&lt;span style=&quot;color: rgba(0, 0, 0, 0); font-family: monospace; font-size: 0px; text-align: start;&quot;&gt;%3CmxGraphModel%3E%3Croot%3E%3CmxCell%20id%3D%220%22%2F%3E%3CmxCell%20id%3D%221%22%20parent%3D%220%22%2F%3E%3CmxCell%20id%3D%222%22%20value%3D%22%26lt%3Bb%20style%3D%26quot%3Bfont-family%3A%20Helvetica%3B%20font-size%3A%2012px%3B%26quot%3B%26gt%3B%26lt%3Bfont%20style%3D%26quot%3Bfont-size%3A%2014px%3B%26quot%3B%20face%3D%26quot%3BComic%20Sans%20MS%26quot%3B%26gt%3BPresentation%20tier%26lt%3B%2Ffont%26gt%3B%26lt%3B%2Fb%26gt%3B%22%20style%3D%22text%3BstrokeColor%3Dnone%3BfillColor%3Dnone%3Bhtml%3D1%3BfontSize%3D24%3BfontStyle%3D1%3BverticalAlign%3Dmiddle%3Balign%3Dcenter%3BfontFamily%3DComic%20Sans%20MS%3B%22%20vertex%3D%221%22%20parent%3D%221%22%3E%3CmxGeometry%20x%3D%22250.5%22%20y%3D%22643%22%20width%3D%22100%22%20height%3D%2240%22%20as%3D%22geometry%22%2F%3E%3C%2FmxCell%3E%3C%2Froot%3E%3C%2FmxGraphModel%3E&lt;/span&gt;" style="rounded=1;whiteSpace=wrap;html=1;fontSize=12;fillColor=#b1ddf0;strokeColor=#10739e;gradientColor=#FFFFFF;" parent="wkqdaRXwN99UUoOsyKMl-42" vertex="1">
          <mxGeometry x="537.2875092387288" y="360" width="192.46119733924613" height="60" as="geometry" />
        </mxCell>
        <mxCell id="xwrEd6JPqay10O_X7JMk-11" value="" style="rounded=1;whiteSpace=wrap;html=1;fontSize=12;fillColor=#fad9d5;strokeColor=#ae4132;gradientColor=#FFFFFF;" parent="wkqdaRXwN99UUoOsyKMl-42" vertex="1">
          <mxGeometry x="1018.4405025868441" y="360" width="192.46119733924613" height="60" as="geometry" />
        </mxCell>
        <mxCell id="xwrEd6JPqay10O_X7JMk-10" value="" style="rounded=1;whiteSpace=wrap;html=1;fontSize=12;fillColor=#fad7ac;strokeColor=#b46504;gradientColor=#FFFFFF;" parent="wkqdaRXwN99UUoOsyKMl-42" vertex="1">
          <mxGeometry x="259.0206947524021" y="360" width="192.46119733924613" height="60" as="geometry" />
        </mxCell>
        <mxCell id="xwrEd6JPqay10O_X7JMk-12" value="" style="shape=flexArrow;endArrow=classic;startArrow=classic;html=1;rounded=0;sketch=0;fontSize=12;jumpStyle=arc;exitX=1;exitY=0.5;exitDx=0;exitDy=0;entryX=0;entryY=0.5;entryDx=0;entryDy=0;fillColor=#b1ddf0;strokeColor=#10739e;gradientColor=#FAD9D5;gradientDirection=east;" parent="wkqdaRXwN99UUoOsyKMl-42" source="xwrEd6JPqay10O_X7JMk-9" target="xwrEd6JPqay10O_X7JMk-11" edge="1">
          <mxGeometry width="100" height="100" relative="1" as="geometry">
            <mxPoint x="737.7679231337768" y="420" as="sourcePoint" />
            <mxPoint x="898.1522542498153" y="320" as="targetPoint" />
          </mxGeometry>
        </mxCell>
        <mxCell id="xwrEd6JPqay10O_X7JMk-13" value="" style="shape=flexArrow;endArrow=classic;startArrow=classic;html=1;rounded=0;sketch=0;fontSize=12;jumpStyle=arc;exitX=1;exitY=0.5;exitDx=0;exitDy=0;fillColor=#FFCE9F;strokeColor=#10739e;gradientColor=#B0E3E6;gradientDirection=east;entryX=0;entryY=0.5;entryDx=0;entryDy=0;" parent="wkqdaRXwN99UUoOsyKMl-42" target="xwrEd6JPqay10O_X7JMk-9" edge="1">
          <mxGeometry width="100" height="100" relative="1" as="geometry">
            <mxPoint x="451.4818920916482" y="389.38" as="sourcePoint" />
            <mxPoint x="545.3067257945307" y="389" as="targetPoint" />
          </mxGeometry>
        </mxCell>
        <mxCell id="xwrEd6JPqay10O_X7JMk-16" value="&lt;b style=&quot;font-family: Helvetica; font-size: 12px;&quot;&gt;&lt;font style=&quot;font-size: 14px;&quot; face=&quot;Comic Sans MS&quot;&gt;Presentation tier&lt;/font&gt;&lt;/b&gt;" style="text;strokeColor=none;fillColor=none;html=1;fontSize=24;fontStyle=1;verticalAlign=middle;align=center;fontFamily=Comic Sans MS;" parent="wkqdaRXwN99UUoOsyKMl-42" vertex="1">
          <mxGeometry x="273.4552845528455" y="353" width="160.38433111603845" height="40" as="geometry" />
        </mxCell>
        <mxCell id="xwrEd6JPqay10O_X7JMk-17" value="&lt;b style=&quot;font-family: Helvetica; font-size: 12px;&quot;&gt;&lt;font style=&quot;font-size: 14px;&quot; face=&quot;Comic Sans MS&quot;&gt;Application tier&lt;/font&gt;&lt;/b&gt;" style="text;strokeColor=none;fillColor=none;html=1;fontSize=24;fontStyle=1;verticalAlign=middle;align=center;fontFamily=Comic Sans MS;" parent="wkqdaRXwN99UUoOsyKMl-42" vertex="1">
          <mxGeometry x="553.3259423503326" y="350" width="160.38433111603845" height="40" as="geometry" />
        </mxCell>
        <mxCell id="xwrEd6JPqay10O_X7JMk-21" value="" style="shape=image;verticalLabelPosition=bottom;labelBackgroundColor=#ffffff;verticalAlign=top;aspect=fixed;imageAspect=0;image=data:image/svg+xml,PHN2ZyB4bWxuczpjYz0iaHR0cDovL2NyZWF0aXZlY29tbW9ucy5vcmcvbnMjIiB4bWxuczpkYz0iaHR0cDovL3B1cmwub3JnL2RjL2VsZW1lbnRzLzEuMS8iIHhtbG5zOmlua3NjYXBlPSJodHRwOi8vd3d3Lmlua3NjYXBlLm9yZy9uYW1lc3BhY2VzL2lua3NjYXBlIiB4bWxuczpyZGY9Imh0dHA6Ly93d3cudzMub3JnLzE5OTkvMDIvMjItcmRmLXN5bnRheC1ucyMiIHhtbG5zOnNvZGlwb2RpPSJodHRwOi8vc29kaXBvZGkuc291cmNlZm9yZ2UubmV0L0RURC9zb2RpcG9kaS0wLmR0ZCIgeG1sbnM6c3ZnPSJodHRwOi8vd3d3LnczLm9yZy8yMDAwL3N2ZyIgeG1sbnM9Imh0dHA6Ly93d3cudzMub3JnLzIwMDAvc3ZnIiB4bWxuczp4bGluaz0iaHR0cDovL3d3dy53My5vcmcvMTk5OS94bGluayIgdmVyc2lvbj0iMS4xIiBpZD0ic3ZnOTAxOTEiIGlua3NjYXBlOnZlcnNpb249IjAuOTIuMyAoMjQwNTU0NiwgMjAxOC0wMy0xMSkiIHNvZGlwb2RpOmRvY25hbWU9InNlcnZpY2VzLnN2ZyIgeD0iMHB4IiB5PSIwcHgiIHZpZXdCb3g9IjAgMCA1Ni4yNiA0NS42OCIgc3R5bGU9ImVuYWJsZS1iYWNrZ3JvdW5kOm5ldyAwIDAgNTYuMjYgNDUuNjg7IiB4bWw6c3BhY2U9InByZXNlcnZlIj4mI3hhOzxzb2RpcG9kaTpuYW1lZHZpZXcgYm9yZGVyY29sb3I9IiM2NjY2NjYiIGJvcmRlcm9wYWNpdHk9IjEiIGZpdC1tYXJnaW4tYm90dG9tPSIwIiBmaXQtbWFyZ2luLWxlZnQ9IjAiIGZpdC1tYXJnaW4tcmlnaHQ9IjAiIGZpdC1tYXJnaW4tdG9wPSIwIiBncmlkdG9sZXJhbmNlPSIxMCIgZ3VpZGV0b2xlcmFuY2U9IjEwIiBpZD0ibmFtZWR2aWV3OTAxOTMiIGlua3NjYXBlOmN1cnJlbnQtbGF5ZXI9InN2ZzkwMTkxIiBpbmtzY2FwZTpjeD0iMzIuNzA3NDM1IiBpbmtzY2FwZTpjeT0iMTIuNzc0NzU4IiBpbmtzY2FwZTpwYWdlb3BhY2l0eT0iMCIgaW5rc2NhcGU6cGFnZXNoYWRvdz0iMiIgaW5rc2NhcGU6d2luZG93LWhlaWdodD0iMTAxNyIgaW5rc2NhcGU6d2luZG93LW1heGltaXplZD0iMSIgaW5rc2NhcGU6d2luZG93LXdpZHRoPSIxOTIwIiBpbmtzY2FwZTp3aW5kb3cteD0iLTgiIGlua3NjYXBlOndpbmRvdy15PSItOCIgaW5rc2NhcGU6em9vbT0iNi44OTEyMjIyIiBvYmplY3R0b2xlcmFuY2U9IjEwIiBwYWdlY29sb3I9IiNmZmZmZmYiIHNob3dncmlkPSJmYWxzZSI+JiN4YTsJPC9zb2RpcG9kaTpuYW1lZHZpZXc+JiN4YTs8ZyBpZD0iZzkwMTg5IiB0cmFuc2Zvcm09InRyYW5zbGF0ZSgtMC43NSwtMC43NTI0KSI+JiN4YTsJPHRpdGxlIGlkPSJ0aXRsZTkwMTY5Ij5QYWdlLTE8L3RpdGxlPiYjeGE7CTxnIGlkPSJncm91cDQzNzUtMSIgdHJhbnNmb3JtPSJ0cmFuc2xhdGUoMC43NSwtMC43NSkiPiYjeGE7CQk8dGl0bGUgaWQ9InRpdGxlOTAxNzEiPlNlcnZpY2VzPC90aXRsZT4mI3hhOwkJPGcgaWQ9InNoYXBlNDM3Ni0yIj4mI3hhOwkJCTx0aXRsZSBpZD0idGl0bGU5MDE3MyI+U2hlZXQuNDM3NjwvdGl0bGU+JiN4YTsJCQk8cGF0aCBpZD0icGF0aDkwMTc1IiBpbmtzY2FwZTpjb25uZWN0b3ItY3VydmF0dXJlPSIwIiBzdHlsZT0iZmlsbDojM0Y1NzY1OyIgZD0iTTQxLjEyLDI1LjY2Yy0wLjctMy43OS0wLjctMy43OS0wLjctMy43OSAgICAgYy0wLjE0LTAuNDItMC40Mi0wLjctMC45OS0wLjg0Yy01Ljc3LTAuMjgtNS43Ny0wLjI4LTUuNzctMC4yOGMtMC4yOC0wLjQyLTAuNTYtMC45OS0wLjg1LTEuNGMyLjY4LTUuMiwyLjY4LTUuMiwyLjY4LTUuMiAgICAgYzAuMjktMC40MSwwLjE1LTAuOTgtMC4yOC0xLjI2Yy0yLjk1LTIuMzgtMi45NS0yLjM4LTIuOTUtMi4zOGMtMC4yOS0wLjQyLTAuODUtMC40Mi0xLjI4LTAuMTRjLTQuNjQsMy42NC00LjY0LDMuNjQtNC42NCwzLjY0ICAgICBjLTAuNDMtMC4yNy0wLjg0LTAuNDEtMS40MS0wLjU2Yy0xLjQxLTYuNTktMS40MS02LjU5LTEuNDEtNi41OWMtMC4xNC0wLjQyLTAuNTYtMC44NS0wLjk5LTAuODVjLTMuOTMsMC0zLjkzLDAtMy45MywwICAgICBjLTAuNDMsMC0wLjg1LDAuNDMtMC45OSwwLjg1Yy0xLjQxLDYuNTktMS40MSw2LjU5LTEuNDEsNi41OWMtMC41NywwLjE1LTAuOTgsMC4yOS0xLjQxLDAuNTZjLTQuNjQtMy42NC00LjY0LTMuNjQtNC42NC0zLjY0ICAgICBjLTAuNDMtMC4yOC0wLjk5LTAuMjgtMS4yOCwwYy0yLjk1LDIuNTItMi45NSwyLjUyLTIuOTUsMi41MmMtMC40MywwLjI4LTAuNDMsMC44NS0wLjI4LDEuMjZjMi42Nyw1LjIsMi42Nyw1LjIsMi42Nyw1LjIgICAgIGMtMC4yOCwwLjQxLTAuNTYsMC45OC0wLjg0LDEuNGMtNS43OCwwLjI4LTUuNzgsMC4yOC01Ljc4LDAuMjhjLTAuNTYsMC0wLjg0LDAuNDItMC45OCwwLjg0QzAsMjUuNjYsMCwyNS42NiwwLDI1LjY2ICAgICBjMCwwLjQyLDAuMTQsMC45OCwwLjU3LDEuMTJjNS40OSwyLjI1LDUuNDksMi4yNSw1LjQ5LDIuMjVjMC4xNCwwLjU2LDAuMTQsMS4xMiwwLjI4LDEuNjhjLTQuMzcsMy45My00LjM3LDMuOTMtNC4zNywzLjkzICAgICBjLTAuMjgsMC4yOC0wLjQyLDAuODQtMC4xNCwxLjI2YzEuOTcsMy4zNywxLjk3LDMuMzcsMS45NywzLjM3YzAuMTUsMC4yOCwwLjcxLDAuNTYsMS4xMywwLjQyYzUuNjMtMS44Miw1LjYzLTEuODIsNS42My0xLjgyICAgICBjMC40MywwLjQyLDAuODUsMC44NCwxLjI4LDEuMTJjLTAuNzEsNS43NS0wLjcxLDUuNzUtMC43MSw1Ljc1Yy0wLjE0LDAuNTYsMC4xNCwwLjk5LDAuNTYsMS4xM2MzLjY3LDEuMjYsMy42NywxLjI2LDMuNjcsMS4yNiAgICAgYzAuNDEsMC4xMywwLjk4LDAsMS4yNi0wLjI4YzMuMS01LjA2LDMuMS01LjA2LDMuMS01LjA2YzAuMjgsMCwwLjU3LDAuMTUsMC44NCwwLjE1YzAuMjgsMCwwLjU3LTAuMTUsMC44NS0wLjE1ICAgICBjMy4xLDUuMDYsMy4xLDUuMDYsMy4xLDUuMDZjMC4yOCwwLjI4LDAuODQsMC40MSwxLjI2LDAuMjhjMy42Ni0xLjI2LDMuNjYtMS4yNiwzLjY2LTEuMjZjMC40My0wLjE0LDAuNzEtMC41NywwLjU3LTEuMTMgICAgIGMtMC43MS01Ljc1LTAuNzEtNS43NS0wLjcxLTUuNzVjMC40My0wLjQyLDAuODUtMC43LDEuMjgtMS4xMmM1LjYyLDEuODIsNS42MiwxLjgyLDUuNjIsMS44MmMwLjQzLDAuMTQsMC45OS0wLjE0LDEuMTQtMC40MiAgICAgYzEuOTctMy4zNywxLjk3LTMuMzcsMS45Ny0zLjM3YzAuMjctMC40MiwwLjEzLTAuOTgtMC4xNC0xLjI2Yy00LjM3LTMuOTMtNC4zNy0zLjkzLTQuMzctMy45M2MwLjE0LTAuNTYsMC4xNC0xLjEyLDAuMjgtMS42OCAgICAgYzUuNDktMi4yNSw1LjQ5LTIuMjUsNS40OS0yLjI1QzQwLjk5LDI2LjY0LDQxLjEyLDI2LjIyLDQxLjEyLDI1LjY2eiBNMjguNzMsMjcuMzVjMCwyLjI0LTAuOTksNC4yLTIuMzksNS43NSAgICAgYy0xLjU1LDEuNC0zLjUyLDIuMzgtNS43OCwyLjM4Yy0yLjI1LDAtNC4yMi0wLjk4LTUuNzctMi4zOGMtMS40MS0xLjU1LTIuNC0zLjUxLTIuNC01Ljc1YzAtMi4yNSwwLjk5LTQuMzUsMi40LTUuNzYgICAgIGMxLjU1LTEuNTQsMy41Mi0yLjM4LDUuNzctMi4zOGMyLjI2LDAsNC4yMywwLjg0LDUuNzgsMi4zOEMyNy43NCwyMywyOC43MywyNS4xLDI4LjczLDI3LjM1eiIvPiYjeGE7CQk8L2c+JiN4YTsJCTxnIGlkPSJzaGFwZTQzNzctNCIgdHJhbnNmb3JtPSJ0cmFuc2xhdGUoMTYuNzU3NSwtMTYuMDI0OCkiPiYjeGE7CQkJPHRpdGxlIGlkPSJ0aXRsZTkwMTc4Ij5TaGVldC40Mzc3PC90aXRsZT4mI3hhOwkJCTxwYXRoIGlkPSJwYXRoOTAxODAiIGlua3NjYXBlOmNvbm5lY3Rvci1jdXJ2YXR1cmU9IjAiIHN0eWxlPSJmaWxsOiMzRjU3NjU7IiBkPSJNMCw0My4zOGMwLTIuMDksMS43MS0zLjc5LDMuOC0zLjc5ICAgICBjMi4xLDAsMy44MSwxLjcsMy44MSwzLjc5YzAsMi4xLTEuNzEsMy44LTMuODEsMy44QzEuNzEsNDcuMTgsMCw0NS40OCwwLDQzLjM4eiIvPiYjeGE7CQk8L2c+JiN4YTsJCTxnIGlkPSJzaGFwZTQzNzgtNiIgdHJhbnNmb3JtPSJ0cmFuc2xhdGUoMzUuNDY4MiwtMjMuMjA3NikiPiYjeGE7CQkJPHRpdGxlIGlkPSJ0aXRsZTkwMTgzIj5TaGVldC40Mzc4PC90aXRsZT4mI3hhOwkJCTxwYXRoIGlkPSJwYXRoOTAxODUiIGlua3NjYXBlOmNvbm5lY3Rvci1jdXJ2YXR1cmU9IjAiIHN0eWxlPSJmaWxsOiMzRjU3NjU7IiBkPSJNMTguMTksMzcuNDljMC4xNC0wLjQyLDAuMjgtMC45OCwwLjI4LTEuNTUgICAgIGMwLTAuNDEtMC4xNC0wLjk4LTAuMjgtMS40YzIuMjYtMi4xLDIuMjYtMi4xLDIuMjYtMi4xYzAuMjgtMC4xNSwwLjI4LTAuNDMsMC4yOC0wLjcxYzAtMC4xMywwLTAuNDIsMC0wLjU2ICAgICBjLTAuOTgtMS42OC0wLjk4LTEuNjgtMC45OC0xLjY4Yy0wLjI5LTAuMjktMC41Ny0wLjQzLTAuOTktMC40M2MwLDAtMC4xNSwwLTAuMjksMGMtMi44MiwwLjg1LTIuODIsMC44NS0yLjgyLDAuODUgICAgIGMtMC44NC0wLjU3LTEuNjktMS4xMi0yLjY4LTEuNDFjLTAuNTYtMi45NS0wLjU2LTIuOTUtMC41Ni0yLjk1Yy0wLjE0LTAuNDItMC41Ni0wLjg0LTAuOTktMC44NGMtMS45NywwLTEuOTcsMC0xLjk3LDAgICAgIGMtMC41NiwwLTAuODUsMC40Mi0wLjk5LDAuODRjLTAuNywyLjk1LTAuNywyLjk1LTAuNywyLjk1Yy0wLjk5LDAuMjktMS44NCwwLjg0LTIuNTQsMS41NWMtMi45Ni0wLjk5LTIuOTYtMC45OS0yLjk2LTAuOTkgICAgIGMtMC4xNCwwLTAuMTQsMC0wLjI4LDBjLTAuMjgsMC0wLjcxLDAuMTQtMC44NSwwLjQzYy0wLjk5LDEuNjgtMC45OSwxLjY4LTAuOTksMS42OEMwLDMxLjMxLDAsMzEuNiwwLDMxLjczICAgICBjMCwwLjI4LDAuMTQsMC41NiwwLjI4LDAuNzFjMi40LDIuMSwyLjQsMi4xLDIuNCwyLjFjLTAuMTQsMC40Mi0wLjI4LDAuOTktMC4yOCwxLjRjMCwwLjU3LDAuMTQsMC45OSwwLjI4LDEuNTUgICAgIGMtMi40LDIuMTEtMi40LDIuMTEtMi40LDIuMTFDMC4xNCwzOS43NCwwLDQwLjAyLDAsNDAuM2MwLDAuMTQsMCwwLjI4LDAuMTQsMC40MmMwLjk5LDEuNjksMC45OSwxLjY5LDAuOTksMS42OSAgICAgYzAuMTQsMC40MiwwLjU3LDAuNTYsMC44NSwwLjU2YzAuMTQsMCwwLjE0LDAsMC4yOCwwYzIuOTYtMC45OSwyLjk2LTAuOTksMi45Ni0wLjk5YzAuNywwLjU3LDEuNTUsMS4xMywyLjU0LDEuNDEgICAgIGMwLjcsMy4wOSwwLjcsMy4wOSwwLjcsMy4wOWMwLjE0LDAuNDIsMC40MywwLjcsMC45OSwwLjdjMS45NywwLDEuOTcsMCwxLjk3LDBjMC40MywwLDAuODUtMC4yOCwwLjk5LTAuNyAgICAgYzAuNTYtMi45NSwwLjU2LTIuOTUsMC41Ni0yLjk1YzAuOTktMC40MiwxLjg0LTAuODQsMi42OC0xLjU1YzIuODIsMC45OSwyLjgyLDAuOTksMi44MiwwLjk5YzAuMTQsMCwwLjI5LDAsMC4yOSwwICAgICBjMC40MiwwLDAuNy0wLjE0LDAuOTktMC41NmMwLjk4LTEuNjksMC45OC0xLjY5LDAuOTgtMS42OWMwLTAuMTQsMC4xNC0wLjI4LDAtMC40MmMwLjE0LTAuMjgsMC0wLjU2LTAuMjgtMC43TDE4LjE5LDM3LjQ5eiAgICAgIE0xMy41NCwzNS45NGMwLDEuNjktMS40MSwzLjA5LTMuMTEsMy4wOWMtMS42OSwwLTMuMDktMS40LTMuMDktMy4wOWMwLTEuNjgsMS40LTMuMDgsMy4wOS0zLjA4ICAgICBDMTIuMTMsMzIuODYsMTMuNTQsMzQuMjYsMTMuNTQsMzUuOTR6Ii8+JiN4YTsJCTwvZz4mI3hhOwk8L2c+JiN4YTs8L2c+JiN4YTs8L3N2Zz4=;fontFamily=Comic Sans MS;fontSize=14;gradientColor=#FFFFFF;" parent="wkqdaRXwN99UUoOsyKMl-42" vertex="1">
          <mxGeometry x="605.8357723577236" y="385.07" width="36.52" height="30" as="geometry" />
        </mxCell>
        <mxCell id="xwrEd6JPqay10O_X7JMk-22" value="&lt;b style=&quot;font-family: Helvetica; font-size: 12px;&quot;&gt;&lt;font style=&quot;font-size: 14px;&quot; face=&quot;Comic Sans MS&quot;&gt;Data tier&lt;/font&gt;&lt;/b&gt;" style="text;strokeColor=none;fillColor=none;html=1;fontSize=24;fontStyle=1;verticalAlign=middle;align=center;fontFamily=Comic Sans MS;" parent="wkqdaRXwN99UUoOsyKMl-42" vertex="1">
          <mxGeometry x="1034.478935698448" y="349.07" width="160.38433111603845" height="40" as="geometry" />
        </mxCell>
        <mxCell id="xwrEd6JPqay10O_X7JMk-20" value="" style="shape=image;verticalLabelPosition=bottom;labelBackgroundColor=#ffffff;verticalAlign=top;aspect=fixed;imageAspect=0;image=data:image/svg+xml,PHN2ZyB4bWxuczpjYz0iaHR0cDovL2NyZWF0aXZlY29tbW9ucy5vcmcvbnMjIiB4bWxuczpkYz0iaHR0cDovL3B1cmwub3JnL2RjL2VsZW1lbnRzLzEuMS8iIHhtbG5zOmlua3NjYXBlPSJodHRwOi8vd3d3Lmlua3NjYXBlLm9yZy9uYW1lc3BhY2VzL2lua3NjYXBlIiB4bWxuczpyZGY9Imh0dHA6Ly93d3cudzMub3JnLzE5OTkvMDIvMjItcmRmLXN5bnRheC1ucyMiIHhtbG5zOnNvZGlwb2RpPSJodHRwOi8vc29kaXBvZGkuc291cmNlZm9yZ2UubmV0L0RURC9zb2RpcG9kaS0wLmR0ZCIgeG1sbnM6c3ZnPSJodHRwOi8vd3d3LnczLm9yZy8yMDAwL3N2ZyIgeG1sbnM9Imh0dHA6Ly93d3cudzMub3JnLzIwMDAvc3ZnIiB4bWxuczp4bGluaz0iaHR0cDovL3d3dy53My5vcmcvMTk5OS94bGluayIgdmVyc2lvbj0iMS4xIiBpZD0ic3ZnODIzMDkiIGlua3NjYXBlOnZlcnNpb249IjAuOTIuMyAoMjQwNTU0NiwgMjAxOC0wMy0xMSkiIHNvZGlwb2RpOmRvY25hbWU9Im9yYWNsZV9kYXRhYmFzZS5zdmciIHg9IjBweCIgeT0iMHB4IiB2aWV3Qm94PSIwIDAgMzAuNjIgMzQuOTMiIHN0eWxlPSJlbmFibGUtYmFja2dyb3VuZDpuZXcgMCAwIDMwLjYyIDM0LjkzOyIgeG1sOnNwYWNlPSJwcmVzZXJ2ZSI+JiN4YTs8c29kaXBvZGk6bmFtZWR2aWV3IGJvcmRlcmNvbG9yPSIjNjY2NjY2IiBib3JkZXJvcGFjaXR5PSIxIiBmaXQtbWFyZ2luLWJvdHRvbT0iMCIgZml0LW1hcmdpbi1sZWZ0PSIwIiBmaXQtbWFyZ2luLXJpZ2h0PSIwIiBmaXQtbWFyZ2luLXRvcD0iMCIgZ3JpZHRvbGVyYW5jZT0iMTAiIGd1aWRldG9sZXJhbmNlPSIxMCIgaWQ9Im5hbWVkdmlldzgyMzExIiBpbmtzY2FwZTpjdXJyZW50LWxheWVyPSJzdmc4MjMwOSIgaW5rc2NhcGU6Y3g9IjIwLjQxMzUzMyIgaW5rc2NhcGU6Y3k9IjIzLjI4Njg2NiIgaW5rc2NhcGU6cGFnZW9wYWNpdHk9IjAiIGlua3NjYXBlOnBhZ2VzaGFkb3c9IjIiIGlua3NjYXBlOndpbmRvdy1oZWlnaHQ9IjEwMTciIGlua3NjYXBlOndpbmRvdy1tYXhpbWl6ZWQ9IjEiIGlua3NjYXBlOndpbmRvdy13aWR0aD0iMTkyMCIgaW5rc2NhcGU6d2luZG93LXg9Ii04IiBpbmtzY2FwZTp3aW5kb3cteT0iLTgiIGlua3NjYXBlOnpvb209IjE2LjgyODE1NiIgb2JqZWN0dG9sZXJhbmNlPSIxMCIgcGFnZWNvbG9yPSIjZmZmZmZmIiBzaG93Z3JpZD0iZmFsc2UiPiYjeGE7CTwvc29kaXBvZGk6bmFtZWR2aWV3PiYjeGE7PGcgaWQ9Imc4MjMwNyIgdHJhbnNmb3JtPSJ0cmFuc2xhdGUoLTEuODU0NTc4LC0xLjg1MTA1KSI+JiN4YTsJPHRpdGxlIGlkPSJ0aXRsZTgyMjcyIj5QYWdlLTE8L3RpdGxlPiYjeGE7CTxnIGlkPSJncm91cDQzODktMSIgdHJhbnNmb3JtPSJ0cmFuc2xhdGUoMS44NTQ1NSwtMS44NTQ1NSkiPiYjeGE7CQk8dGl0bGUgaWQ9InRpdGxlODIyNzQiPk9yYWNsZSBEYXRhYmFzZTwvdGl0bGU+JiN4YTsJCTxnIGlkPSJzaGFwZTQzOTAtMiIgdHJhbnNmb3JtPSJ0cmFuc2xhdGUoMCwtMC4xMTA1NDMpIj4mI3hhOwkJCTx0aXRsZSBpZD0idGl0bGU4MjI3NiI+U2hlZXQuNDM5MDwvdGl0bGU+JiN4YTsJCQk8cGF0aCBpZD0icGF0aDgyMjc4IiBpbmtzY2FwZTpjb25uZWN0b3ItY3VydmF0dXJlPSIwIiBzdHlsZT0iZmlsbDojRUIyMjI3OyIgZD0iTTE1LjI1LDkuMjRDNi44NSw5LjI0LDAsOC4wMiwwLDYuNDd2MjkuNDEgICAgIGMwLDEuNTQsNi44NSwyLjc2LDE1LjI1LDIuNzZjOC40MSwwLDE1LjI2LTEuMjIsMTUuMjYtMi43NlY2LjQ3QzMwLjYyLDguMDIsMjMuNzcsOS4yNCwxNS4yNSw5LjI0eiIvPiYjeGE7CQk8L2c+JiN4YTsJCTxnIGlkPSJzaGFwZTQzOTEtNCI+JiN4YTsJCQk8dGl0bGUgaWQ9InRpdGxlODIyODEiPlNoZWV0LjQzOTE8L3RpdGxlPiYjeGE7CQkJPHBhdGggaWQ9InBhdGg4MjI4MyIgaW5rc2NhcGU6Y29ubmVjdG9yLWN1cnZhdHVyZT0iMCIgc3R5bGU9ImZpbGw6I0Q4MjMyODsiIGQ9Ik0wLDYuNDd2MjkuNDFjMCwxLjU0LDYuODUsMi43NiwxNS4yNSwyLjc2VjkuMjQgICAgIEM2Ljg1LDkuMTMsMCw3LjkxLDAsNi40N3oiLz4mI3hhOwkJPC9nPiYjeGE7CQk8ZyBpZD0ic2hhcGU0MzkyLTYiIHRyYW5zZm9ybT0idHJhbnNsYXRlKDI4LjUyLC0xLjQzNzA2KSI+JiN4YTsJCQk8dGl0bGUgaWQ9InRpdGxlODIyODYiPlNoZWV0LjQzOTI8L3RpdGxlPiYjeGE7CQkJPHBhdGggaWQ9InBhdGg4MjI4OCIgaW5rc2NhcGU6Y29ubmVjdG9yLWN1cnZhdHVyZT0iMCIgc3R5bGU9ImZpbGw6I0Q4MjMyODsiIGQ9Ik0wLDkuMjR2MjkuNGMxLjMzLTAuNDQsMi4xLTAuODgsMi4xLTEuMzNWNy45MSAgICAgQzIuMSw4LjM1LDEuMzMsOC45LDAsOS4yNHoiLz4mI3hhOwkJPC9nPiYjeGE7CQk8ZyBpZD0ic2hhcGU0MzkzLTgiIHRyYW5zZm9ybT0idHJhbnNsYXRlKDAuMTEwNTQzLC0yOS40MDQ0KSI+JiN4YTsJCQk8dGl0bGUgaWQ9InRpdGxlODIyOTEiPlNoZWV0LjQzOTM8L3RpdGxlPiYjeGE7CQkJPHBhdGggaWQ9InBhdGg4MjI5MyIgaW5rc2NhcGU6Y29ubmVjdG9yLWN1cnZhdHVyZT0iMCIgc3R5bGU9ImZpbGw6I0I5MjMyNzsiIGQ9Ik0zMC41MSwzNS44OGMwLDEuNTQtNi44NSwyLjc2LTE1LjI2LDIuNzYgICAgIEM2Ljg1LDM4LjY0LDAsMzcuNDIsMCwzNS44OGMwLTEuNTUsNi44NS0yLjc3LDE1LjI1LTIuNzdDMjMuNjYsMzMuMTEsMzAuNTEsMzQuMzMsMzAuNTEsMzUuODh6Ii8+JiN4YTsJCTwvZz4mI3hhOwkJPGcgaWQ9InNoYXBlNDM5NC0xMCIgdHJhbnNmb3JtPSJ0cmFuc2xhdGUoMCwtOC43MzI4OCkiPiYjeGE7CQkJPHRpdGxlIGlkPSJ0aXRsZTgyMjk2Ij5TaGVldC40Mzk0PC90aXRsZT4mI3hhOwkJCTxwYXRoIGlkPSJwYXRoODIyOTgiIGlua3NjYXBlOmNvbm5lY3Rvci1jdXJ2YXR1cmU9IjAiIHN0eWxlPSJmaWxsOiM5QTFDMjE7IiBkPSJNMCwzMy42N2MwLDEuNTQsNi44NSwyLjc2LDE1LjI1LDIuNzYgICAgIGM4LjQxLDAsMTUuMjYtMS4yMiwxNS4yNi0yLjc2djIuMjFjMCwxLjU0LTYuODUsMi43Ni0xNS4yNiwyLjc2QzYuODUsMzguNjQsMCwzNy40MiwwLDM1Ljg4VjMzLjY3eiIvPiYjeGE7CQk8L2c+JiN4YTsJCTxnIGlkPSJzaGFwZTQzOTUtMTIiIHRyYW5zZm9ybT0idHJhbnNsYXRlKDAuMTEwNTQzLC0xOC40NjA2KSI+JiN4YTsJCQk8dGl0bGUgaWQ9InRpdGxlODIzMDEiPlNoZWV0LjQzOTU8L3RpdGxlPiYjeGE7CQkJPHBhdGggaWQ9InBhdGg4MjMwMyIgaW5rc2NhcGU6Y29ubmVjdG9yLWN1cnZhdHVyZT0iMCIgc3R5bGU9ImZpbGw6IzlBMUMyMTsiIGQ9Ik0zMC41MSwzMy42N2MwLDEuNTQtNi44NSwyLjc2LTE1LjI2LDIuNzYgICAgIEM2Ljg1LDM2LjQzLDAsMzUuMjEsMCwzMy42N3YyLjIxYzAsMS41NCw2Ljg1LDIuNzYsMTUuMjUsMi43NmM4LjQxLDAsMTUuMjYtMS4yMiwxNS4yNi0yLjc2VjMzLjY3eiIvPiYjeGE7CQk8L2c+JiN4YTsJPC9nPiYjeGE7PC9nPiYjeGE7PC9zdmc+;fontFamily=Comic Sans MS;fontSize=14;gradientColor=#FFFFFF;" parent="wkqdaRXwN99UUoOsyKMl-42" vertex="1">
          <mxGeometry x="1094.2220990391722" y="385.07" width="25.5" height="28.79" as="geometry" />
        </mxCell>
        <mxCell id="xwrEd6JPqay10O_X7JMk-19" value="" style="shape=image;verticalLabelPosition=bottom;labelBackgroundColor=#ffffff;verticalAlign=top;aspect=fixed;imageAspect=0;image=data:image/svg+xml,PHN2ZyB4bWxuczpjYz0iaHR0cDovL2NyZWF0aXZlY29tbW9ucy5vcmcvbnMjIiB4bWxuczpkYz0iaHR0cDovL3B1cmwub3JnL2RjL2VsZW1lbnRzLzEuMS8iIHhtbG5zOmlua3NjYXBlPSJodHRwOi8vd3d3Lmlua3NjYXBlLm9yZy9uYW1lc3BhY2VzL2lua3NjYXBlIiB4bWxuczpyZGY9Imh0dHA6Ly93d3cudzMub3JnLzE5OTkvMDIvMjItcmRmLXN5bnRheC1ucyMiIHhtbG5zOnNvZGlwb2RpPSJodHRwOi8vc29kaXBvZGkuc291cmNlZm9yZ2UubmV0L0RURC9zb2RpcG9kaS0wLmR0ZCIgeG1sbnM6c3ZnPSJodHRwOi8vd3d3LnczLm9yZy8yMDAwL3N2ZyIgeG1sbnM9Imh0dHA6Ly93d3cudzMub3JnLzIwMDAvc3ZnIiB4bWxuczp4bGluaz0iaHR0cDovL3d3dy53My5vcmcvMTk5OS94bGluayIgdmVyc2lvbj0iMS4xIiBpZD0ic3ZnMTE2MzciIGlua3NjYXBlOnZlcnNpb249IjAuOTIuMyAoMjQwNTU0NiwgMjAxOC0wMy0xMSkiIHNvZGlwb2RpOmRvY25hbWU9InZpcnR1YWxfbWFjaGluZXNfMS5zdmciIHg9IjBweCIgeT0iMHB4IiB2aWV3Qm94PSIwIDAgOTQuMyA4OC4zOCIgc3R5bGU9ImVuYWJsZS1iYWNrZ3JvdW5kOm5ldyAwIDAgOTQuMyA4OC4zODsiIHhtbDpzcGFjZT0icHJlc2VydmUiPiYjeGE7PHNvZGlwb2RpOm5hbWVkdmlldyBib3JkZXJjb2xvcj0iIzY2NjY2NiIgYm9yZGVyb3BhY2l0eT0iMSIgZml0LW1hcmdpbi1ib3R0b209IjAiIGZpdC1tYXJnaW4tbGVmdD0iMCIgZml0LW1hcmdpbi1yaWdodD0iMCIgZml0LW1hcmdpbi10b3A9IjAiIGdyaWR0b2xlcmFuY2U9IjEwIiBndWlkZXRvbGVyYW5jZT0iMTAiIGlkPSJuYW1lZHZpZXcxMTYzOSIgaW5rc2NhcGU6Y3VycmVudC1sYXllcj0ic3ZnMTE2MzciIGlua3NjYXBlOmN4PSI2Mi44Njc3MzkiIGlua3NjYXBlOmN5PSI1OC45MTkyNzkiIGlua3NjYXBlOnBhZ2VvcGFjaXR5PSIwIiBpbmtzY2FwZTpwYWdlc2hhZG93PSIyIiBpbmtzY2FwZTp3aW5kb3ctaGVpZ2h0PSIxMDE3IiBpbmtzY2FwZTp3aW5kb3ctbWF4aW1pemVkPSIxIiBpbmtzY2FwZTp3aW5kb3ctd2lkdGg9IjE5MjAiIGlua3NjYXBlOndpbmRvdy14PSItOCIgaW5rc2NhcGU6d2luZG93LXk9Ii04IiBpbmtzY2FwZTp6b29tPSI3LjM1NzM3NCIgb2JqZWN0dG9sZXJhbmNlPSIxMCIgcGFnZWNvbG9yPSIjZmZmZmZmIiBzaG93Z3JpZD0iZmFsc2UiPiYjeGE7CTwvc29kaXBvZGk6bmFtZWR2aWV3PiYjeGE7PGcgaWQ9ImcxMTYzNSIgdHJhbnNmb3JtPSJ0cmFuc2xhdGUoLTEuOTQxMzUyOGUtNCkiPiYjeGE7CTx0aXRsZSBpZD0idGl0bGUxMTYyNSI+UGFnZS0xPC90aXRsZT4mI3hhOwk8ZyBpZD0iZ3JvdXAzNTc3LTEiPiYjeGE7CQk8dGl0bGUgaWQ9InRpdGxlMTE2MjciPlZpcnR1YWwgTWFjaGluZXMgIzE8L3RpdGxlPiYjeGE7CQk8ZyBpZD0ic2hhcGUzNTc4LTIiPiYjeGE7CQkJPHRpdGxlIGlkPSJ0aXRsZTExNjI5Ij5TaGVldC4zNTc4PC90aXRsZT4mI3hhOwkJCTxwYXRoIGlkPSJwYXRoMTE2MzEiIGlua3NjYXBlOmNvbm5lY3Rvci1jdXJ2YXR1cmU9IjAiIHN0eWxlPSJmaWxsOiMzRjU3NjU7IiBkPSJNNjAuNzIsMjguMTN2MTcuNTFsLTE0LjA1LDcuNDh2LTE3LjUgICAgIEw2MC43MiwyOC4xM3ogTTI5LjA4LDI4LjEzbDE0LjA1LDcuNDl2MTcuNWwtMTQuMDUtNy40OEwyOS4wOCwyOC4xM3ogTTQ1LjQ4LDE1Ljc4bDE1LjI0LDguNThsLTE2LjQxLDguNmwtMTUuMjMtOS4zOCAgICAgTDQ1LjQ4LDE1Ljc4eiBNNy41Miw3LjE5djU0LjQ5SDg2LjhWNy4xOUg3LjUyeiBNNS45MSwwaDgyLjVjMy4yNSwwLDUuODksMi42NSw1Ljg5LDUuOTF2NTcuMDVjMCwzLjI2LTIuNjQsNS45Mi01Ljg5LDUuOTIgICAgIEg2MS4wNWwtMC4xMywwLjY1Yy0wLjk1LDMtMi40NSw1Ljk4LDAuNTcsOS4xYzQuNTksNC43MywxMy4wMiwyLjA3LDE5LjUyLDMuMTJ2Ni42M0g1MC42NWgtNi45OUgxMy4zdi02LjYzICAgICBjNi41MS0xLjA1LDE0LjkzLDEuNjEsMTkuNTMtMy4xMmMzLjAyLTMuMTIsMS41Mi02LjEsMC41Ni05LjFsLTAuMTItMC42NUg1LjkxQzIuNjYsNjguODgsMCw2Ni4yMiwwLDYyLjk2VjUuOTEgICAgIEMwLDIuNjUsMi42NiwwLDUuOTEsMHoiLz4mI3hhOwkJPC9nPiYjeGE7CTwvZz4mI3hhOzwvZz4mI3hhOzwvc3ZnPg==;fontFamily=Comic Sans MS;fontSize=14;gradientColor=#FFFFFF;" parent="wkqdaRXwN99UUoOsyKMl-42" vertex="1">
          <mxGeometry x="330.60022172949" y="388.16" width="28.75" height="26.91" as="geometry" />
        </mxCell>
        <mxCell id="5YPA4upZOM7TvgwkD8Ul-3" value="" style="shape=image;verticalLabelPosition=bottom;verticalAlign=top;imageAspect=0;aspect=fixed;image=data:image/png,iVBORw0KGgoAAAANSUhEUgAAALYAAAFRCAYAAADZxleKAAAACXBIWXMAABJ0AAASdAHeZh94AACc1ElEQVR4Xu29B5xk2VUeft97lbuqc8/05LA7O7N5VxukRVlaoQDCCKGIASEh8s9Y/MFIBguDDbYBgzEmW0gCI4xAARDKkrWr1a52tXlmdnKenpnOoXJ4Vf/vO/e+qlfd1d3VPT3dPdX1Zt9Wd/ULN3z33JOPUu2jPQLtEWiPQHsE2iPQHoH2CLRHoD0C7RFoj0B7BNoj0B6B9gi0R6A9Au0RaI9AewTaI9AegfYItEegPQLtEWiPQHsE2iPQHoH2CLRHoD0C7RFoj0B7BNoj0B6B9gi0R6A9Au0RaI9AewTaI9AegfYItEegPQLtEWiPQHsE2iPQHoH2CLRHoD0C7RFoj0B7BNoj0B6B9gi0R6A9Au0RaI9AewTaI9AegfYItEegPQLtEWiPQHsE2iPQHoH2CLRHoD0C7RFoj0B7BNoj0B6B9gi0R6A9Au0RaI9AewTaI9AegfYItEegPQLtEWiPQHsE2iPQHoH2CLRHoD0C7RFoj0B7BNojsOQRsJZ8R/uGpkbg0sEn7Eo+FXXzqc5yIdvn5rL95VIpVuLpliLlcjmAB8n42xWrFAwEU3YoOmWFoqNOJDEa6khMb7/3ZbmmXta+aM4ItIF9FaCYevpT23Izkzdmpyd3pdPT/ZlcsruQzfSXCrk+q1zstcqlXlVxe5Vb6au4TqRSVsFKpaIqs99ZBsIrmApbuSpgTZat8owTcKacUGDSCQYnQ+HwRCTee6qrb+vheO/2Z3vufevQVTR7Q9zaBvYSpvnsY1/pTw6fvnN06Ngry+mRl4dKM/cGSrm4U8yC9OaUZecUgQtqLE+1LEvZto2fgkpVovh05HsBdu1/SpX1NFiWi/+VcBbw5wKeU8RzsRosIN7pUK4dV3m7Z6oS7n883rPtkfimXY8mdu9/atsdL59eQjc2xKVtYC8yzVe+8VdbL585+PbJ4dNvLuaTt6pyabOjAipoBwBTC5QWQAQAVYUgJDDxnW9ULYCSpLiCexSpMjEtVBvIxqcAWv7hE5fKvRYWBv7mVlxZJPyrHQwrF18XsQj4LMsOKjtgl7Ol9GhHd//zfZsPfHZwz11/1/uSt4xvCOQu0sk2sBsM0OgL37ROH3zyVROnn3ubNXPxzR12envIyigrAFBZjgKLrIolANUKAbOAHQAJOg2QV4RCWzwNgD3iXBGA1w5Sc022CXD9UZsMLBEAuiy4B6gdByexjndgEdl4F5eKVcmDP5/BT7bKl7tV0u0643Tt+Ydt++/+9G1vee+3NzLA28D2zX7yiU92HfvOFz505cKpfxWwKzd1hILAE9AFhAkRxWiVCcgKYGUFVCAQViWyHQCyA9DbNgBH1sOQbFJmDWAuCP3pp+bVV5e5MgzQAV5N1fVnuVzCIiqYRUBBk20hqHFyMamSbhfYnXIFrUXbcrmsGwoFzvbceOfH99736t9L3PZ96Y0G8jawMeNnH/77raeefOgdhdGTP9plT90ZBEjLZAXIE2PLt6wwTlBnHqDQ3qcF2JdKABfZEtFxgBURCBoqzK+IZJyewKiB7j9ktQjoeadhVoQV4S7gkXPNkuM7vK/iuqqCBaXBT3Drq2z8boN9cSoFMCtFNVmJqRm78/n+nXd+9OZ7X/OXfXc/OLNRAL6hgT32rU/2nXz807+bm7jwFqtid0WCIQAGfK0QaVDgUFiATVaAILaroNSaDUALwHZBpR3lOKS6HhBr8PGAXLEMP92IZBtWpB501aVgWHPuFFggFE4B7DLaWQF/XwGISb25OLirCD+Od6FlaHNImJZCfkaVrMrU5v0v/vPtd77mt3rv/FctL2xuSGAPP/0vkbPPf/tt46ef/7l4ZfT+aKCsipWACGUVqJdth4IZKDUATeZWeGbiSqikEfyEguI+AhvkmsAWgM2mx4aXNnJjY1aE9829VT/JsDBVDpzvN2dZgE3qjZ2Cm4WsNj6LuwipP4VbLoQ0/uSqZAkCaLTvmcED9/zPe9/x4Y+1MvXecMA+9dnfffn4oc9/LJfL7Q0Eg9A8QEgDe1EhO+GEVcCOgOJV1ROzmAYNanIOMnAANYwtygmH9D1a2pv/aDjaDcl19Rlyi/+xc/TgECWFYqMfaEu5SAquhUuPBSobNSMFT1XOgV2BINy755HN9/zge/a++l+fakWAbxhgDz36qcTZZ7/13tyVIx/oKE/vUqDKRarSwH5ACoTGAxQaALAtfjYaFlJAw4IQ9wQbgV0CsCNNArsRgqrInZdkV9WEGuM1NaEsLwqrslOAD+GOQlaqVAQfDlaEQibvwaITHhzsiQ3WxS7noXWPqkx4y5H+3bf9j/0vevlHEre+RgsILXJsCGCf/Jc/vGfs4Ff/IjJ94u6inQC/GRMwk92ogN2oEBxiSOHW7WkvZg/N2gBbv1UbdgTYdewOtS6GpHOlCeXWPDgBbmPR2Vh8FTDfPD3hVPeRSkKl8q6luge2Pt91z7/6wZ0vf9eJFsF1Q9LUKn2Tfjzz0X///tTFQ79q5aZ3hmHNK4HVKNtgOcCG2EHw1OSdhap5mgktgPm1ygZSdRRbdvoiVHEAEVkRhwtjMVZkHoqttRueanA2eNmaGrANzfY9yQis7IdWnZgO4RPA5lkGlRYmXP7OC7FDQS3oGBVmEdTe7eh/Ycet93/4hu/7xU+1AgBalmKPPP4F5/zDf/vR0uTZHw5bOVDpsCraUVDoIFRz4KOh0tP41TyuN+daBdEMsHFHocZji1ZEq56XdvhYERFQhfDW2BItAM7/SIvU2NBi3XStPSFVJtWuuICtC18qF2Z6eTZ13WCd8BkQNSMEUJvqwYKKYEysva//wG0/8uH/sbROrL+rWxLYow9/rPfww5//uJOf+d4QfC+sMiY16Kgy2A8wxNAYUC9tqJvonj0BTpu/a+D2T5jhV/EV7SmCkhUCNlXjIpRSADR+Jt6btUHGnXdr1UyFNgDJrgMhWMz4+JmQd6E5sWjgwVkpsq9kbXQfoTiR3/RI4FuH5p6Qig/u+Yu7f/qPf2L9wbX5FrUcsI98+WPbhr/1ic/F3PRdFScm5gvxtwhjInEqi85IcEoSOGgDhyiAZQsnYms+HbOHUYNI21MEEAWyIiUVoFZEbN7ND3zdlSDJtDC64IddsDYu1XfmcMCm8PQmylMbGjRqbYy0Br0RQxDUjlA/UkUJFQ+4DjAyeK4FgbKcB7gpYFZnnRZMmv/hJoDnUJfSUZnCM1012vviP73jTe/92a033b2cfWiZA7Fyt7UUsC98+Y92Hf3mP346VCm+KMRJlX+YNpi+7XAAk0fgkDwKyRWwBALkXz1E8huPYs8/yAQQqWg5nxW2IRDhDkDje70/SNPTBF200FfDI5fh7UQ1IkFOPbSY9dlKM1v+9UOWg//0d6Ta+lMOo7UU87sRLOt59BrbpYVULmtoTbCQcrC0FqKb/uklP/Cz399500uXu2SbHoKVvrBlgH3kix/ZevHRT36mU83c79qg1AQazctgPxwHFjhQRYKlTBUYqGsQwmMAf5u99c8VGv1DXgMQge3mtAtGMEwLJZ51VcD28dVkI8S6qHXTNLjwZ+8KP9VGkMK8O4Wm440xqf/SePrFVbaShWOVrUYDOz791v/4f9+60sC71s9rCWCPPPzRrqNf/T8PWbZ1p4st3QG1LoMq2+Cn+XMF31E7QH61TGsi1HwENU/qoZs/PDBoij0b2AtR7IVInviE+C7wTPea76bqjguSOmp9etdW5c55OrBcYFNateDQFcDY5TMllY9s++x3/+on3tL8OK39lcvcO9e+4V4Lzj/xz4Ejj3z+Y1E3dadN32jwlmQVbLAYDkFMZ6YiAgBAAQPw+wjB/4OA5lEC37nUo44SaDVD7awKoZ4w6v9c6E01lkBbCzX3L0ZxuqzCiOTwDITE4Qpf4i/zCblL7VGj6yFEYmfjDhexiypaHP/+h/7wF/7rSjx5tZ5x3QN79NG//ms7Pf79FatD/JQdaEEC4rwELUgpDz44A+GrJKwH4gkBFnxvtnayJTb9qQkmUnPPF8TnjzFnIqhJMHilzzQFvSL02R7LUNOwzAb1/DRbu7riTTi5GEU28NogMQf0+aZBKaRC4ShO7kSwmBLgxntwZQGDUaIjFfpXgiXWgZ0yPPbELz/3V7/06yv7nmv3tOsa2E999EM/WpgYemfIof+GpnSiv6VaC5oA7QwEQ0QQmhACxrPAGSGNIKR3XrFYVIUCjDdLoODEIY0yFNzID5OlodBHCu6jv4aLXUT2ooHGmMJd+HpQ7IXmDTsMPfXEX8/oyD2A07gUUsEIAI4FK+1YYYBXl6XZoqhCHD518JcOfeZ33nXt4LhyT75ugX3yc39+c+rSyd8KibqLZmOcAiPAIo8wLVBRQQMMMioYl8+yBR+KqhVFzxhBTUpNqumIU/UiR9W/WlNVHkJdQf1dgLtCcEsggKbsci72SABbDCnQNSMQWOWzafl0i3nj88EHaNbDJWuFZ7oAfRlGIQT9VuUFHV+5MgdVmhS4ObYUivNWQkXgG5g7/LlPXPnGn71iZd5y7Z6yciNx7do458nDj38mPnz4S/9H5ce2iv4V0SwM2eJBtZYIWJgMG9879KMWtZehfACHqNOgg3aLmDLcL/7UECjpfuqnt3ODArRLicVtGmB0AWBOvcfKkC0h5XapyTASHlV2pUJRuVhssot47A6Bg2e5gleyFHSZRdvQpjIWpZvLy1nBToL0DfjMyqecJQQOmxAxiRlj20HBA8KH42e62hoNTZ0IMGskPeFyzic6RW2LLWpRwyYhppMiSwF9OX3oOx8aP/T/wO+t36MJErX+Gn/24Dd/NpA8+iLb7kCcSId4r4kZmc71aK4jZnOe5EvreWoxgJCq8jqjGRGLnac1M7GJesV7DLUeAx3qpSm1aCvMJV5CBVEVc/eg2yjBhWcK0OmzTbUcnDMstMcSHbsWcs0SxPVBBeMosI84RnZC4hvJ2jBivca5y1txgUM/F8oRUGXKIsaK4yINU+1IHbgYe3TAQe2o7R3zqQG9a9lettHsSRgeRs3zVdBvj196w5Wnv/ir+O0/rD906BZddxT74pf+6J6Z80d+0bLAXjAwQJztwWKQzZDtE/8LwfLGEyASigUgu2A5SrC8kfVgNEsQfw8CHDJ9BKLENQJMAD4QofXIclKXrE8CVguejLLxGeQMWdS7hd4xyJbwJBqE58b/SMldWgBpWcS1VD865lOYKLIWAljGVFIUZoiaAbXHuPMdZhcoFSAcZzNw0UP6B/Dm/F60KWSpQtCg0B13VhDxSgCROu7Jc0//0tmvfOSlK/G8a/GM6w7YQ89++U9ibrK/QkpNDQd11KRKhscuYyIpUBHUnGTRWuSxpUOgFP9kEk6QRvKmQIKAS58ANxcAwELAFOXEQuBi4EkQVWMNtfGkIfM8G9xcKOShaV2k6RyfIqTS/0NiFAW+aCmfR38NUF6qIwlu7zSEVnLqkDILq0FPADwP7ark4eSVw4mfc/i5yIUDvoEejBLZ0ygc7SrQFEB0fKA4Hj5z+LEPDx9+FD7A6++4rliRp//uf75i8tlP3RfDhJGvJhDEkA0gkN9l8C3N5xSuSBE1paZ/hPa94PxGoUkQ9oTUzQQK+K0jQnE9tsSbL/M7KW2xaFAmTvw66lw4h1lzywVHQq499ghaXmscqcjjg5cOwH2UAqs8kc8ha0Ken1SW+nixPDJniRFURePicc+mHWC7qhZE9hPqzgr44EqJC4Pv5EKoIIQNBiqRM67+oFzjwuRenjzz3TPP/CPZkQ9d/VNX9gnXDcWeevah0MiJZz/IhAglIFfUewIWDDIityX4FqB2glCBQRgrQvDKg4oRqAFs7zxtMrEEC1V7oOKkcAJ6se6Z2EHJD6KpqHcKv0twkvJ61j/CyYDa4xL8OmytMdGnEExxLzWUmYlwwBK5aIcL7QfBS4quFx8orPDhALz4jIOlINU1+nbvXfpTVoNZFPzQO4AtllbsMHwH/U1wTYi72IrAGrsgxhr2XdVhZdXE8Ud/Yeyxz25eWVhe/dOuG2CPHP3iTznp028MQVgSCg0fYh0VQupLfTIBEJJsSfkswALNQgjUkJZGQpSwoeBFHpeaBvLS4hhEsPoos6ej045DjdR1ja2JGmhzddiNQK/5eu4o1MwUhc0pYWehOwCWnXZkovqF1JwWVCxKEYSpljBsRe19dKAyp7RZ6/LptSdrkdob43cyd19ZHoCYBQtOCfJ86P9D5w4/+UPLe9K1u+u6Afb5w4/8THe4pA0hoiemvpjO9ExUg2GmdoADDX6Y1rtYNCbWRlG3GRWcTLDhk7m9O0Lxa5uzB1nDGWg+lv/odyKn8WE2oNfueFwchjJ7wBYNTQ3o5inmOyo1qDPHSTZB1DFYcGhXFeAiYIJ1IAUmBZd0Zjy1SZ3qQQbo+pxZ6xBSdXDSW0XVqjobRl4YnHe9f8nqxe7fH3x3448BWCQDSLsWhGfjyOmDP57+9mf7rx1Ml/7k6wLYRz/zv14Zs639YIolzRhZjWAJE41UCYwI0YYVLQCGKRiGEKiLOckA5LQoehQyIHyxjjIXDYqh1dXpE+aaqkMOS21SLbyD77LBt1pFvEfkPK3yo2rNIhtBYZAglJM6dcN28EmGimrmnadsFDU3E/L1hs2hTODSHRZCIHXX1NBYABEdugJBLNZoAm6y0AiB5SpD9aZ14Dy5DMzj2Td5jccK1S9ggWyVsmt2jipEbZTR51xQ+7hzqgLB7dDASyNRTE3dfPnwQx9cOvyu3R3XBbBPP/etDxJcELeEN9CWPlJrDQ5SO/LSQUxOBKAWKyAtj1S1VbUemq2ogaueWzUcq0SVSGQJHfBl8jXvyu3eFtaHCSLjqrd/K7SKoKDySCMlzpmnepGyxpbMN6F64UmkOfhuATnYlEI2izMDmSFTlQvoeRcOQ/fN6HoKnbJr+MC3CGZkYdNAhE/JEwgebv72NXgu78cYUekTBFt46ezBt6de+JY/OPPaobaJJ697YA9//c/uszLDD5bBQ5eQMkDoEIBEi51Hecl7BugFR98Kbuu02AHY/DnA7b7KK2un/Oo/j4J6TAeuY7SKBreP9YAZqGLjmXSwglZly+6b1c69t6lELCGGAKGUdSPpAVpgb1ZUE7Ph3+1lRzBaEVgaKQxCIgY1h7k9lxKXWVJ2F2Z47by1tOdLLpUI3Q20IxWbz+DeZlwA+CqtxefiZ7QOAhMKUzuGTr6wbvTa617dd+7Id96TCBYCFQCb2y43XM0x6NzT5EFF48GtmKAGlcNsC+/qcPI4/vI/3ETNgjf/+IE/0/fC95VQaqF+jIXk/aRoBDn43Fi8U23Zvld19+8QHXL3pp1qOo1gg0pKFot+lGe40b9zsdU0JM2Cr0YhRSCVX2tcr7AYxpwv8q95rL6uOarNq+huQJO8WDAlCIO8hRaa5Y3zPorjopc0dzKq9MNgjS4ce5YBCQ8328tred26p9jJkTNv6ghqq2LVxEubMzUFiDUMR+nCqdMolLB9F+A4xNx1EoQuQh5niUEH2h+E/hR0aw3CMhegdU4ESE/ZwPhIPZs0RUPsxFZdUWFQ5oGte9Sem+9Qnf2DfBrAaqt47zbV0d0Hnp8T7MFLzEJwTOKzvWocSyOnXns8ubbOl4NGHGmvUTfKAtfnUgwxXGw0QMkihhXWBlsDdIrGiULtQs/SDBNJh872SgtwKBBVhYmLb8o/8/nEtQRss89e18A+/OW/uQU66t3Um9pgB5jJSHhfOjZhMkByRAAkbESrQOchaj6o4uJf2Duoy2wCGOFbFj4dngA5eUoKlnUqMJIq7MfcpimY2aEEksnsVLtuvE1t3XUT2JAusD8hySDFaxxoXnr6N0k6YaGUVRKHxYD3UTOj9chXM8waRNr7of6cL7SrqcmnbEKXXer0cRLoHBdmtbKY2Yq7oHHLnfM8cf81encK1haMXlAAhsqZG6+cPfyWpt5/jS9a16zI5dNH3hCUHNR5gFk780jyGJqUaXbm5IggSV6Uzkeyk8oEab8Lox4jhTFSP/2vsQLErE1zu0TZmO2bOmQXXnNBaB16+raorr7NKpboxe9RtIGv07IRo7hFyEM7Onv6VHayV42NTpincJlVkKM6p7YMblMZuKDWLR7TCz2vzVByLdLNf6V+31IPcS0w7Bt1/iQYJAIV5kcJanUktUDi9yJ6cJ26odbuGrBBNaCTt1RHoKRGLxz9PlzzV0ttz0pfv66BXZw8//YYpf5SVARFRzzgAFZQkzJEelJlArmEZDAuvOIIPIlI59bKiTH+yTr7FzKj0tIIVsVhkC9nlgIoJqtgclwnOvtUZ1efSnR24+wBuxIRvp6woeO/58Un2zQXEP4XjHSq7s371EzyBVVITwq/T/4zCw0GLaM7du1XJ44fVbGQKBqFXydLJCkhKKiyD0bGnH9yFwLuwqCWBdhIsuQuyIysuisApsTtCOFgOBoXLQVLuiVYNjRCdAITf3Neze/0fRTiKXBTRRWwM2py9Ow9Kw3S5TzvavbI5byv6XuGH/277YH8+L0cTAuZmyz4RJBKS9kKajpEgtcURPyfsT3S6ScE6ipZ2HGKWyipOakzQO3SGcpEfQvrwnwbWCw94Jv33nSLumH/HWorNB7dAzvAdiS0n7fRmNDPwnOY8mioPAvXdHRvVX0DW8H2k8Lp5DZBUL+x8XFQ/kG1efNOsD3ccTSoPWHWo3+eJkI/d/bpUeT5PhdYDtSseGpAP+Nu5ApucZ4cwkUmCeWpJsW4iCBO9EoqZfq00M8bJ/orenojtFJDRcaPhaFsFIUqF1PbLj3xxb6mJ/oaXbhuKfbk8KkHQpUZp4DtkA43gQ6q+oyGQfwuSGq8mBkChn4iNKsDzBLiBVASS9xGqSaTcDFwIXiWi+s6u3tU78AmFafwB4meVjTy7v74x4UFKL5eU0sGB/du2qKSM+Mqk5zEO+GUD1DMTI6rKZx79+3DIsqpmekJVABjL+hVyBIb1T3At82v4EyTGAggtSq0/qBrrfZYlHE0zoriASlutWT3KKgyHI1utLTUwpLrMG0a5kGCKciOaC2QGJhEWHaC41cuHsAP31rBniz5UesW2NOj5x8IlMGfhruRmgwThC1eVFzkqXkavlJ0zgBlgLwhJlB7sdFJH8DBHl8CBSohFVk03AGeuVd19ParGFiNjo64TDq96SSbNKi/rtCFswmNGUEviSjJ1wMIkY4u1btlt8rCmFLKgN0BkMLYQc6dO6X6N29We/bdqo4cek7lwa6EQxJmIL4rklVKsjE18dIlTi/7xKUvQiD9TupegX6SCJigBHGyEV9yQ+VFjuB9erELuDHYdPm1mME1r8dL6zi1AtzFYiCDNjN+5eY2sOeZrOz06F0dGNwcPevIVhjQab2z1g7URBnoS6RUBet/UqJE9AgMFzmY1CORbrV95wHV3QNAA8wVTCatbZ6fhV4gBLMHLd/sz2JfZ1NwSSPGqWTUCgwV3QO7YCFMqZELTAJpiTwwnZ1Wly6fV7v23q5uuuV2deKFZ+CkNQ0LKdwCsBiLjHUUold72VLUdgtindUOSnRZhT+52VkCGEvKH6I+NSVIHEb2cM8QTYmOviHAmYKYsohNnxuydIYfJ3viQGawsAtKjCebLqsmiPHuUDMjl25Z4hpc8cvXLcUGr7dDfCCYR0PUTto8XpV2qtwvMURgcYvXCc+LeRoblNqybbfaNLhTRaK94kBEx33WTqwF9PoBJbOz7AEWF1roxzdt26Oy6ZSaHhuToIJY2FYXz59UHZ2bVW9vn9pz0wF17vQxlQPltulnIkvM801Z9usb3ij02hfpQzmj4sDhlOMJsNLPhkpxyTsofdf+3rJQwc4R6OS1KVvUHdxlIE/Qx49/F18Z8vPUGvGefOrGle3J0p+2LoXH09/6Qi/mvLfCshnUclDoEg0CJRYPBFqYEkoDUBFYFCILDMcKxNWe/XerHXtuV9E4nM6Y8QnDzlzWOtTK67Y3Yca/zfhdiz+2AGJhjYN/uDnBpL5B6Lq3775DheMUPlk2gy6yOXXxwim0LQ+r5WaY4/erRM9mMfJQj+hZ+pY+fQvfMVsQ5dUSXEE/bQYXg0WzCugnqLq4wXAXFFUqXBSg79f5w3XNSf1X7Ucj+iGW/gP1pw7fkkSe3AWEr4LJP7k3efCra+o3si4pdn56fAtw1WMzj7WutKgBTXaETvQmwoT7qdAYBgmIXtpS0Vif2rlrn+qDpoNBu3pSDDWu8S6eqVEolXztYdhPtOe3Kc9BFPl6CoaM5Al3dKrte/apsyfpvJSDYGqpdHJYDV8+C5P8HgitmwUQV0AZZ8YvY7GBclOQFKKpKac+vF1k+TtJHYvDR5pHkbeW4GRSb7Jxwod73on8XdsLOIa6Fd4y4c8eb83iqqDuEChF+0J5B/9z3NSWXHJsN247tdKLtdnnrUtgZyaGb7Fh2qNFK4DJh6eoeJKVc0hQTuGQdWOw7YsIJrb0FFw8cyrRv0ftvOEW1RGLiyzEBSD8pNlK6+AxD2jraPQsPM2mrH79MIFNt1kKo9Snx3sH1ba9BXX21NOwB6XBq7rq8tAJuJ3G1CaoE+Pdg2onwD2M7FQT4+cBIBQ8IiwE195uxE7o5y3vqN9x6oVHApHBDvgQ2wtYENH9az12Gao9cYml/7cEY3gMtnjFaKqN/0vmWRrLRPBka8sqGsj3pqeukM9uA9s/ccVc6gYZXOpLSY2Z1IY8HHXa9GOQrE50KcXv2P5z2F67B7ap3XsPIFd1h1AXT2uyPEAs9S4TuWLIobwbCO3t34KfblfnTh7RvtXwDhy+dAam9g4Vj9OqCbZlz00q2AFn/eHzKpdJY3FAFVh9vd6Rrt3hAz711gy5Y/IgegtCyCYfrf1SasEKejGDuIghQRujKExaKClIHThVmaDzEJCTaxouti557Hw2tU+CWcmG0OsM1FjcNgkYCIFlbH90TqqAd62AWncPDKitAHUoHIdWZLU3IU29yHs6sIZKBQKKUWKqD0F43YcFdyfUjV1yTSY1pi5dPA2Te1qLjWFQ8B03ov23gYr3VwORNUNybYTKeReKcU+Q3CuMVGIYnRicsGdIujU2ioYcsDEkNrxOpHajFhQ0URaCNiuTWlMjzWqjoCniYxczuyTPHseR1kEOHg6CRfhAioIwuhRLlurq3K62btun4rEuMri4R/uM1I7mBUB5Hw0UEiFuImLodmqEp8a6Zk1RNZw1LyrxjKS0YqGzVd+mHaI2u3DuuCoA2NMjl9Q4o2EAaPAmws/2QL8egePUBMz6w0PnIYBl4LJhXFbFUkiq6fG7TQ3jsi/SgRwALXWE7Dv9blikVZMWYfN0cAIuoNQpOciZNgJqQUTIQ5MJ1/HUmoaKrUtgO+XcdiqPJNsSveM8VZTojbllwjekmFGh6KDatP2A6kj0aPO62EvIMHoZjJYxt0aS9Hyoq+XxFnyU1spoZZnWsJDfZGS5uMHCU7ATrNJO/D581oU1clKNXj4NlVtY9W7dC52C9uCLdQ7ARbZbRdGfsUsXVHLssmQ9pWDp8bTL6NGSb9FDQEOY9pQUSyMERMkpTrKNeSiVdcQ/56kkOVMYZA13AViKHXxfymfWlGKvO1Ykc/DrEcvN91LYkvAoIYPUZTP5C8u4UV0FPg4VwPrggRfv6pGBZgJFr5bhwvy1BkmjgxY6uptyZ9CJ4U1Ujkl/sBBCiN+SZH3VzxaoYmHS3Zbpwei+MrB5m9px432qZzMslAiIuHzhpEqPngWFhwme8YtYxDTFD0AleMP+29T2fXcoG05WJVFTai/Ghg5NS4ZuMzfoBapTTnDMSUzYF7q3Yh5gfGJboclGP5lQE5H2XM2Se5xGnnxnM2+5VtesO4pdyKe7rHK2B4pWidQWk7ApqUHglVEBjPGM1BN3dcPwQrO4ybIkgPVry+YZNS3V+7S8RkNSgNbl/NkLahzOSzPJGXgDYiJBibu7u9U++HvE4xBMhRTU6QTlLVxMQpypPGAzPM0GVQ50FAIoC5Wg6ugaVLtvDKrwkKNGLl1S508dFSG5d/N2vesQwOgnXWcHd3apRFeXGrt4TI2ODGuXXIkKqomUs4VLr2Xi0bhsBfmsp4pWClSY+m6+G1opSQXBmFAxDOjdle4LElIsbEwevOHaHesO2Lns1GbbTQZo7BChBHymCzDzKNCES0oIid3B6VFUj0YK4BbRPeuJ91RXsJ6hNF4ylVGHDr2gnnvmGQEbJ4kUm6CmIJVOZ9R3vewB9eCbHgTgWHFMQ7lG+DUTAsWAGFukCWYvlCADfOdV96JmJArT/s49t+JzQJ05fUqdPn0UFL0ENeAegEerJz1eP9E1AMtpVHVtGlcjl4fU9OQIGFykGDOgrVAtJzyYjtUUT0FZ39q+unxwmz6a4dLlQ7R5XhSQdL3l+NAww7cR5NxxqDHh7667ppE06w/YmZlBm4XsRRjz6I+Grjj1VIml5j1rBLpKq2ZR1LlUowZuSw0NXVaf/LtPqStXRlV3IqESiGtkYDDBxVIV3CUC2BUyaaREECF2LrWWufdxN8IKUXb0FpH83QsWoNM+gRFVgzD5J+BdeO70C+r40aPocwTsynaARwfn0g+D1NsOdsC1NqK6uvrV+PBFNYYzk5yShW18l/RqEo0MX1xbdLNb3DwNnV/opjbEc4zy/Hj4bp1DVt+Ha9Y0p9+6A3ZqZmorE6DD8aJuDkQr0PysNHclMHDy5HF1ceiC2rplm4RJpQtQw4Ft6OjoUJEEjUAV1QV98x333iFxkp4PuF5ohvWpe9v8PLx3mXa40kCMI55y//4XQY99WZ06exJ8akH1dG/DjsQMVtpFVMQMsCsBJ6q2bbtRDfRsVROjI+ry5QtgETKgmiwarbFNNahnQNG6GsMaNTciTV3FMWESIp0gk0ayWpS81/tiqRgdPfFscGDfXUsv9NNUKxa+aN0Bu5BJDVQgjNCldLGjCiGPLAnym6BR1RVSVjt2bFOJRFSlMtNq06YBdfPNL1Lbd2wXvprRMJw0AjGCtAt085xP8Kxvq6Hq3nuE86ktS29BEBQECCN1tu2gqb1bDQPgwUAKO4cOqqAwKnmySQXlhFcgdN+bt+1SPfAnvzJyEfLAlEripH81NRnCHDAm0ewSK+4SKxuCzl4lfZlNcdjfcgUrU2oYr8mx7oAtaiLw1BYyH/kP7YOtx7Dqky0qKX36ed6F/anr2ZvtO7ao977vR9QIvPF2ANA9vd3yWh8MTTM01+qfw8bv8bMqXg+8NtZ6JMnj6eSPh5DlIeMSCXWrHds7YbwBFZayfuDbycdKQnst7EoLTJCtAwvm1r2I+MmkENQwCv57WKWmRkXHzxQUwrpJ6gjtC9KUZN0UDGvEY26dTL6GPiQ2IvCoE1ybY/0Bu5DrDVTrmzc5KEaw0XxtI2DN9xykaYDZePuOraCYWwTOXqWCKvzlB8021Pjr5t5RkwcWuV4eTyGZ7wKnjcpg4iiHgEKdZcqrzUsiXHMYYIuoEo2giljHlu2qv6dXpWYG1fTEqErPTKs8k+swENrrfnXDaXbnaXL8G1wGwIegvSI/icz0q3+sO2AX85lB6kaXwlELLfMCBZbgkcfhJmUkiLQxgqZjfwCDmRB5pgeGJkG9hLmspkgTpPJVOlkls1Hp9BKgtsZIw8dqTYe+mAYTrXKDERPWzN7+ONiorSg8mldTU+cRjjak0qmUUV3qxSkqyxUXWGod1qVMykG4x9Zvu0sYk6u9dF0B+8pzT9pHvvD7sFgxT8diuxjR6AFuFk+7wKhoQw6dlnQ4FoOumVwnyDQD+K7gYllBcKswhhKGGQkULmZhHYSpWPhWaiqQXF5gxdhFRmlry6OnxWm0KJvNLULQeUuoAoOPNs0LnOXUqkQ6gOFCiSCnOzVNQMydgrhQ5kOh6i9cUH2xgOrvBxVPJdXU9JRKI2xtBpS8AiqOjUp4d8lUxSdL2B1Bz/fx+f4F7Ln+cvfgIpJl5xtl79rafCA6qKOST/fioitXC9Ll3L+ugF3OTscxS/Ax0IVG5z/8gPZ+bq77BDZPrfNlYhxMEF29cxDenQ4VhQHFgWlbxbG+OPsw36v0mFIzw6qUHBHBjK6ptLKVmZYAVhkHLAPTEGj+QcsCc20j81P6GqtgDCNGOCvJQ0z/jIKa30iUPpaapAUCdQwnYIbvAivViaGDRVYVMqqICJ3KFKyZM45KBDtVoncrss/m1MTkGByUJlQuNYl0EUmdL0R8UbQvtn6drB6NYdH88HdtaBJNi6w8f39qREarG6kihb9rIdvV3Kys/FXrCtj5zNSmcrm4yZj3mu6tUZ7pAeeY13tB1T3HYT5tUR0aLzzojKdzyA/Sf5Pq3rZXWdAVqwhUsAhyME/DnO5ANnlU+B2DBuLSaRXMT2LZQXMDVZxQfZOMx/8i/7wvxQAoUPZhRnAmQJeiJCjvgR2EAbiBmCpFO1Uc2hG7E4QR4KbbAaPLia0g8qeo7F5VnBpRuYtnVGV6RHXBPTaBfNbFyhaAO6OySYSwTU2oFDQqRexKrNnOBJNa+WMS4ugBFbB63mWai9EuX7VDLwbx02FZP+wASErEClhrcqwrYBdy0ztRBazbq7Lb9Ih4RLsJvlEoNa2++IGsw9R0Vg3eeLey97wI4OiBD48WP+lTLOZtqtoCCZiRu+Cy0glvwn5VOvOkKkxBLScR7gwO1tv3fAdBvlRwV5+F9jLhvFb4ab6bbEOoA8HJe+7QVJrOR9R50zNRqC5STECFWA51qmDXNrgebFWFo8+o6UsvqO4Olv8IqxDST8Q7EKbUm1W5bBIGqEmoDMfAqkwgeT4DI7gr6HfKKWPrdcSwJAL62WyIsUSCxyuVCh1Nz+EKX7iugF3MTu2lEMf8IIw69yhCFa8AD30lhNf01GWiBjTCVBPAFqoDsAYw8CMzadWx735l3wRQAwScSXHhmR5Wpw4+rkbOw296Zgpxkz1qxw0H1Lab71Sqb5sknMwe+44KJs+LO2qFxhSJovcBwT9RnjpyGZNH3r0EkDF7VQBsQxYatFAXQstuRJsZzwkwnj38lBqCWT6HHNoxRA9t33+n2nbTnQA1/Lu5SBObVOiW+1QCMsPlk8+rwYGo9JMExJHa7EGs6W41UNmODFZpUPBpqA2ZI2Ua7gQp0bzQiSvA4AMSBJYHZDiZrGdvvyQRkGIowippy21beJQpL+WT2whsHZIkcppoRzRr4c8oqhG8sBdfYxTRDM9srKkUhKste1TowF2qFO5ExDhwjQm7fOKg+uInP6YuHHpcdSAtQQTkPQ8GOoUSCTfe/zL1Az/6kyqC9MGJHTer4nHojEuosSiZkAz1ari4PKrWzMqrb7csWRF26QuCRR/rVyEEKSuwIdMXz6u//9PfVVdOPoe2Qu+N1zA1YUZ9Vt1w50vUd7/zvapr1wGwLVgYCdx3Oxbx2KiamhlVvTBKiY2SC1PKf/BNATw2qiJYyJvhiUif8KnpSVDxKYzXJM4pUHMKnohPZ3YoBoIYO4KIziLU6vLdIr+4ou5bk2NdUexCPrVNzLMgnYxVlMBdQppGClJZ8JC6VqLemJdzEIR0sJqx4FgEFoSpczkIZE2nTh1RX//If1PjoNTbYKjJMV0BJq4DDlHISKIuPf459X+HT6h3fegPVBhR5sGenSo9fEoF3bT4IzOH94ofEj5OuquFt2D3JlDqAVW6ckp95L/9mrKReao/GlBh5PPwylt3wWI6/MzX1eeQEPP7f/IXVResmkWMWRBhc1vvvlede+ifVFcZu6LkxjYkwkTlUximdgSlqRCyFlNbIExvAiUuIIopCQrOM4uMVllQ9BwSz0utHFBxmGPkU7eVc4b664X8mvHYa2bybAiAfPJGiTgXPpGefZrt0LTZWM9E6ewJ77xuft529juEuQEfmoU3X7R/m0I2STLbAAQqA2Rm1OP/7wvqyrHn1CbwoSVsyXS/5CLKY1ILuaQa7OtQV84cUV/67N/rZm2CNx60EHQBYDjU/IdhlZaBep0KgmNCH374iCMDLCnrv3z6b6HxuKQSUWozEIoFkBWwEC0sBBe7SFc8qC4ee1o9+ZXPQJszLsSiyCW8eYfqQgT/DDwWPdWn7AiiGeHYiqQKkAZUHoJ1GtoinXYwrLqwmHfvvUXtv/kudeud96kDt94NL8X9yLA1iFjThCwGplkuYUz5GLeYXbNgg3UD7NzJxwLBfPqmgPDMtdS+HqfNAAAmnRTmZOk7ehVSDvM5l1BVDIG2Ch52CpTbwaRNI6nN0acfV11IakPdNrd1CpAOtBAiSGIHmXEDiITfog49+pCqXLkM7UmPUh09Eimv/5kUaXM+r6LBBBmIdhG8tQXhFrnU4OZ6Rh0/+JzqDCGrK7QfBYlAg0YD7Ag/i/g9CWocDZXV6LFvq8lL5zT/T9eNEjJWIUlmKsvCqJq9kerA9Gk3VNszWDFrnMPwNOGbCXgWXkUubfjxhJBeuWfLLrVj321q320vVntvvl/t2ncfIppuAch7JYkl4lF3L2Mtr8gt64YVcYu5mFXMDjAUyjCsszqoIa71pMvvuxQRYjQOHIlcZpkiiDFZ0yOXVXJiBN521DqQROmJ9PYMvpQeGyEksMxPzSDafEgNMpYRAcR2yqjCrqJd8/dIB5sx82mFKkhEE41egU82HJ4CAHIBiSL9YQF6b9D3xJBUMjt6QU2NXVGJfToIQsRj6OgtxFrqo9GiW3ghaoajpilhUqOeXiTB59qhnwpyFZ4bmVDjpdKu5c/U1d25boBdKuQiGJQQqYR22DH59GQy9DYp0Pa2zGX2uyTqO2gWoKuWhJD6obBpIGIGPGmFOmxP06Jl1hq1lxwbZHWh+4Ylj0U76I+sFVzX5hA3azI6rL9DMMI5LJ9kmgY6OdHpn2PFkDl+akBqthmGG8aNwpyeQz5BLlWk29NpgUNx/IUuufMBu9aXZvIISqpmnHkIlgw2CNsx+N6AC8m7NCGvybFuWJFCPhO3kGpXAldp5hVLGKVu8nusUKB/luxFV7ezy4RK7B6fzWFnSi8A2oIaT081NTH1oBbACAWH8AqAh+OQi+AHTf6awtZVbSMLTL32GdFaEdFmo9GBKEDJCHhySHi3TjvGNmgDib6MfWCOPkTDI7mQ1KGU9zDEHDKB+G03OGSxe6xVk5jEu5hllhoTLvQ0cifmsgW1tbOztzJydE0wtiYvbTRcoCpI35SlR6bOpo/Blbg60iT8Tp5NfH20C9yyDybbKYD1KIGSGasHXoH0BwODKLsB44vxMSYlF7WV2SFkG6ffCKNHmAtkK4RPUMwK852IV9G1odmMnQRHIYuqAOsgWZC+rZslQ5PDvOEYHy5Qzy9KjDRkrxgpDstoHPUoe3sR/S5J6Y2GBbsTeAZZwrOPqnek2cmaGWjJW4j4UIawhZHpKoI0zUyNFshkdiNpOMy2q3+sJ2B3lyRbEh190Cym2jLAIsA078gZ1BRluQdjJZmOLAV+GqoPSc3Fh3YO7lJ7b71LpTPQS9OiKAYXnfaLZwBtiGCdTSN1wr4771exLZiv7CR8TMC+oAYLqx9ci0NYESAXdkQVgTMTTfu79u5GBPvNagprimmVhX0TNwG9c9BoROE36WLB3ngnAoVRbQF/kRYiCU7q0ikVQ9FREQgXOZbC+nHMihBmGY8ZRroGx03H8jNjsCSt/rFugA1Qd0tmJ5MURjzYCGxzzufbvFSI05st1hFRyA+ImZ8gGZa0B0Ekqnnxq16HNMA7VTKDmEtG8NCsLGpHLjIkNJ+aRkmOQfXg976Vifuh+B5GtlKEkkGAY/6ja3Kgg6xQxjfAuUOVp8cRzRNUr37j94nlMYOMqVJbnjw428vUCGhrCgs0Aa3Fge96UAW6erE6dEFXBSeoFHxeumK8fnFgN9MnjmkYPiisY08fFNofglBBOhWwlqXszmaesdLXXKPZWHozK7l0D1VrmjaTTGl3ShslpKWKrPDXRtWnCXd1+/V+9jjd+cAu0jwpbyymQrlxlT/1DL4ghZbXqS2o4/iKH/pp1XXDXWosVVIzqTzMyxk1MZ1Wl6bzKn7gpepN7/tF+JbcCI+/ceUimWRIYTHSaMQdxTyn4Sf/TjcAI2h5EUGeHr5RVJCOVifPDN0wgOvCEpoZPgtPw8tq04E71Ot+7OdVbNcd6lLKVZNIF5HFjjcNqn457cJV4AH12nf8hNpx233aoYsgRmTS+OFnhV93oD5dXOTV+6Tm2byfjfuYBD94I41ElBEsKKRnKGepQkRIG+cK1ceQGebabGWLQGxNXtqoTeV8rosuRdxGqVbzzOVSTsJ/g0dkPHDzb/yZY2y+WyjWgKmG+YhuqPXGLx5FLZp+Fd17K4QsCIMO0iLc+yr1g9DzDh18Ul0+cxzunVMq3NWtNu3ep3bcep/q3nUD2IG0mjn7gopmESmO1hUoyC1ysPSelouNIcQAnazEQqKn/BVAcZG2AZkZhP1R548rdcPd6sC9L0co2V518pnHYC09jICCKai5O9XADXeq7bd8F1wGdqDMCeu9890oAXj4aVVA8sueXngHmzqN8zdbD7TMQyPCLrp7SkDgpem3zmQ6MAB0RGGjZRl7/h3Bz3gz6wGu+rFugI0I8Q76LUgJO2MoMLR7hQZFw0fn6wC1CVfAZ8IR6oVvqR30q77hXrGalSFcduzcr/bDj+QmZvUHm0IrHFkkC477Ci6rpRNPKys5JJUURGssDV14W9dZrMAPY5XqNA7069aO/Tq5znwHixZ5lYkhRGN80uPDSHJ5HB6Jt8Bn5UZ19+Be7Dw6TlIkg1AMOx0oMt4lWzJLdZx4Vo2dP0gHRmSsog6cCT/5x/r9TbROfhmmQdN0rXneqRNQkkIXpyGMAtAhsCQ5CLjcEUROcuKXVmgCl/SYdQNs+DlERGiT7Zpg0hRhJcBtNOD6WcbvhAkLLGyV23pC6iIcnuyJNKjcXcoWv2ZQSBhibJwy7aS2SFKjxobU+OnnlQ1WAO4ZuI7/49M1VVtop6Ap30V6hwIqCTCTKa9nmWeHJ7U/8wrEOuJcszc0/8PLDxv89IXjKoog3sgWpKGGoQimQImICYomyRyg0gpVyyaOP69yw2dUZwd8TYLwusPY5rFoQ+K/PRcvc8A96xL2l4AuYWEXIDhDNFIz4K+pqi0xCBkFmBxoYXLQlDjBGISZ1T/WDbCRYagjyC0dg85EMFSMSJpaKSNdhmslcgxBTWexbkuTNnXxgTAUiYCWYDDYp4X6slwe3kVHy/4EfEMmjqqJx8+qKITDKMpMO52D1PfBlo0ImulLqjJxSWUguEW5zyJ4ll6IAeqxKdxpVc0c6if0kO/FRS6iV3Jw7C8jm5WXObVMTznIECE4G4Vi0HtQE0Pthq9/ouuQ37WOWrQ6aH+cQjZiGvPw1LOHUGx1cLuyKSSyziVApuCsVGJiHSS2hEVX9WEBS0oG0Zqw+hc3GfLwNQrtRfsvOrxgi9jldAiOYIMoO9K7RQWn4P134tvwdpyBdRY7H031mM9QOALeafWPdQNsgDcc8HhVTprZsrVQVcsJ1Zjhm3/giDcvxIlqXAqnnEy3SD0vLRkACsvZSU5oeLFdOKMyl64gtqBXFlgJ6iu7kISQiKhCU1+Sufb8G7jsLLO2Fo/q8ZM63lwqLdt/AMBjvhLew1x3GSR7z+cgwJLKmQxUPpKr+dgqVdWLh85LEM90RVxQ3uIkeP4phBZyh2HMI3Xt2BkcmLdRLFssrIWZlH4+CYYw+6TeOo0bD0+VqneghQ9qYRitEUTVhuDWA4jkCcNtZpOKBLMqe/Q7kg2XKshUJqlyU5Nr4gi1boCNSU6EvYqv4uHHWFVmXDWRIRhuMZKIvnbhQ/O8nuCjQ8GYUFGATIpJL6cCYxX5HFZQx9YM/pqPj1CPHoSmQ4HSAWxS+FM0NKz0S4pKSs1cggSYTotQE3Xr26UT4iC7Pygz2Q9aK+0Ydd4aOlw4UQA/Cd00E+fQv7mGKs2Hi7GFYJMwHGZ6IjCZXZYLFhScbAG61cGcefDqq4DXruQZlIB3o8YJnackABk/V4IMRKblFOMKZr8SgUoObZC8435WiF1egGxTBRtAttUCfMJn4EBGuzn9U52OXljRA3DOqqDmzrg6f+aUGuy+AREcq3+sG2CjDAfEGmZeoukcA00qzfrejNYg383kMpq0LDjos4eQlEi2eFBoGzpfUmqpd88gXG7tVeOP9rUoMVobJmEuANYSt6EzdhBKVdXMCMiNICov8xbaLDonuNRXSuEhpiRGjXdJKi+gMdlZ8R2CxqWNngZCg8xQUgKZ75RfPQWbt7SxuKh9wN9oQmebK3m4rYJasx/aJAPg4oIg2ANRStKjTxI04aYs7qdZE9k0A2iH7pZ+9kJ0m+2j9XYMxVkjdg9cgEGUKbxeOYbbJ9XUxARSJJ9VyfEJNeii0ukaHOsC2GNPf8V67ksf31TBNlpGql0WwrQhrFXgDywZ9XFQaNKk2ouoaXa0TF0VTHogo2vYSGE9mUBQruoUsjASA3NBjcoIPgDlKZENwu8w4EmMpGc4Z5oxPVvenJnffFuJiJQsAopnhsBHS75YqcZgEhdw58EzK1g8kVgUac1Yp7xWCEr3Ti8aBgvrRxu/PR9rQvWl/CM1J7Bz5NGxWEDGDeNiPMVri8EC4QgwEJn6Qy5ychbQ2rA9zAarHdDmdxNgayYA3sefekIN7Dqpbrx5P96dhJxyCAYkJKyfgI4/m8fuhzHMp9ck6+q6AHYpl42i3kmvN3kcUq+csSf0Lcp/LIJzl5RKGG7hUeqOKmhk2/eoqQaRUEL8ZwqHVO8z3M78b/XRKfqR8+RXos+mms9bGgBQDAkwdZgVTNJgXXTKYX0sxnYxYY72D9G7G10E2EV5Al84T7QRr2cRJXHrYupiKclhUriZHWM+UlsB2zQ+NKTOH35STV05r4ojz4OtQrvdGTwiq/l/vJoRNVBBblyKDY1BDIGgLPclKiPhe6VQvRfZUcvOtAh+5/xZ+2+D1+REesaRedAiFE4EI/KhGiwOWRM9/TX2d4mN8JypZNfxHYI7Ns8H4aWggNfSJ0S6I+XouCi0JkaXDqHfzTyd5XjI7mfKicgC0DlGarqkxh1NT8+oiydPqjA0IL0IZI7nERRHp0Hw26hFjQZBcBWNC1g/l2EPq3+sE4qd6gbjG5NipaSQTPoujHANTMzIJFTGUFQOlU5jq/lMP23TPswexTOsC+uWQ/ijJsGhVkOopubX66ZeWG2jYmPddRQfFR7Wm5t59c2LTJ7P8FEV1Lw2EJfCchn/mKbfwb4ZHTf1/qhqhEoComajKX4hb1pRU8rKwJhC2OMKYcwmdw1TpreuQ1Ja2nxz4fx5lNG+IL9JjUeRU7S2iZRfWCrGaoKtyedzXkTDqqJ7XQDbZcYgAFsqglGClxrjpJxGliEFlUqbemyEmxA14GIbtbkFk+7AvMtdoAyNgaTlFY6j3srmCWgiYPEdMDIQ2PRW06LlfPqPxedMWJcFAFtlh5oGtX6njAsN23SAggCoy9ShpeLewXGrjRGrNHj+KqKOZGUI2AesCIAofDyXb+OdicI7A6xnQK3PnD4NFSUWkBhiGOGOBSU16jUbpxkhsjUIU0Nk1OKjs/JXrAsnKAR99oDHDouDELdrLzTLBwa9QXJr1chOp9NqZGQEA8dF0PgQQQ3XiocegwngLxxk7KRRbxn22bcH6MUk9dyi4InDLCLENGjgFWnpXyFvuJWaRmGS0F7Xax+SEAY7UPSI7ScFpjsrh8ucsrCpSsXCpXAJlQZOcMQALPtYAYXVBiFPBqiNrCR4Bw9/8tQpdfLMGbivwBOcgrawPRASJUpf75y1tURbQWFNomjWBcWuFHOS7F0qYxmVlAyQkGcDgyrhYZg/glhh1Dhx4hhKx21Wg1uQa89QeA1/7x4t4kleOvHttmHhQ7JJGCaoX5YinX6qj3nm32hqrwAkOhWEt5iMT8i8i6jW2MX3kfqHzOmi+XOdPr7he7UaUOgkLhaHKvQhiD4CaWJwYh/9O1uA9Rppdkf/XNFne9KDlm1kvDwehs82i9kGYRi5PKKOHobmg3GjoNS2w2pnbJhhECXFFgVSXcjVpqWzXNy4rEg5N31DgBRE/BwoUwuczOrXoky9XhXmEkzI0BmYwGEU6O97MagUqSsCW7358QGB39H3mAEGfC4pnBVmWkfylDUYau6EVNCwKphYHQCr182CB8AgRYXMjuKliBerIU4/3z/nOWRH9RrUwqQ4gpGd4A5CleP8b2bMI0eoqgWhepJ8MhNqAryof1B3s6apbKd5odkJq7TAuOBqUYMGHnrVgPICsC+8cFCNIklPZwdSLWDB0MAUABHQ+UQMC0Pqz/4yuQ8skIVssmeRkbsmf14XFBsWhX4CT3Oy1SH2aLYBlbfRyYjrBDoYxKMHn1fbBvtRYm6v9tkAuEWrZ4CocauFLObcmC1QzebT5/Lt8zE6s+aD7RdNgFENStymabps1/PPn/c3EeZ40KBk2r34rJslbxaopt5cJHXOvrMes/AqJei5o/EIwEmLu+jpo0fUs089iaoLqL4rgrx+JGet5lisf6sZkyStw5qwIuuCx0ZWTphduSXOZxTwRCvNA4ugw3J42FaLqOb17HeeUtOj4zLQs1Vq/hmd15nfCKKzQb2UEDQJNuDWDnM7i3lKHR2oz7jd89ShCI1P3leCfV+uw/YdRt9CYiyhAWmhRDyLw365V7DkIPtkIzpoZGhYfecb34DhijsBXQuaW+xms1oTjK3JS2cPNqqEdWm7id5WhUvWu3CV36vZ3szdxq2VnmRD5y+qZ558GukTmFeOXj7aSKFzPjc3CcsFQG1/kbQy2kOZ5ezScARKwTU0g0QHBbBO8FVxeAKnsGVUT/4ehHYzBLN6BNeGMi5ScY8jWxWyU9GULqkoVv9wYFCiD3k+mVRPPfoYcpNMwjpKD0HGgeqERmI8M7yaVpvqsfbYRslFXimvCVewJi+dPU2odtUtftLkFU2QgQayJ8/X4KNHTg8geTmqtuIoMnTs8BEV7+1Xd913n07XwCCAqp54/q13pYBPQweBTdO4i/AodzwJDzs4JgEEDoS5orht6EAKCaYge0L/EJrd6QUKNSScpLWSDJSalXkrMHZQnRdYkK2oH82r6g8JCYaWAjUXVRG5zZ761rfUqcMvIDIH7SErR7dd4y9DgAclOxeOKmtCtxj6IOgZBC++JuU61gWwQeK6PaFGL3pNsRsdwtuJAcWMp+FfCZYnH/22UJXbX3S3dpyieZq68VWg2tqMzZ2iAoEWvtXQHJRAddNwVy1PZiQKp65ch+6w/I8AlzQL0LUHsAh6ensR4UMV2vKtnUul8TLsorxnH7DzQB/+DHjqJ77zJEptJ2SBidm+qqZiPAaFXLllziHd4+PK5TXhsdcFsGGQ6RIKzLGtjW/DwdJMNq4zshEHT1IQ0NcYnnvPPP4dUUXdfvdd4pLpOe8vdaKXfL0YcTjL4JUJgATUYdhJoogGd2dyKpjFAoPjkVBpAYiOf5TkQPCuszsA/O4OVUZQbAHWQAv8tgQY8FyFhSn0QsLgYKFFcsvDzx1UzwDUzJhFCYERM2JH8CRdzoHxjPRTIf8ey2eyetiSx3IFblhzYCdfeMQ68dnf7GENbrqsykQbdRSpskcM9Nwa7s1MtDeInsMUddB5JD9/5rFHRQA7cPvt2m+C1jnhuflAWTorMHQexTWPklhKo5ak4EfKR8tcF6LsEVxQyiAkDN53FG69wp+eL3QEjvohuMci1AJBXzpdGEFdCwJYmebWPUUGVrsLiHJVdOCAL8LXjgLUB59+Bs5REIDNWGv7gLfN6FkR45fmqnwb7CwmslzemKwINAjILZBOMPUC9l8tOpqRMmMvg+jVN+T+JoCusiMG3sIbwg+EfvUw3jz16LdEJXjg1lsRtUJ9NbULBHjjOL/lQMeYkORWMWoY9bfW8OjJZmBAhQGSsPB5LIf2O9FbPhcykxBrIZFsiTZA8agzHi2ngYvcI1IM2Q4AWCg1AiKOPPs8QP205AeRdlYDq40QTgJhqI3nqyP9N19q8HuLAHNVLm9MAw3qlIRg5g1y9eskkZxsX8ZTMznCakhODlqzSBA9X5F6Bo8Dy+RdeeTAfurRR0GBcuq2e+4WU7owC6zhcg1AMt8jOc1km2xoRELsGwwnpIKyyzCIAuwTMz1Bv6eNRavAdmhCoTcvKanNxQUgH3rqGXXo0EGAmhm59OKrHrPcCcScjh1SC8L+S70lrV8C4X7x2uHXYD7WnBWhW6OAlXY7UmPxDONI0enJFJ+nE5NY1PQWr0HtHw1DTWRT1dSS2ogiKPfTTzyObEkZde/9L8F2Dx6W2zxDsFbxoHmZ+nahwrJ1kz0ylkWqdrCjyFYjC9vryzVuoMgmzNZkIcFUUh184il18tBhJHkn+6HZkzpgS3OqjKGwLZJSokF7pW9yvfh5Ry88/lBwx4tfSXqzasd6ALa0wYvYsJESQPs9cBw1BeMgkWLrBYCv/LpdZhSVnVtPhCYenBkYN8gdQLo/8vRzmLycuueB70JW/l7Z4v056ZrxEmw0IwuB0P83GpQCCaQtZsQ9eFjxlKNTEbUK9B70wrKkyzXeeqVRIMIetUXiJ63DwVLjk+rxbzysThw/bpzD9FtFUJzH6UsTFVNWkFNUbajn+qAXgKlM4dDBDb9uMGCX4blhojw0jj3+zAwYge1td2YI/QPZaPLFO1jUgMJ4QwiqQM/9gpqEy+VLX/UqtW3nTpkYmoYbqapWGlCiSGCBI+ilGUnD7V9qTdKvwnRmuYtrKW2lfweHRJJs4hyCT/WjDz2srpw7j1TDLLNhbL/cGLVetfHjOU+ij6dfu0dUfJdKvKVQIM5nCFbYVdeMrDnFRj6RIAHmMDe1jJLPZZKg5iQADP5hlp9lu5x7aEbERDIyMBjbIaNnaH6/dPqU+iyqZn3Xq1+tbr75FsXyH3NN8POzArWNeClwql1LENNrEJ0S4xKtdoyepJB7bQ+v5ciCGkFCTrj8njxyRD361a8jr3UGxpcY4oBpJTJeH2hiLeVD45ZxcUj6Bqqy65rPVWFYKvGqtCKoHkaf7Ilr28f6p685sJEjICTWLEqEnHhDAYSC4T/GApKX074WHrOxhCESPkXrjjuQuzkLs/vXP/9FdQVm+Hthpezp6ZHMRdovn6ATUmMojsdr6l8JD09OEnN/g2bMQ+Oq99fUwLp/Ky7JCv/uNb/Gnnn74BVQ6SeffEo9/+STqhv+6REubka9GDbF65Lua+NFLnMB62g1DYxvZIzOSgvqTErkVjorhVwvHndxCbN21ZeuPbCLhbBNB3eYa0nBWFaNWhGrgIEBH8jtThK04HDJeHs6bFJz7xR8GL5OrqzpqWVCzT3k0KNgB2KYlzMHj6hLp86q+7/rJerGm25SQeiSJec/vAM9/wezgQh1raHQWD0NwqtT7/dhnmdaZD+qIl9vOV67F4yu8fFLs6+r9xokqdUBARwniX/EvfTJzqK8x+ljx+FT85SaQlqEPiZnZzUGr02yUH1AXmCF0lHLCtDuwDQPWuCvHp4CgO7HiJbHHHZVcplVT5qz5sBGPhHwYNqAUhtXbSygPqqaH9uEHskcz88tLPBHT7esDSlBegZCkPvKF76kzqIK1y2336b6URQokkhIbmzJ8yGmUJOoh9A2k92wCfOwRldNehZYJNVtwLeoGUHuOSdZcMbKQONxDqFcx48eU6dPnIQCJqQSSNyjBXHjWib9WnBQZ7WCYwhrL32+59ymfen119SKQJlZKqx6CoY1BzYEGnhDMo9F/c7MkCzG4EkcJLdX5sHgRUJGF9rwF4YSQ7wgMmoDD0Abi0bUqeMnUAXsstqxZzdKS+9RW7dvV7E4guZNFqhG7/W3wGvR8lu1PPgLO+QT8rQASq1HBdV0U2r0wiV14cQplM9D6excDhXRWI2XO6J2HruagywiYyi1e4mPSTOspEcFdEqJ1S9kuubABqiRqMhwgDp3gIwJ9dAElrY4UkDRzvdiFTfUXeN8aUAXXpo7tnAXGuAxCFRUwx0/fFANXTyttmzbpnbs3qMGt21XHdiyAyxOJBs1fe90+FRVHjCs8tWAZKF7RZSmUOeT0DwiKblSJG6HGgqm8cuhlMiEunjhvDp/7qwaHRpR2RlYECHkhZlAX/oOY4zOHzxHx7SUPtBf22PZ6sk2QS5vMhsKPB3LhY6lPHslrl1zYAOwAmwjSgt8hAIA2DrsybjoG/8JTqNETAm4NMCWRMBJYczuIOuDCwfvo/otBgCU04jCPjqlLiPFQGc/4il37lZbduxWPX39qHaL1MLmXia+0Tu42Ul0PFR1Tjyz+HyT5FfvLWyU0Vx4nTMX+WfKIRwLYCgFdmMa2ZcuIa0YU4tNj4+hVA2SUCLANoL0bMbab4BmhGBDMJY0dtXOeGb/+dgXPwVitFO+ayXAupRnrDmwMWG2BPH6+NfqxibCD6m1AQ3HS5yNNB8nNy1xR+XzdNJysyDqWCDuEohkh9EkD1/kSxcvqLHRUYRFvaC64Uq6dccO1b9pkxrYNAAqiPS/SHKu2844Sd2WpXCq3kQJN2FunN0dz1/EWyiMuCf1TqHqWWpmRl0+e0YNnTsnKceY/BJ5PEQNZ6OwKrU8RfGd1g0TvdJyGjgLUVWOsCHSvB4Yio2Vh+yrG4/HBmhpDluU7HpArgLSw7VY6ppfy341XT2x5yrS+TVk4ihgsmgIwryy0/CrnhpVF86fQ5R7HCrCbjW4dYsa2LwJlswe1ZGIQxhFGjMEGTgmaoeaCb+mxt/Emjqu1m6PxdLXeS3T40J+mIBlygkCmGknrgwPI1/3tHKTk5JKuEDfc9gCWFyJjl6usHdmXM3ibX6Umr/Ss0LW36FBredKgL3xWBEYaEIVegnJKNSmlSmySuB7mSzRY1XE1C6sxBLJdFPzZHYBE/mhvQiJcLaNLoNMZ4AEpSi0VOTWf3lIHQKgorEO1F/vV719faoPVD3e1aM6UbOmE7Vg6JNShvpSZAIf++Qlrve6QQFQSxk6NK6ASJppJJnPZsZVajqlxken1ejYsJqaRpkQaD0YMS45OvEZxtjR+BSkK4Jh/GVXk1caYJsdwU8+qgSiqbGpv4j3OqIt0tHxMhvyDv2GqtqQY0gnK4lpXd1jzVkR5uLytA7egMigk+IxJwYpoGQp1dHfYoJeAoVuajirzzP+EcZQI/y+8PycLmNCxt8CdM5C1QCKY0VEyAyncurS2fO4DoWWsA4GBreo17zitSqR6ERImAY2qxpoJy9DSQ3Zlu5UpWLtKz41Ma3+5XOfgTvptNzjoBwGlrQ5NXCC4J+lVAieJ4EAHCeyWQIyj2LWeKPF1aRNjZSmxHgnndJkVrhjerfyJd4vRsEu/XOL3c0/fWWuXHtgC5ppWDbupIYYl0AexVkI0SW6TvhcqrHS+OZcuECHpNMlpPGFDSODlHzmomIUOia1JCDVVQlsqLyKTE6PrSQahIqQtV3I0jA0DHpkHXci24wBtkCj3kdFW1IMVadbLiLVwdbAVipUt0hBlS674mNiqgUbasz2Gb2RIZv1PK43akLBibsq8JYPIC/WUfP9NQ2IPFGwrQVbj31ETGvX8t+2vDvXHtiCGSajrO7XMjj04RCL4yyuo2ppuxbciLzM7/jgbQ+6bTUhTwNfomGYwxsTCXdqUFbUEod7AEOshLER5byeZD+SZzfdzwvzuR1xCKWoTuCi7B77S/Wc6I1NKW7jd6CppwDWz2TMDwQP3MuDiuFnOA4kRdxFsSB12Q4/E8kG6YWstU/MxZjfeBQbheUjDhK+CxWjdxlNwlTtmT2tyApbGCDxTDMTqYexEU9ydeRI0gazQpd4K2nvHtId14STsW45iZQNyk1/cboBsAScU0GETnAGvO8kbomB592KtQr+mio5YWs0tfdWqQ7DYpUBCpwB6MnxDAYgMB8e3peaQMJHh9WBUYwJuGG2aRtjxCyxEigh7eN4SY4mbUgSaukfE0MolofiWXdprRX7TndXzg912PWCowd8dlfvsLKA2YxygZU8VvVYe4otbKH2wuPBaGiJCRTKMB+zsfKg5rtFdKPxogRhkfnKWWGMiWyQCq2IyXKhE6ZRpAi0SXwmUjzQ0SdgAcyBHlT/2q1sVOiC26AKowpYtMML0Cb19pKeGa8+pmUwyTFZyUzDQO8YrMDrhrtQL5EuFqglg+oOpPviRgP/DBYjdVAjgbFCTMemx47mbbJ0mFIB1tUt8oVQSOJDiq2RrZkO76j5m+iIKC5qOLmteqT6egA2UK0TsPAgqIuob0KtyHzAnq1HXSmuhBJ8AKyEgwz/TgEqsyCKIsFBq+BEVNEJpfORaMFJdJZ6tmwL9Wze3tXZsxUWvW5gEcG60Gjl0kG1JXJK7R2YUR0At6Rt89KqgapXwcY1I4tW99lLUszkOSS60a64uv9171TPvRBXuSwqBOQuIf3xlCrnpsDDjyEj0wQE1xTuzgDepNrU2nAqGc/JHUJT9Dl83ArRTPHnhkckQTsf6THciHSxUi5Fpg5/3eq+9TUrNVWL9mTNgQ0wQTw0Udkmb3UFOlmp0ejtsFKKolFfyIPzurlcqx8weh/VPJ+nxyZlZjWAIMDE5DAzqKqVB8Wzo73JUE/PYcfpGe7q6Tqxbcvg4YHt+x7vGth5uaN7E4oRRfbly5UPZnLuDyRTBbjBlmD5g6474wDYluruR81GUGoEXKFtGXmviFPktaWZRrvt8cViQGG4GjcJBkfSSNQtdR/DUB9GoJO2iruhIUI1MJyl3JgqZccQ9jaJ52URlVPAd3gXVKMIigYvngXtRh4TlcROA9+QCkrkScId5i30xonUdlFszHuBhIVVo5jqH1TjxPUrZC9BpDpSbDD2UUrxrMax9sAuuxh5AheTa5yhJDG7B0ROiUmQWE8dvE3PS+DI4dJXiDxO/woOq3muFCslpcRoI3IYKihs9whgtbIF1Yl6haHezV+0Nm1/OLrrhmc27bv1ULBvCxTsiUopZXemspWebDn6+txZ9cF8xr0rg/sK8Oumd6BeKHrrJ985M+OqqbSt+uBa70iBU+rhAU6wNlr41BoWTaoNC8EcUqCCOaHuEByh9h0dQ81EBEjaAWhanChO3IMN3WLJdwkEhpAKDUwY1R8yI0MojTuMDFRn8GyclRT6idzh5U3IBxgHPWccozEYCTVnO7QrwXIOKXkiETS1IAn/3FQF/BqwA9iKVzXQdM2BrftujCN6tvVYL7DNVSEsbCmRVQ95L2mi1vCS+gMApMagzsm8o6aRbyzcu+2J+JaBR3r6Nz1x4y23fu6eH/m31WL2J7/4Qu+FJy6/4cKV02+bmsk+kMxnNyf6epB6OAYsQuAjxQKJZSpjY8aRN9EjcSafUGcvW6pjt6USIWSBAmujzS4kWGQZ/KpLth1/Z6UuJLtnpckiUlCcm4iry1NaWLMr1LToezTtN45htDDiyZFQVBVDWKBhSqAJrOPteNRNAD0qPYNtQflePAPsFRNc0hwvy8o4clWfujR4S+QPtzvfdPl5Em+56EXPIk7FEKyPHAAd0bwKxzoBttdT/0ZmeMWGgzD/37QIpnkO0mz6lVCIySbB9wJYg9vu+Oeu3Xf96cBt933xxe98V11Q08FHjnQfeeTcLz729wd/Lj6quvikDnj2Wag/nuiG4IgEmFIqSCw24vxaZZG8HaJibVJDowUVD02om3ag1B1rl4OyS3FSWcM1ecIrPVehQIilwVzWY9NFdeyCpZJuL6yKBQE2M3lX+XMBi1n73NWw8xQRlGG7CQix3SjXsRcARwFWJ4N0b49j838CrEwewKZrsI6EZzUDPUZLZ0m8FBE1WuLNWf1EaapN6YE7cTGExKNMnDOzCpiWV6w5sCEsBnUYGH0iOPhaFaapgV77jTfMGpXWjkgQoUBNyWoEMKpBpDfL5uBbgYKele7NX9l5/+2f2HvbnZ9+xQ9/AIP79Tnje+hTR3d+668f/ZtcMveyCGo8OvDTZs1HKkeoF8mz4D34VeJBmmdK0Hkos6mLB69D/U4ZK+nM5U6VRl2hbSi2sBl5rpSVwk0I1DZ8LqmeJbxFFNbKfpXMIV3vuKUuDJfhO81IHy4aqckrI6ArPXiI1pRbNOSQDVAQBn2mbzRdRLkGdMWBUOBWjMNm8OPHVTpzCglxRlR3txRRlyrFUuSUC844cvmj/z2mzj9QnCe2mwnf9fTMFvDNnBjTugY2KyHnnEI+S0eokQ0DbEZYeOD1kuDUJlOjuqHkLZNshp9mamOudhj9giQ0I2PTpc6erqdf+soH//1rfvV/fk3901Pzjunn/+TLL33i00//fcyNbQmRokHdloGxRW/bpDk6UY/E4VaXmudhqEEm9kVaKsXW6IDl2awyoNwzM1NqJJFRiQ7UYg+B3YAlRzQKuJ7ZTItFS01mAmpkOqDGkgmwM124G9SWrIMMjTbza0qpqaPHJnNsWK7PZioFyaMNYJNAyNCwLdvBMuxCirWY2rvnxq8VCyfHn/j2vzzY2xnpZawnF6Ik7qlK6T4S0lDVqiejBmxzbx2v7s2Wbi9lJ8oDpVUONlhzio0pmGsvX2BZN0pTIH4LFBYxyZcnJpPOpu2fevG73vE7b/o3v/aC+vwLCxKJh/7ikZc9/ZXn/rEz2NNboslcqCMdDln2WmtmqAIMID6QpnXdXE1F60iorMCCvpfCFRcIwDaD2kLpMVD+EewmrNLlL+wknm9klVjSGkYe6sUrOb1I5J/2+SZvLMvIEycM6IRqk9rKO42+xWiTuMgq0Mpw97NVD9QRm0tv/5PfesfBL/xd4PGvf+EdR5546Jf7AqXbOzugOZEMW9wtG5KQ6vh5TIdXt5Lj7U/xoi+s31+FHUQyfGT8WtXqYesB2A1Hs6bB0wOlNQmaSkqSAKNd4ATmyo4am0nPROKJb7/hR378F172079+WP0j+MtFjkf//vHtj33isU8Pxrf2ppEtCuoSzT5LGjSpKCMUhzp10at7u4Q3d4ImD21anSaTT2op7CsXWwy+JUi5yXzdoKtWVTlAI4+u4KVVlgQWtGHgt8V91uwCuhCp6b1Ij7Xh0ny91gBpommopGFgLCTeph49HOlVl64kX/9n/+Gvf/T2N77j47jwb3h+6lfe855nvv3IzzsV966uKHKeSOypV1DKGF64E3oLmWPDd8gYaeG2bvvwLQHNYhvNlRjdSquaW2RJ1HIxoCzz73OALfMnDkga0DrbheajudEi1Ij+B8jziOYzIGCm8qU73vyeV374i4dfL6Bu8nj8U4//30QkNlBwEW0i1hEKhLTg8QEEqq5ZQwNIBSnoBDwm6EEkfrImVaBp1R1bKmmEGVOIU0fagNqDtbErafQLCeHlxDuhJAhY4I/xNweglnoI8jyCnj2tWWRlsXAnkEVeY8+01oenF7bGsZOGSlOL4PdZYS0CFm306ZEPP/YXT97gDc9bf/NjH/vPXzt59+Cdr3nL8Ez5aXEPkEXJzrG2vOGjMQgR2P0Z00R/lRDLZ8uuVLMz+oecyftlt5OWMjACs8jVvYrHegB2wzbooheay+VBlRfBhPQ3Eg/pItJlaKZ0aODm+3/mdx85+oZ3/vJvPLuUcfvUr//T++OV+Es5UQSH6Hm9jFT6hXox6bfLBM3D7fte64ed+VlWAKkxo8d5UqfsP833NT9A/TyCylBrnyxW44DMotd7WNWNysgAXku1jMAvidWdvTv2PvrFb//h7HH66d//yGf/2zdP3BPbfdu/Hc4Hns9aFJKREIeLhrV08Ah6WnJ8BMz0gTG7R3WnqD5Uj5ufYgtBcle3ssF6AHYDVoSDQ2HIJNIRNRk1HpDIyzlI9Lgluv23Xv0jv3DvO//4k3+yFEDz2ie/9Fz0wukLv8qyGtocaaiKAdJSn7eW19fJHEZL4e0iwoObHYBgKyGPYTgQeuM//Nanv79Rm3/8Lz77B7/x1WN3Vnr2vq9Ssq6E4fcSgCBdxkIsgUWSgGIuEgF2Y2rN51bN6VVSgOJRxdWNVF8PwG7YBm0EhvhkvOyoKaB/Xzq87VhizwOve92v/fWv3PW2n0BJoqUfRx899v5gObiziIkWZqfKO9evsaoYZLbdpb/p2t9RJ+/5eW0DKs9Iwl2Dmr04NCSnnzvzKwu17Jf/6vN/efvr3nZPsmPHJ4vBnoxbhlEKaKWcIdoWsoCz3uV/ns+2KtSbRKrstoEtGxkLFbnUEojQxWKYcPyJxx/tve3NL7nnvb/11eVC5sI3r1j5ocL7I7DwMTGj56FmvBrqHyuSIMOgYGmEXnh+GrXc1lz9fcyU5W392vFfa094CANVlQXofgu2Aox3j9V975d+/8sNqbbXotd+4L9c+sCnnnzH5gMvfZNld36b+nJaRrkDMLZzPv2JgNq/8wkfReExt6pxj+uBYjeYXTiDwjoWgkCHhAgqVwnnitvu/53dr3zXK+9+y09OXQ0czrxw5rXBbOg2B9oJrxaMpjB+kexq3rC691KnLFZNkTmre4xuhPDhnjBJPhwAQ7mQDviPXHjhwk8109J3/9c/fejn//mpB4q7bv+NMadjhNbLIPP8eS9oOHt+doQqFAZkFFe1ZMd6APas2dCakCC1FC6SvVQK7tYb7vj5B372L//d4APvJtN9VcflM5ffHciC+tI9Q4wTnubV71V8Va9Y1ZuDMPOzlo2Opaw/akuVCDciJrocpOYtab3+qc98Z3+zjf25j/zTr9306u95W3dXzxHGos55me9BWqdOcJv3Ul+vTeqrdqw5sCtBJ49wXrHuUW0F509Q6ZyaweDnOvd/YeCBd99583v++5+vxIh858vPDUxMTr0p52QRS0Czs86yqjUQhm7TbGz01kGWtYY6kVUIyqi9zgmTrd1QQkMU9SQu0kDvmkafC93qbfkN9C3yTnF1ZTo4JJXXunajzUEjmetER/WT5dLqSObpzsK1lX879+z59yxlXN/6S7/98H3/+t/eGr/jwTdn43v+ZqYUnmZqCBqwwjABiT8KHhgognXjoIn7FwcPwiatTKt4rLmBBiFUrq49wwkhzIoqB7+M7j13/aebXvqWX0vc+rrFMNP0cA29MPzuTCq72YEhpiGTKCZgbYjhLASoCEZMY5ELDxW9RG89+22i69WLY7GjUUeEg1jk9oUeXWQKZsgKUsqOBhsBskcxvTt1lD8PKWLtIDwBi3bmYurt+OpDi7Xb//e9D76dzf0cz9Of+e2XzZx99j+mRs+/tgJgg0jJ2AXQCA4dA6Opj6c2Cwz+xuKxAaAYKQ19NOxSQU1Zg8/0vOhd33vPT/zxh1cS1JyczPnptwZp+Ztf8qnntElkaAJnVtGGmUU1KjUfuxR4rNy1dNG1UXKD/ua1FD1zn+9vHn92KJjn1d7H/vLR1y63NXvf8u8euesDn3hw86t+bFdp50t/dryc+HoednbLmQYrmYSrMHxj6OyFNBFIZbyq2aDWnGLD8BKmZ1we21eoa8vDd774rT+27ZU/dHq5gz3ffY9/8olXHfnHIy+P2aiaW3dRDeXykw8B3L1pjGBJDQKn0eGxCKuKa0Pi+RFAskkHvtjcVfxtaNha8yU/mBXEhgPWmeNn34dfv3Y1473vu993Hvf/8dST//Dnl1545P1DR7/1b5xy4UAoyMBmCreSjmJjATtkR5OZXCgd3//A7939k//9w0p9+mrGeN57Lx2/+F6wliqEmot5SSTsHfUQ8H7zGCMxbLNOJFWDsw55BtmTVUK14NnsEB77k2ONRuTqc0C1y9B4+KNXFmL8yR5Qm5Kbyr3h2S8/23/Xd9+FqISrO7rv/UEK9zSY/cmzn/6DBy8fe/7B9OSxt262CzcGKqubDWpVGfpGw1Zw4me23f6aX9KgvjbH0UeOd4xeGH0wBH8JSYewwOH/q8SV03MQoBEh7No0r6mnzn63x5tLyADdYKWcXo1qewugkdCp79W+N/lkoef8cxd+uKlGLOGiu37g57/6xg995IP3vOHdP6IGDnxtvOAcXMLtV33pmrMiD/zoB/7pqnuxyAOGj42+LDWZGYwx2lysZ02+kRZHFhDCdu+KgOaPrzTP4ON8rEGTT16xyygsMrsqKXYRQrcXnD5fF0UtSCctOjlBMxSAZ2TmfJ589u+vWKN8D+p/zc88hl8fvBbPXuiZaw7s1ehwfHPH88GO0MlSSu2zEC0gdK1qzKiHgDbUaPpI0NhSxk678fsPXiF4NpeL1m2eznibxHwUfyHhU/PDUM7gfzxnsz38XdqHk7KDaCBM22tqSR2soBtMpy9cw+Sb0Pjkoc0Y2BT59mrMw2q+o1natZptuibv+tqf/b/3XP7q8EeLiCNUQYRFQe8r2gExSdeGQXyiDPDh9qMi3ahJ04/kkhFmafLxuB7wGSIGgJSh73a8oo2NFsECI70QsBmcTgO2GwuqHFRHFvTGHv8oLrX4e4R+3tMZNT50BdolAFfjVnTuPD23VgkMQHGpCsLIAuCtQjCTO7vtz9/9Q/e8+ea799fL1NdkFlbvoRsG2BzSL//O137j1HNn/0O4EoO2g4l54COtveUx+zoBjOT4IE0DRUcwu4r0dCqnJ6GKSAbvudxX+Vv+gNQQxUxOFSZTMOY0xoZH3eebVo8PbvR3RrfQbB7ehCpfCVRUMGDltR6woRdRgbyrpoeGVSDH4AKPuusn0/PG8yFhlQMm1ynBCBbuch9/2dte+vp9rzkwvXqQW503bShgc0g//3vf+MjwMzPvLblw9meECX2FxYOQQa40sesQMO7cpQiizHsRg9gZUwgEr7pqesCW9L2ggsUULJnIYR3Ozk/0FpJZF9KqcNeohB0VHexT5c6IpDnzrpeS2gQ6U0Hg1dnLYyo4SauiBjYDFWjwE8d/tNXB4nWYMQp/jGx3Dt3y5p2vv/M1915aHait7lvWXCuyut1V6k2/8Kr33XJ35lw4NgKPsxmTJpiUkFYzvc61qg//B6WswOIoVQ7qGBbTalrVCBzPP9mLKmn0aei9R/frPhe6T1ZRLZiAb/aALW0ymhCYAVCeA2wGL2cpP7YNP9PdNEBmpYKkO/SpVsOqd9vw2Bvesv/7WxXUHKMNITz6F09l7PlI8uBjpVisS509YanxKwi0LZCewdsbZM9z3JdQrDDCwagfNhv6nEXoaRgkd7UXbdN4qS6oZVxQj6hDsPSCE4bZJ95qRkMoN84AgM183WXotqU+JQVkOCyVYW1lXcs4Ui9s392rtt+QutK9J3PVeuvVJkpLed+GA3ZhYuwlAVW4Yc8Njhrot9TIlRk1MZpXYyMoVoSkkrlSN4ssIB8H0/syu5KOEDe6lLnYNt+sBk8n1JjigNcKsiEeBQfzbbN0NtI7IPuExLdXAtMqmiiqrk4bfQ2pnTviqq+PWh7rtsLYlbfh1v+9FLBcT9duOGBnpid/LiJxfDMq0esiw1NI7bkxhlovPZevDMcnT53tuIUJa2gKdpEYMi+IXSDEwMfzXquJn/12D9jCzhgduuT2BusUgkxg5ZAlFsBOdJbV3huCanBzAbUsZ5CrZFIywIbsDlQdm/pAbuj430S23bRqaceu1fg0eu6GArZ76luvSF08+SbJwATHHMnIwUoBoHS9m0OdxVDP+QvpTpVPQahkGjBoQnQiBE0qvayuVTAJ5L0wX+rXfEO8CGtSxx4tRO5FC0IAk1Sb09zsxYHzV76a/l2VBNgR1KNk8aVoPKc29SJBZoeRJqENYoORDRDsVfaW4tipD+C231pNwK3WuzaU8GhNDv2OU8xFdSIyFvZkQVJdsTZvu7lQT/yFHATBIvjqQoiR8J5OW1PtOj7Axxf7/bN9XMKKzKEE5MquoMXXWqSP4bv1qpN30exfAKkqYKEWEL6Vh0sriodC981CUBQmsaAhRDLDFPLpKTs18r7KyAtMFtlyx4YBdmXoYHchNXk7U/tKgmEWKqIaDPlJqOUtxjb9kdO55WPIZ1egloOUfDX45iUjyvDY3rrydOS1BAwa+lwMCK7LlAOdV5iD0EL1Mt0hvccEyLpkU3vL46OvXnIbroMbNgywczMTL7bdQpSpf73pJV/KvBnQh5xyurb+WSGYOF50KzmLlbnmcVOdPadrDf6qQOnpI+ULA+5Q4qIT3/TncGlEJvia9oTApj48xGSbyUkGG7TcsWGAjQl8E5K2YGtm4kZs6RJqov2ZVTD8fPe++y/lVCRTQDUnqvxYzGlBLRxpn8+k6CXU9D5XCyme+dxv3ZQoFizOQsUZcSM9X68EYp9m7nzhZqTysMkqxQWQT7+6cO7gqhc/utbjsyGAXbn4bKKcnXkTE2uU4UvhMk+04ZlZa9yJdhzjQOcY7cCKSdfJUZUnvS3ILDYvvC2LApEFJ3w6HOv5OD1KJLeWuA1oi2WBJQdL2b0qdeX7rpMuN93MjQHsyQu/YBczNwqomXBXqn1pH5EcJK54z4B4t6H0BtQGkK6uo8Ov266yRYadzrklG5rLGad78yOIwBthDj0taLI8HwqxskgqMqFaySvvv4663FRTNwSwVXLsPQieEiol+l4kioS9UVw581bsst2z7RscLXj8xcFKSDaYpfPOS7+jqRkyDJEEEld5n5rIKNn5RCVY8zzUYTYsAFsOll3LtXbelCsFEw+zVw40JV44Aqt/IdMq9N4zd2JXW9VsqM31fflXtTywK0PPbLcyk7uDMqH0nSirICYTHKg42wfiAx+3+m6a1sB247qqQs2M3ezQ1qUaa/amJq+r1loXAdFDsE4X4aU4Fl03/7EhQHnFEQDHpKu8LTHwcUaxcxy0JwyUnExmz5qRxXRPJT1zoMnmXBeXtTywc+nkLczoy4gAcRgSp6FaauJIZ8+XvJlCGb64TrZ4rajv6mFCBN9KJVYu6rzUwa6ex5mAW+cdMTm35SKduzCfSTWdPGf1erH8N7U8sAuZ1IukIgBTKRiVmA4m0MldwomeZ7zhK7ulqnZgsez+yx/y1bsTZQUT5ZKuihvYc9sodJgjXnIyz17KEidc7MV85pWr17Jr/6aWB3Ypl7q/DL8PTp4ckg2HgazcsoPDwe23ChvCo1Rwe2uJHRdT9s2dnPW2GNDNDjdX7PZaaoVip6SKL7gTzxHXMDSqUsi+7NrDbfXe0NLAroweDqJk1p1MKqPpMw/No5KKB8MdJ/xDXSy43fSvXkgXfT0xKYAvWGq3moEpEIs/W4YLgecaQEOULveBXrmFfeUTj9y1etC7tm9qaWCr9PR98JPYI2wIzeSSQJ6Z+ZGIHD8H411VNoTDXCi4cWO4a2icuZ5AbbYnVHumg4g+gvHufykyPpJyBgqm6mVuKhi7pRh0/d99beG2ek9vbWBnZ94GM7rHg1SFQopO1GeraGc9sIvFqC7XMYsNkSdoFVuV7tNwac5rOV1iLMTp228WtYhW24Mywih5V9PLxzqfLllBFpwUjYiYarDgJV8kgZ5Lvepa9mU1n93SwC6nxh5k/jgmO6d2S4dLib8cDBRQFiR6vuUfbESeRG04URD29QfZF68ejgY9/0/vPy8JJL8TjYO8S8dM+k8v4Ewn3vSfXpbX+uu9e6UgK5qjo819ZxMokTDeQgUlVPVhbb1jvGQHTzA4mEnvdbQQdzMUO2Vy+1ymWnipicev60taGtiY1X4aILQ/s5kHARzz8YVzKhipC4+CViSsjRfe6c1dg++0q0kts6kHnobTXZ9a3ihnjJLGLAICr9HpAXoZMJJyqqVKn/9WKxg+ykpmbH3tn4kPAjuyjNesy1taFtiV6fMWawv6yygL1eJJJyAnNGr13jThn5VSyQ0vpAupg7fvwgXjGb13amXMkk8+mx4skmrZ7ALN8iIUDuHT1e/vox0KHyqZCmDiLlNdTKxJiVrbLXK0TEfmzEepZMOKaKp+m9kjMDCZDLy1QpEjs+8BCIIWtQbCS3MJNOC1+QzzOAJVLsE27iJjVB6WIJ13XV9UVf+Ze+bDDIMI5jMKsYC1xZwmQPXsfHyLYhDARs303nqKHXmSFDvA55kIdwE3QU53ghY5WhbYcDsNlNySAFsDTIOHRTjpkuqEY3OSJObhBBV0oESYJz2IBwDRGBLPfCJ+cJA7L9jZISnDQPYEGvU6bc2KLAfYkpCMFQvAE1NWWKgM3eznC8V2y13+751I7HQR7FkAqd6kFqtZpPITgJ0780wwsudullO7ro+WBbaelbmU0CvCCYHp/OyZc0tIJMbgA6HsjZV7RtzS6nDzABvLJ9oZl6gbXbBJA9Cvy1gM2LVrZ7dKbwvUYQg7siS4QUhGvHIdsEORyZJlob42amGbMeKHlnvLDnKSkGq3gb2kcV6Li2dxFFVgO87F2c0Bj41US/NDR0zxhvDWCXpUmQFyJbFo6gvkKeZiUasZP+hGQ9AoZtK7rvYeHfu4cPaS2tOl21hcrlvprAd2eAZfZ+ggJeySoNo8t4wQ5nK5JYhdywqPQoJgN69aET3eVzZfePhFYnOAjby6YszQxNpjHXzQ8mWKqm3hHmzIAzOOUhdnEnue1BQ334FDQeD7nBOZfE1Ktdr13n38hCVFk1OzYJqhDZ5mR9R9JbcO2MHttyMVZWCMuVN0ph1NrvUapLqIOdCu/6MlOtFoGmRn1XWr5dCUVJNv/hQIhqbn3udEqoCt6gfnUvDZWhDtVOVR6WsHimaptSxOwz2DYjcokeGkIBB4LZYGGynEbjLU89p1coWe3LoUu2YRqRsqjxr7QV+9oFxJLI2HXaFZuGaPIStSnhMRBP5/tgXqmrVgrR7cysDmJrtQwdM6NcXzD12MgL9c1QJA137S6ROC2tqzj/mBPb/q5to3dkXf0LLADg3uR1ifBY0fQqRE0+ET7Jgh1UvrZIaTlA2CJWMehV1phYOhX+iJc+jRk3UbEX4Rii2qQylXp9WWtmOh7CZyK7fA0bLA5tzAtxqCUnNALZWKHZhobNs+PV4LTDCsiQ51+rO60nDlYrxK8CPJt0C367LNtUJ/6voQCATS4vLEBDjVOMYq8aqjYoVCIaGB3UoH9N9uySmWirMtio1FCcfJ2TvvbgN73UMgEH1BR4xoKmxy5HATJmtSR8UQyJvAAmgt2ZEThHIN0IzU9RWmHmSulD/KFNIrkTlHUPcvue7ntMkGtjQr4kR7vo6ix1XDhpSwoNUb+jnXLdbV9s5ms/2svtVKB3cpB3m+kduqjmKjOnynpGeg6lNKlaDYlNTV62iZsh0tDWwr1v0wfO0n/TpmEmURJGdpC4rFcjc9SZZqtF7XC0FsUZaD+o91mhEAGZFCNTZb4vZZPS3a+ei67s8SGtfSwFYd3QcrTuicTjYjm672aCOw3XIdxS4Uyluuo+xmzU2x5ChUdqFYiHg3lK+cDMMgy1MbZcRKSmCDqMe6Ptfcg9f/VS0NbGvLrYhdjZz0TNSc5aqBppDd6Z+eUt4ddCRtX+uw2diVxAO3VChVgV0pZiNwk4Vqk76JjALVye2RnfOUinStalnoa7k8WhrYHLhAJH5YAG18LnQVA9CoQm5PHbAL5T6HySpbQ4UtXZNQOGxRAHZV21NIz2yzLAf5UxDUq8ObWTQPmSgi37Z23lIXeHEtgXetn93ywI4mup7xh3sxYr3CoqXF3B3+wS2X3B4JHGipA4BF55E9ucpjlwrJVzo2nLFNgWzJCcW0b5HY11qp6y0PbCsWP+knw0jNhwPRLsmJN2YPPfyWKu9ZKm/y6jy2zATr5EAOFm0X++ReODiYmRr+KS1u1Me+B8PhOf7p1/M4tDywVS692/PG0+KSntCIygYLE6d+Ozf09IHJ88OJYj6/v1al/HqeUl/bKTTbZdt2s3eOPXdoT/rC0b+Ml2buQIUdya3ieToyoZDr5gZbpNfSjZYH9vSVi29nEIAQauO6SoAHUFo66KZuzA6f/tvy9Mj3gRXtg9JXQN8qh652gFTJyekfnrhw7n8Fssk3RpEP2xHfMB3CJpmgQL1npsbe2ir9bnlgV048fnslN/MGSUopsj9mWpzqjaUNI+DMTN41cfbU/ylDj1tkaFfr4Fqcv6TcX9m+JViy77dhcFSM/PIFTHDRs8KDVcy9Jvv8F1/bKuBuaYpdnhn54UA5v8lL4+VVMdBu+NRnOyrsxNTli8NCv4qQslrrYOwlrK3gOnK5Ur+o/0wAgrcxaaqOHaxS7FKp0R9ulf63NLBtN/NyXcUR3aQqD9oQakWY0oDaP5YcTxUjE1NZanNRRSvYYsNBNSf6XwB6p/OlNH4CL502/o4cC+P7KDqSkoq4ufvawL4eRqBS7vHSvIulQk64RdHXyYmqRP/u/51z+j44UwyNy3cl1qxtHZ2f5ApBj4pgQYpW55djA7s+pUJQkNDKKNIEVrcBt/S7Up4blHA9zHODNrYYiZrTw7RsvsI3M8iWNeFQewYJGEGfxqy9d/9mZPNNn0y6kSd0UVOyIq0EbETPo/PFcgQR9L3H1J77/l0p2O8WSibYWGLrjRDJPQsqlOsUx3Oa3dLALoe7vpi36N2nk1EqeG868PYDR6kq+Zl+NX2lp+/A1umiG0JFreYCEq6viYcwjGwKTPCEFMndavJSOF+YdFzJdMki1MxpCPtjmWl5cAZCk9dX/+ZvbUsD2+oc/NuCHR7RdQ/RVQiLrEeLACiY4pAzZvT0rwx958KOcinYKTRMdLstdLBmOkBtI7PszMzMq6aHjv6qbU0rFxllS6zyIOwIK4dxXGBi70h8vVV639LAtve+6JAVij7N0neIeoJai5XCSpLey4EgmU+l3nrlzLkfj1jWnQHy2NWUCy0yvSx1B1HZRprgTK54IJXKPeA4IRV0QK2Zig0LnjngHIyL64SvqMSOj7ZIz1vfQBPsSHyTfLVlY5IDZVDlAgAMfhozWgavmZ2e+Vlod/cip2RLCY4aoGSZ0W/osl0k884XKr02km4GyIZA9UeKTbcZhIaicG/Ho9ae+463gX2djEC0b8unEXqtgGHhKxV+Ro46ZUViKgc31XQm3xcARdP5+lprA9N+6OCe8clo/ZmMGwpEerSzKjsMS2sRkTNISoukmgN/dJ1MaVPNbK2ZbNDl0K4XHbU7eo7kMIEWgExLXBGTXAnHVDnSobIFsCksQc3QqJbbwLRALP7WoNDQBI1YwU64z+RUgBUMQiGU3AblDsYvRHo2PdQUYq6Ti1oe2JwHa/DA23N257NgsjGhQeVCE5AECY9t2vqJNCkWgF2GxoTO96106Io5tCqiAjF46mCk6+lMKXCmVICfjOQTsVW67AxX+rf/prXllpaSnFsrenUeVDo7X3Iof+Y73x8qpr9H9Q+cjVy48Lopy7oS7dz8hbI98m6quuTQ/IhQuZY4TFckQSZ+zpaCJ6zYwB+E+4vvtPdse8zOFwJd6cKx8P5X1tXiaYW+bwhgc6LCe+47h48/NpP2eX5OXBjtT2dKKoZRkKSjxtjcChOrF6ow2RAfEYkO2WIiXRlN3Ho3WY6WYjsazVdr7b1LRGQ2b7vkrRE+1ULOqvWDoIk2BUVbpUCylzhE1+3lGxrYqVR2s2Y6tJDlJW2/bmdzVsM9D1z6gXDxJmfSe1qlb4v1Y0MDO53K7vCKeSyltstig7qe/u7Fe3LRZjL53eupbdeyLRuGx240iDOgYA511yI0QocgGc5aRHCs7kRezxFc4aod1xJM6+nZG51iD+qCSFp0nKee0nqaryW2xQRUyF2ipx849PiV7iU+5Lq8fEMDO5XMSAArA8U8Pvu6nMV5Gq0lB63L1ofdlUymelqpj/P1ZUMDu5jKbXeM3tqfGL7lJp5sFjoVVuFAdjK7peX616BDGxrY5by7PcBkjKRsS6jKdb0CIwjf9FwyvyE0Ixsa2Eivi0BfD9StJDSapcewL3HF1X1zYKRJJpO7r9eFuZR2b1hgn31+LOSWKr0iN7aUJqQ2/RrOkgVbAxu7UyaT3RAUe8Oq+9Lp7FbYmaPi2kkRS4eTtNihg3U1r0XruqXyucK+Futkw+5sWIqdSWf3IOtobdJbdra5JekYXao2C4XS1pbtqq9jG5ZiT88k73WYhsBjrReoxHvdAsHHX2s9Pfz8ypW+67Y/S2j4hqXY2UzpxZYd1m74kltDUzZiQZ86gtt/irfcvOcio77AvRIp7nuXzhfh1z/Xnr1Q+3RbvfZ7AcwI0mVQr0SkVxDvGOh+6MvPoJ5lax8blmLn8pVbFOL/XBQZkkK1OG16+kmwgc7I6teTePXSF9adzPPXKlAbg4nZEAhIwT4v4af5vcor+aBeizmuCQWeM5f+RmtCEF4gfbEQOyOOUDjDTtDKpkus5nC0laG9YYEdnRjfGs6GVcopqzxGwUVaBhcRJUUmaCSICDax2+kkljqjlHfU4OMJnAJOEn0PnOZSDdSayk3jrl5KZVSaeKmYr+Vq388G6zXI+qLpSY2ldfJerd7TOxCAjb7oIApE5ZNao32IyFdqJrm5DewWXNa55470Pf+pZ7pCqAp3FlNfcMKg3FFVAhDKEq3OqodIhYZwKoZVebla54DSh0/+iHQdhlaazzr8+pIsibWz9kf5yyyNzHw7A9MC13TToMZIdoMSDQJkJsIp4fSuYRZVUm1WQwuiLzFkvY/yRVPTLe8MtSEpdno6mejPZ1RfFtEzIVdlCox5DKtSIKQyAHaRlBsUjmmFSzyBu6JEoiCNgfDkXsSNzj8tdW3wnQ5YMJCsAyq/NxoYWR31KNa7Q40V8ViSKmviv8NvIcV9TLHJM4jvowhSDiGXSMCcIXzH30NYnCHXVbECYI5cE1PJ7I0tSK/qurQhgd3RET+nSrnpzmy6KwFfzhwzQBUBLUStpwDkNM4sA11DEZUJhFUarq0ZUD9di5mJ0o3ZA4gksPUJ/hz3eP7P/KkWl0Owa7690SEp2Ay196oH+8FtYmAMR4MLEXGu2SV+alB3ALxxgDdeKqgI0sh24Ls4WhzKp5BFFb/L9ehD1lWdvd2pVgd245Fu9V6jf1Of+NJrk08f+U/FfOEGKxoq9+3dPZK6MH5H1wQDX0GxQWALyBiVBynOAzxIKQNkINEMAI5gd5zY9vkpvCwFNfDoPAXk+B5I5XUaqPT5nr9aAsEpAbdCgT2thnE0xaJDwghhc5gyMgDEB/Azf9eRMWCZcGMYd4bAbti5vPDRpNbTgbxy+qJIjxwYHRseLoYqTt7tjH5+72/8zM+1+hRvWGB7E1v50tMd1utflObvox/74jvK3zj2113hcLCEjFFM/m+FwESUSsqRqkyU8sB9E7QknMKJayAXrbAqWBEAGtmI8XsJn/IzTqlTjhx6WuXm03yYRlRQNsQiQPEKOQlc0dAwbzVLa+TAIwPQEACCALYDii0io8l/LZmtkBXHCYfR3qiaHhvHM8pqelPsS9ve+IofsV52+0irA3l2/zY8sGcPSPKvvrZ/5NLF7wpFg7ntdx54anp64vb0I0f/oXuyqIpIkeaS8PIs2irqolwimQGoCgsEOyi8lLTGvyD+lUFBs0WwAxFkfGXCHqwGgpL5PJDMuMrSOCDFTG0s6kawQWRrpHIuhMKilcVz0+CRwyqKYsIlALZYLio7gnfmMhAIURYdCesnnAm163WvfqP1vS/9Ivs08/lv2Z1vemnLpAVe6sJsA7uJEcv81Wf/S+jk5Q9Ol7MqPtClQoN9avTgaWVNAbxFsAoRB0VtwYsXk6qcIc8bAHUFhQUF7bj9lszF556PdYG/JQvBVGNOjIIqqHgmr8IAcBkUN+8i6XwYCdqRzIZsBZNm5sD/B3qg0Rhw1OTQtLIzAWRJtVTX5l4V39OnkpeGVGkMOwKuDe6Mfrzr/T/2nia6syEu2ZDC41Jn1t5becHuLKq4E0HOP2hLAqMq8ZIOlbyQUW6xqELxiIoCgLnJksqdzahyOqAmCim145ZbH1FvftHbnJ7SXVeePPqzLhLUOFs7H9/3igf+JFvKBC986du/0zWWefNkJZ+JbO//h91v+54PXXn0kV/KP3fyV0Kg6aVeR0Vv7FXBLWHVOdih8pNZFQwhz14vqHZkVEV6sLCyoPbg/a1E7Kml9quVr28Du4nZLYQLu+1EFtQyrMoOWABQ11AirLpvSkiCR5QIVaVSFiX2SqobZTFC+TDqSAZU5Kbe/2X1dV7BK8geCIsw63hX5Z8f39oXrKSDb3jJtPoPSk1+88t/GkgPvS/uuIMzIVDyjrzKQniM9AVUVzf0HGRFnByyxYK/J0UPg10Bi1N2Ct1NdGXDXNIGdhNTHbBCNwRp4QN7QZ12GJEoFnP+VYrQZ0AYJO8MYdOu5JQbzasiwJYtQf8dEl3Kgof15hdf8l9gxcrJZOJylxOCLqQSER4+aHdKhA8zOtlIfMOoY5QlwDu1ClEqCpet/Yu9ayP9vQ3s5mYbHnEUR5h+l6e+SVsA5Sc5dY68IgyB5JvBZ4cDS66vVwnawGspqpDPW5fQoC+L5zuiQS3/xNVav5/GHysQ6GyuKxvjqjawm5hnrxYiTY41CyJ110SXh23olJlMHV+JGxVvCoZRD2SJhxMMOBA+g1AvsnRIUQo+cV+g5ZJqQ/08C3+jYYdtYvL2SiA4tcQ3tfTlbWA3M712cEIDa5YSyZeIhLVcxG+DGmaq65iIJxiabubx/musQCQrz5IyG9gBoDKkmlDACyB7ewRVgjy03zHuCIROL/VdrXz9hvXHXsqkwm/7Ai2O9cBmInnhDPRJak4PKgAbphawI6AZgeDMUt7Da7v3P5CEonuKEBZWQ4CNPwhx9rwEjXVTFpAY11md4MRS39XK17eB3cTsOo49ulh6Bg05bVaknwgLGoGMikVz6YeVFHqsK5AamtzgKQB67RJ7cunvad072sBuYm5hKUz52YDGt3gCpFRPZFkQVnNaFrABVs2bC+uh/83nQCXIF/w74010ZcNc0gZ2E1MdDAbTrLK10EHzuQu9MsFYhm8JfoWyO7pkHpvvCAaCxerbhBuZzzKuvftct4QyHNEN5w+y0Hy0gd0EsMFXaI/VOmzXA50UnQ5RchH5YjuQQV0Xfd8SD/iboCClL2hhwTXFC1FY2g4uXQOzxHZdT5e3gd3cbM3SR89Fmgh2PuEusAyNiK8pVIkYFsR8SwF1Vlu12ChtwVZho4Bl+/BGoK3uaw4LeVGvUVgzOTrqoa2FvFoNG2opHLgnLe+AViWtA9I0lHXJbE/V53uz5PWmtsQquLbT8sEDSxnNNsVuZrQikWEVjmp3bC9FgwDOqPmg6hMenH7ScDulW6odilxs5tGNrgnFey4WJfgSKkayNUVEmRsQS3J6nAxDk1A0CVmz0tF9dy9uv19ug67D+9oUu5lJs+wUeQNNBTxdsg788uhnFeTGGmkFA5ebeXSjaxBdnqU+vFpGpJq/exabj5vLpOZ2mw2ZPY5tit0M+uzAjK7ca47Z6RRIvQl8QblOvoNa7bBWLu8AVCEN+u/1FtPc51FjguCElio+urxRq7+rDexmRtEOTFczQPmur6nk6CPCqmPEtQSLgYsILFtLYTlOiZFoOie9fksN5zWRUYOf0TbiUNI+fCPQBnYTcLA2HSgggSV8ODRfLfgVoc3cDFCLrlkEPJ0qrWLbuSYe3fCSUDiSI7K9dA56gzDLSD6MHd9A3i1Xlr2IltvG9X5fG9hNzlAgEATfO1vhVru5apkk8JlOIbB8ih0MhbN0ohIzPvOWcBfgovHnFDGvJvgDV/GuJrt/3V3WBnaTU+YEgklqIGYfNUDXyhiRwjrB0JIdoLxnQ6MyTnc+cYQyNXI0ka5/vybeALYTaKv6Zk1MG9hNAtu1Qy9IGgXvMJTZMAbkFfSp9coIF4ssW3iEu+tUCREyFeZ/kBRm2v+EqR/kBZrr8XEnlWUvoia7f91d1gZ2k1Pm2oGj2kW0/vCoqKaeVeUf/J8ik00+eu5lTnhK/L8RcEBtjCeY+vYESc/AtyHfNe/H9e3DPwJtYDeJB9sJwOAyC9iG79WynSmCyucxW1MguCzPPmlOKDzhOEgmKa9buAZlmUkzbadNsWfNYxvYTQLbsp06qigliwzONaGuOZhyAQQCCCVf7uEEp6Eu1OZ7ERx9wqPPoi6wF4cre/mLaLltXOf3tYHd7ATZgapWRHPTWm9NVoTAc6Ge8zAHN1cVDIaWr4ILRkeRXxIaP1rJEZtON1h8UXWLIhtieHn+EIkszz222a5fj9e1gd3krIG/ZdkDbUY3arcqxRaCrdVxVYLqOMtyWZXmBMJI++RkxOnKl+S91lSfuUaH0LTnsc2KNInk2ZdZyIZTo5mLP8S2l+2UZG09kA4EQnlBqywij89e/LXtK/QItJ2gmkRCyQ4MM6VCEIlwmHCywlSqzDECfXMZ+aiLZSSPF64YQAwgdVMgsHwemwwIUnK7TLvKxDjliAoz1UgeNZE8bQjcQypIW1JAHpOi0453nD2NbWA3CWwViZ0pIWCrQj+/LECdI+hIGpAnGzimEFdGNtYiCHUw1FG2thy4KsekolNJ58BjB0rI1JpGEaiCrvol4WcMmI+CiiPZaxahlYFYaLTZbmyU69rAbnKm41m7f/JsWU2NZFQ6ldKUWczeOolOAFlQY9FNyE+dURG7166MXAxam7Yvmx2JlXrTzhCIfraicjjTlXFVQqph+mKTOQGrosLI2sokmaEtvct+T5Pdv+4uawO7ySkbe/r4b1snK6rbHVDxTpDKGKCNei6VEjKepqCaS4dVIBkGDoeR0y8cdJLuvXj0Y00+vu6yythw75W//sI98TObsSHYKoYUflYXNC/ICwh3WEmzVkmHVBnVF8ppZHyNjPwP9/Lk55wtPRs2H3abFVki0oozl0PqoRN/OP7NZ14f6ENY4baYCnaB12XyPEazUDUCFqWUzavM1JSqnEN21EtllTt05JPZi8d+p2ShpoFjs/jYJig4+nE1y8EwVTaJPSgtMrsrNY3fh1Ee5FQ8jxIGz59+T3Losm1HHdW1Ja5Cm7BwYuDtg4jiYUoouqoWAeoUUhoPWerM6YN7Oh+2/xh/+Kkldq9lL9/wFDs5cakXWodNwFmvXXZ3OKXiXuikO5Cat2ChHt7w6WMPRJ4/86bNKqbcva7KboEmDqUzUK8IGGMtDwhxOFmlxt1cVJ35XlU6Zqvpi5e2x2/o+IMSAtwtZE5l+QJdgbfm7iqqQ9HWGb00Q75yeOapYRVBQnl7F8TU/ZAiO7BgTLkPfT3+kZfvDqhYokd1PJ9SmWcP/2Tlsafs0d2Rf4F/yUxXpSNXsVkmQU3BajoSGtg23bIobtCxDQHs/NTFHrdUGigVCzuQE+8Gq+zeVioWb0E+ju2FiaEBjAvArZXBiF2RMhosf9dXBGtxbBL1PkdU39Y+5SRiSDwJEzZSCtvgr8kSSKgLMquyIBMNM040pNLBvEqX8qqL2g0HLAO5cF7vy+wkRh4BqYmd5OTwUdS4JFmPBixHB9oUxruQc9uk4TEVe1kTHSwQWwzuI76lQ9mHSmrm8Pn3l/sH3o/Mq9DS5MCTs/QTS6JZyamTT01D9hyH+f08UhGfwC5yqOI4JwH6SzDfj0f79yRbCfgtB+zkxOUt5dz0yypu/pUA836Y7Lamx4a6UIioGzDsoIMcjR5BIAq00XjICe00SANocI2k3hvOqvCZpMoz8moQgJPUvvS4w3+wBAaQfN2Ryri8gSUzUCQJ9WBcJIIvQAUoqfcQ3EvJDpmhhFp7TLBn3BFgS/Q7TfS67gy5lwCr6uK9rELGwkwSs+41UT6Z/LKiUvgX60VlMAivU0MTqjwWUHGU8nDLGVjjCX0La8pC361uaFR2Ydd4kawmyKFsn2tZKJBnT0+degKgD5yFH/lR2wk96QY7vpkY2DF0vYL9ugV2ZeaCVcznbiiVSrtx3gH24TZk+L+zMDm0H0SqwysTbTxJBbiSN4nZ//058aoee5pVqLDeI2ozo0aBKlzJqOgwQBoPi8afjnQV1rjjkwBY+j15UTVMyl4CcSyhhgy0fiqQR3E8gCfPoktEkdTF80i0Z8PU9yM3IO7V6YKLJbyviIJKrAoMFZ/NsmNYQLr1ev3xk7sLF4nLGjihIJLMo7THFDQyZ3Iq0RlWExFUOiM/zpA13MCng0Ib/xb9LOrlsTbAuFei6MxgpVy41S0Vv8e1wGpZmfz46WePYpc5imuPhkKh7wRDoWM4z1pdO9Z9KNp1BezC1Egwn0k+4OZTPzQzfP57YcLeqidcZz4N0G+jUf3mOrJD3w7/Fz6PPZBzG/xwGFW88jMpNXF+WPWkQXmFtMOFVLslCc/Af+J3TV9pCJIBgMZGpYMiAG3BWOMA4DSqEzw2eGe2T4J9q6+rNYIeevpPWFDYCYoF1GcEK1IGS2JJTT48SMz1xnJukvOQygewtbgF4qyswtgaCsfHVHn7oFK7wlJpgbuBx/aI/dLw9LpOZK051YrCsnORPXLD+LgTl/BU+XwSxiCMj21dmj7zzMN2qONvguHYI5H+7VPrkaqve2AXp4YChdT097r59I9mh0++Esxlj+TWgDxGnlV7b3DevdApH1CXOOIuWA0qJTpgzI5Ah5zOFVU+AYCBcirkP60kwH87oIQALhEiQMEiKOO+MMtRz+D6JMCmUKIuB7BB3xFAOWsnKDHsmtw2OEqg0hWwEmw5izXZAGTM7lDFJJAKg5CCmo+7hSVFUKW3eD2eT54c6sZ8KqeKqZLqdDpUAYxF8vKoykMmCIL90UyM4eX1rb7FtfgAef7mCD/zLt4KFdA7VTH9zmLaUsnjjx23wtFPBaOdHw1v2rtuUhmvW2Bnxs/tz6emf3xy+PzbIdzvDFJjICwAd3WwE/X5CWozZNjlxads7hWSfc+GIgFhu+6FpAqA7XBJMAu2mjwxqjqjHSqSiFJ7pwVBkOAKWQ1Q2WAW5ZyHCsolsIlhqOMUapeTBZE4X6GcHrC95cg2aKov1RLICsFLMJ/NqWgBrcFiSg9lVRSKbF3YV6RLDU4sLvLiVi6kRs+NqwhqwVP9GIt1qqHhKRWaiqtIdxhCcG0xeRTahFKaJVI/dLNHperwxYUlO4+u6SDOA5QZKu5N+VT+Q/lc5oNTZ575sh2O/UW0u/czwdjAmurU1x2wU8NHfriUnvhQcfL8zQ4nG37JZVbropVPNmOd0dRjCubC07/BLg7v+gBZzAUylxanCioKUNmhODQiM9DogWrPVNTMwQxUbLAydmNyo0AvJVAYTCq5gsqDF7dHYsrJwLwOV2yLVkJkcAqgfB24dVgjAcTGBFuyR2kU0PgC5TYEzwRK75UB3OwFPAvFS2MDsAZFqfbGe0HR3WRQFaexdkbyKl7owqjk1YybU2GUoglAixLBgojFe9VUUBslPVnAv5/5m7PYPuelgtBFnnRbWV+SSe5tCMv4ybJLqddbpeTr84WJ8fSVQ3/hdAz8eiSx+ap8ZhafwcZXrBtgJ4fPHyjlp387n556M+vWip+z1hVgVnSSDUluQLBL5PaSdtSmxgdThIKkqCs6PK02FUCXQmE1iRehKoyUnHbTUKmlMmr60pSyof1wgszWhHJ04HGtvIP65SiCBy0JUVqACaYMRrYIX2rWZvTYgUYNkegb9gdCZAHCIHSDInAKhNCe6aGkmmGSYEqlpJLcAkitsZMkKjFRUXJBSJlr+I6EWcPmHLxeNyNp6yazO3gonjVufnDP9/McKm5kYLmec6MTqugdAHPjFnN9CGf7YKVQetv08JkPd23e84mmJmAFL1oXwM6eP/7L+cmh/xywCgEX/KgLIJVBJbmNkyYQ0ppTNPy0GYAlsouLDhugiqJGoLBJWBizsGNDJ20HsWPkIUBKzr4K6jeCmwZ/EsB1FnhM6rOpo8ghy1jeKYj3XxmWyNi2XmVv6pb7ZOfxMSL1DUHfhJyCUgOw8c5O1THYr1InL0kNR0rDDvhoJ493luEbwjHA1yWkLbGhvVHQlyOvCL6NopZTRBU7wNOnXRVLY/wyNZFwdudnU+55NpOGY1ZjqFjgqXZJiZoizhT4f6uMGvD54g2VQv5vUheOPBjfcfN7F52AFbxgzR3Uk5fP/Fg2n/yvUN9C0csAVlSZxUSyjqJWb4lKyvCV5EUpRAmpMIKjx3qYz/l473kGTQRQc3IJqViHSuzYqtJQeUFqVJu3DKro9h6VASswHbFUCgtvBvrlGaSwzgFYWbiN0nUU8S7gFLAMwcoU8P2m2/Yp1Yf6jKDCToN8IHXNoR5bEILPRERFHrhZTcdh8MHzYkWU1SvpNlI/ngdFpkdfFtejzIKaxq6R64GwurVX9Q1uUgNYdNP5tMrehAp+A3Gx3eM2tKF+h9O74ayxm/P7fEjz7tMZYfXJRcjvCW4YlKAhQg5CrEtoebKpH0teOvUbK4jbRR+1GGu16AOu9oKxMwcPo27yLaTMurwbdWu0onhl4PQb5uNPr/b9/vtLZHdCIdVXhiHyyYtq/OhplQhFVbYHQlwQ/HIOIM1DM5KD+i1fUiEuPgAaW64KgE2JQAeeBqi770Yt0QdvU2NqUjm5lAoZgdcXX1PfbGznwmbROgn1XvfADSr3lWdV4BvH5T2QD1UZFshyGLsHdxCyQVQvwtLpRkDNUYOd7IA9nVEJaFIKNw+q8stvAkeTVfmczgLh40TMuxeTReZnnhaiHZrb1owAmDSh6Iw9Kjrh8Vj/4Eti3VtOruSczfesNWVFSjOj4amxoW1c92ArZdvVpgSufl+w7GqMBGkN55I8bicW16vuUrEt3Wr07EWVHUPi1ExadThxVMkFMwIfEXJKJVoXwT4UimBDQM2j27tV/817oPkFtY5Bjz1JUFMeoD8Jt+j5OkIqR4pKFR6V0SkVeRUMhPG4uvLsMeVensDigW8IqGAE/DqFTbIu9M0uZEpo2gx2CcQ+9qF99+xWkVv2KvBMKgWnLO/wlCmNlEaN2JDlUjzSbodWfKHjsgdKz6A96YMLA6sHrwqwl9v+FYPaxNnnn3TKuXuoF6jQs0i2Ms1Rz6f3XbGXz3oQq33RpyMfRo30/q2q0wI6ZsCSjAMgF1ASfQaUOgcwFSCUMTocjZQUYxFctwVb/074Um3pQk+yWAwXoC2ZUSHICwRhzh8P6XuvZgeoQONlWoFQseKqe9MOfA2j4PlJvHtGqZFx+JCYhE/URkCnaOHZdgeu6YS34WC3Uv0xVe6FXIBHZoZHAfopGK3qXbVrdFhTbMPVzRlSXfW3Mee9GLcnJbApVIpcAlCTYgciF+IDW18T7Vodir3mwE6PnX9VcerKlyw3HwphRkrYxuiSphOsL0WkuXq4ixiIESlZ4PGjcZWAukyF4XtNe3pBayioajPmTa1X1qHquA7sQITXTanM5BDYlTQol/hqCHNL8bMRIHQPtahjS9FSJrisIM98N/TQ26CZwfup7gDFlt3EGxPewtmj0pwnXg+pFteBv54chwYnpQVeAVjtuPbApkANY5UL4dHsvhU6dHUO/H+dW/f93tXPUnNPWHNgs5n5Kyd+Kp+a/C92udiNkhNU9mGS6xKKNdebq7xKxCBh5vXklAMRRKjAfbqjU9nRBNgQKgT1JqtFWzGCM0GCAM/NZOEjPaoq2Sn5m75CU0XXrz6Yp5221Gmn+qyAJ1Ij06Ocrl5VTnRA5QgVHr0IffeSMy9CwK1AR1ku5vDeDHTbk9DYgOeHHp0+Mf603rx1NYAdQnRPsYQ+oG2WHcrFYt1/Etp64BeucnqWdPu6ADZbXJi4tDOXnPxouZR5TQUTK5Vu66ZxSf1a1sVi0QQASWUD3EKZHpgGE5JxCJWxSLRqxvdaJ/Iu9toSKFS+kFEBENYgI1z4LPHpIL9ptAbztkrTbXr2CfjIkxOR0HBYAZzgq21oPxwIi+JOIE/ke+F4VYLDEkBUgTGIGhlhjSBYMhcJD1sCE2rHtQa2LGaWBsQo5p3Q56Pxng91bd77/LIm5CpuWjfA9vowM3TszW4h9fOYtJdjhkOeMsnj+YT+kQOodtqvq611p65j5uLFOkvHPQafUztD2kjzC9kO0ENjGdTUnLn0BPy0imISaQanvwilTxppbBhIGHqgs0V5Mb0e79BotmrA1rlJ+HzqPynba+GTntV0p/U0K1oFKv59smyEEFBtCcou6jdxRTQegcaDca7gqMdO89mzR0cr8fQx+9PrQ3V25J36GdYEaMO3A7HE78W3HvjaVWDzqm5dbK6v6uFXc3Ny7OzufHrmPRW38G7Qn72WWyIdAkXSvqLiQl8deqOTFZ5X+1zojhnAcLh94Pb04F77PAGqptut/aUODH6dY5Vh9oaQC45gIjuB9jRaWfMOiHex92l8CEUI09CrLuSqUp+4rVcg6l3E/2L/8tcvnwtuD7qacaol3vQgrz+h1dBsGk74fcnCh/5DasaX6KjuBL9jB8N/ZAejX05s3rPmxVTXLbD9GEiNnN5XyKTeClvt94GZvAmKrj4C3JtY7YFGEHAOalPrTWv1G2MBrHbahz79o3mOj0bVY7G2ketrvXtmI3b23/z3NUJ37b1+LtiDXJ12og7Ymt+v9ZNE0w/tue/11qbxyDY9qC2A+gVUW1IueHbv2QyaYF1J2ETPOcHIV5xw9CPxwRufvhpCttL3XhfArgf5xUQln3yNVUz9OPbbOwDuPnzWAgtk+9eUjMKT9mGuWcj8m6fZg2eNqX9I5m7P9Sqw2X+f7/erBbaviU0Au3b1/O8ltdX5koy+WYR1z9vc+HALnfAWnQjUGZQsOVYORD+qIvF/6ty089xKA3KlnnfdAXt2x/Oj5/oQy7gbgtPLK2U570ZY2FYwvnSUNxTJCFBVVsJMuG/eq1Tfc+ZvQI39efTk2XPUkfMNp39bX4xiy4Pnn19vYxLeW8Oyunvwbzg933RdB7L2KAY01H4lw67155qP1yeFTcZvIqQtWXECVxAu9jziJJ8KBkJPo9rwoWDv9usiXOy6B3YjBORGT+6Gc9D9sHTdX3FLd0HwvBFqgh4IYXFMrs3aiHoiayDSwOZka1/rOl61xrssADrDY88DSS9/duM/+1mR2VfUg9Pg0HDdNdmi2kTxfNTFnijgMnrHu4d8Mg/9HU5xmrRhyXdSFdsZR/33k4Fg+Jvglb/mBqNHYP6enH+Fre+/tCSwGw25OzUcANAT5XKpH+l5d8AcvhsBAtuAgq0AwmDZLW9H9Poup1IaqA2KkMQaO13TIWh67pHDup2gMcWlZmNBMjyvalNrO6qHNElTdFmYko2qvo36ahroAxMVOzgMijsB6j0JwW8KP48FUVwVAbtHIPEdtQPBEUTHpEOJgXUfx7iUpbRhgN3MoOTGLyWCbvpF0GDfAuzsJPhLJRcBhJUE7o+VXGSGrDBUhQHulSAoP35mbIsooA2/04ivJRXV2pw5h2B0XorNbQCiAnWJ4t9fAquAzBDiIYYYGzj6BYIIgVBMncDiT+MA6SVccx7n8YIVfSHSt2u4mb632jVtYC9jRsvpcai6K4FisQgnDQG5qAlqCEXihDLCDCrCxJLeimXdHH4G2vtWA1j2B8/JgnKbBdW6KMKpa2P8PFyenRx8wItOvH8BRnwZnWrf0h6B9gi0R6A9Au0RaI9AewTaI9AegfYItEegPQLtEWiPQHsE2iPQHoH2CLRHoD0C7RFoj0B7BNoj0B6B9gi0R6A9Au0RaI9AewTaI9AegfYItEegPQLtEWiPQHsE2iPQHoH2CCx1BP5/dzrhpoCnl/oAAAAASUVORK5CYII=" parent="1" vertex="1">
          <mxGeometry x="75" y="510" width="48.61" height="90" as="geometry" />
        </mxCell>
        <mxCell id="AcxdMaKK0mU5kZiv2lnr-49" style="rounded=0;orthogonalLoop=1;jettySize=auto;elbow=vertical;html=1;strokeColor=#808080;startArrow=classic;startFill=1;entryX=0.009;entryY=0.52;entryDx=0;entryDy=0;entryPerimeter=0;" parent="1" source="5YPA4upZOM7TvgwkD8Ul-3" target="oPtmLi2s78sQVJzXojm6-103" edge="1">
          <mxGeometry relative="1" as="geometry">
            <mxPoint x="175" y="1011.5" as="sourcePoint" />
            <mxPoint x="230" y="555" as="targetPoint" />
          </mxGeometry>
        </mxCell>
        <mxCell id="oPtmLi2s78sQVJzXojm6-128" style="edgeStyle=orthogonalEdgeStyle;rounded=0;orthogonalLoop=1;jettySize=auto;html=1;entryX=0.5;entryY=1;entryDx=0;entryDy=0;" edge="1" parent="1" source="qsr4vKHVQG-YNDuzGZbX-2" target="qsr4vKHVQG-YNDuzGZbX-1">
          <mxGeometry relative="1" as="geometry" />
        </mxCell>
        <mxCell id="qsr4vKHVQG-YNDuzGZbX-2" value="" style="rounded=1;whiteSpace=wrap;html=1;rotation=90;fillColor=#f5f5f5;fontColor=#333333;strokeColor=#666666;arcSize=8;" parent="1" vertex="1">
          <mxGeometry x="431.12" y="342.16" width="376.72" height="470" as="geometry" />
        </mxCell>
        <mxCell id="oPtmLi2s78sQVJzXojm6-130" style="edgeStyle=orthogonalEdgeStyle;rounded=0;orthogonalLoop=1;jettySize=auto;html=1;entryX=0;entryY=0.5;entryDx=0;entryDy=0;" edge="1" parent="1" source="qsr4vKHVQG-YNDuzGZbX-1" target="wkqdaRXwN99UUoOsyKMl-37">
          <mxGeometry relative="1" as="geometry">
            <Array as="points" />
          </mxGeometry>
        </mxCell>
        <mxCell id="qsr4vKHVQG-YNDuzGZbX-1" value="" style="rounded=1;whiteSpace=wrap;html=1;rotation=90;fillColor=#f5f5f5;fontColor=#333333;strokeColor=#666666;" parent="1" vertex="1">
          <mxGeometry x="935" y="511.5" width="250" height="133.5" as="geometry" />
        </mxCell>
        <mxCell id="wkqdaRXwN99UUoOsyKMl-37" value="" style="shape=image;verticalLabelPosition=bottom;labelBackgroundColor=#ffffff;verticalAlign=top;aspect=fixed;imageAspect=0;image=data:image/svg+xml,PHN2ZyB4bWxuczpjYz0iaHR0cDovL2NyZWF0aXZlY29tbW9ucy5vcmcvbnMjIiB4bWxuczpkYz0iaHR0cDovL3B1cmwub3JnL2RjL2VsZW1lbnRzLzEuMS8iIHhtbG5zOmlua3NjYXBlPSJodHRwOi8vd3d3Lmlua3NjYXBlLm9yZy9uYW1lc3BhY2VzL2lua3NjYXBlIiB4bWxuczpyZGY9Imh0dHA6Ly93d3cudzMub3JnLzE5OTkvMDIvMjItcmRmLXN5bnRheC1ucyMiIHhtbG5zOnNvZGlwb2RpPSJodHRwOi8vc29kaXBvZGkuc291cmNlZm9yZ2UubmV0L0RURC9zb2RpcG9kaS0wLmR0ZCIgeG1sbnM6c3ZnPSJodHRwOi8vd3d3LnczLm9yZy8yMDAwL3N2ZyIgeG1sbnM9Imh0dHA6Ly93d3cudzMub3JnLzIwMDAvc3ZnIiB4bWxuczp4bGluaz0iaHR0cDovL3d3dy53My5vcmcvMTk5OS94bGluayIgdmVyc2lvbj0iMS4xIiBpZD0ic3ZnMTIwNjUiIGlua3NjYXBlOnZlcnNpb249IjAuOTIuMyAoMjQwNTU0NiwgMjAxOC0wMy0xMSkiIHNvZGlwb2RpOmRvY25hbWU9IndlYnNpdGVzLnN2ZyIgeD0iMHB4IiB5PSIwcHgiIHZpZXdCb3g9IjAgMCA0MC4yMiA0MC4wMiIgc3R5bGU9ImVuYWJsZS1iYWNrZ3JvdW5kOm5ldyAwIDAgNDAuMjIgNDAuMDI7IiB4bWw6c3BhY2U9InByZXNlcnZlIj4mI3hhOzxzb2RpcG9kaTpuYW1lZHZpZXcgYm9yZGVyY29sb3I9IiM2NjY2NjYiIGJvcmRlcm9wYWNpdHk9IjEiIGZpdC1tYXJnaW4tYm90dG9tPSIwIiBmaXQtbWFyZ2luLWxlZnQ9IjAiIGZpdC1tYXJnaW4tcmlnaHQ9IjAiIGZpdC1tYXJnaW4tdG9wPSIwIiBncmlkdG9sZXJhbmNlPSIxMCIgZ3VpZGV0b2xlcmFuY2U9IjEwIiBpZD0ibmFtZWR2aWV3MTIwNjciIGlua3NjYXBlOmN1cnJlbnQtbGF5ZXI9InN2ZzEyMDY1IiBpbmtzY2FwZTpjeD0iMjQuNjM2NjY5IiBpbmtzY2FwZTpjeT0iMjEuNTIzNTM3IiBpbmtzY2FwZTpwYWdlb3BhY2l0eT0iMCIgaW5rc2NhcGU6cGFnZXNoYWRvdz0iMiIgaW5rc2NhcGU6d2luZG93LWhlaWdodD0iMTAxNyIgaW5rc2NhcGU6d2luZG93LW1heGltaXplZD0iMSIgaW5rc2NhcGU6d2luZG93LXdpZHRoPSIxOTIwIiBpbmtzY2FwZTp3aW5kb3cteD0iLTgiIGlua3NjYXBlOndpbmRvdy15PSItOCIgaW5rc2NhcGU6em9vbT0iOC4xMjM1MjcxIiBvYmplY3R0b2xlcmFuY2U9IjEwIiBwYWdlY29sb3I9IiNmZmZmZmYiIHNob3dncmlkPSJmYWxzZSI+JiN4YTsJPC9zb2RpcG9kaTpuYW1lZHZpZXc+JiN4YTs8ZyBpZD0iZzEyMDYzIj4mI3hhOwk8dGl0bGUgaWQ9InRpdGxlMTIwNTMiPlBhZ2UtMTwvdGl0bGU+JiN4YTsJPGcgaWQ9Imdyb3VwNDMyMi0xIj4mI3hhOwkJPHRpdGxlIGlkPSJ0aXRsZTEyMDU1Ij5XZWJzaXRlczwvdGl0bGU+JiN4YTsJCTxnIGlkPSJzaGFwZTQzMjMtMiI+JiN4YTsJCQk8dGl0bGUgaWQ9InRpdGxlMTIwNTciPlNoZWV0LjQzMjM8L3RpdGxlPiYjeGE7CQkJPHBhdGggaWQ9InBhdGgxMjA1OSIgaW5rc2NhcGU6Y29ubmVjdG9yLWN1cnZhdHVyZT0iMCIgc3R5bGU9ImZpbGw6IzNGNTc2NTsiIGQ9Ik0yMCwwYzExLjA3LDAsMjAuMjIsOC45LDIwLjIyLDE5LjkxICAgICBjMCwxMS4yMi05LjE1LDIwLjExLTIwLjIyLDIwLjExYy0xMS4wNiwwLTIwLTguODktMjAtMjAuMTFDMCw4LjksOC45NCwwLDIwLDB6IE0yNy40NiwzNi40M2MtMC42NC0zLjM5LDEuMjctOS4xMSwwLjIxLTEwLjE3ICAgICBjLTAuNDItMC4yMS0wLjg1LTAuNDItMS4yOC0wLjIxYy0wLjg1LDAuMjEtMS43LDAuNjMtMi4zNCwwLjQyYy0zLjYyLTEuNjktMS40OS03LjQxLDIuMTMtOC42OGMwLjY0LTAuMjEsMS4yOC0wLjIxLDEuOTEtMC4yMSAgICAgYzEuMDctMC4yMSwxLjcxLTAuMjEsMS43MSwwLjQyYzAsMC44NSwxLjcsMS40OSwyLjEyLDEuNDljMC4yMiwwLDAuMjItMC42NCwwLjQzLTAuNjRjMS40OSwwLDIuNTUsMC44NSwyLjc3LDAuMjEgICAgIGMwLjQyLTIuMTIsMC4yMS0xLjA2LTEuNS0xLjI3Yy0wLjYzLTAuMjEtMC4yMS0xLjI3LTAuODQtMS4yN2MtMC40My0wLjIxLDAuMjEsMS4yNy0wLjQzLDAuODVjLTAuODUtMC42NC0xLjI4LTIuMTItMi4xMy0yLjMzICAgICBjLTEuMDYtMC4yMSwwLjY0LDAuODQsMC44NSwxLjQ4YzAuMjEsMC42NC0wLjY0LDEuNDgtMS4wNiwwLjg1Yy0wLjIxLTAuMjEsMC44NS0wLjg1LTAuNDMtMS42OWMtMC4yMS0wLjQzLTAuODUtMC40My0xLjI4LDAgICAgIGMtMC42MywwLjYzLTAuODQsMS4yNi0xLjA1LDEuMjZjLTAuNjUsMC40My0xLjA3LDAuNDMtMS43MSwwLjIyYy0wLjg1LTAuMjItMC42NC0yLjEyLDAuMjEtMS45MWMyLjU1LDAuNjMsMC4yMS0wLjg1LDAuODUtMS4yNyAgICAgYzAuMjItMC4yMSwxLjA3LTAuODQsMS40OS0xLjQ4YzAuNDMtMC40MywwLjIxLTEuNjksMS4wNy0xLjQ4YzAuNDIsMCwwLjIxLDAuODQsMC42NCwxLjA1YzAuMjEsMC4yMSwwLjg0LDAsMS4yNywwICAgICBjMC42NCwwLDAuNjQtMC40MiwwLjY0LTEuMDVjMC0wLjg1LDEuNDktMC42NCwxLjQ5LTEuMDdjLTAuMjEtMC42My0xLjcsMC4yMi0xLjctMC42M2MwLTEuMDYsMS4yOC0xLjI3LDAuNDItMS40OCAgICAgYy0wLjY0LTAuMjItMS40OSwwLjQyLTEuMjgsMS45YzAuMjIsMS40OSwwLjQzLDIuMTItMC42MywxLjdjLTAuODUtMC42MywwLjIxLTEuNy0wLjY0LTEuMjdjLTAuNjQsMC40Mi0xLjA3LDAuNjQtMS4wNy0wLjQzICAgICBjMC0wLjg0LDEuNzEtMy4zOCwyLjk4LTMuODFjLTIuMzQtMS45LTUuMS0zLjE3LTguMy0zLjZsMCwwYzAsMS43LDAsMi43Ni0wLjIxLDMuNmMwLDEuMDYtMy4xOSwxLjI3LTMuNjEsMy4xOCAgICAgYy0wLjQzLDEuNy0xLjA3LDAuNjMtMi4xMy0wLjY0Yy0xLjA3LTEuMjcsMC4yMS0yLjk2LTAuNDItNC4wMmMtMC40My0xLjA2LTIuMzUsMC40My0yLjM1LTAuNjRjMC0wLjQyLDAuNDItMC44NCwwLjQyLTEuMDUgICAgIGMtMC4yMSwwLjIxLTAuNDIsMC4yMS0wLjYzLDAuMjFjLTAuNjQsMC40Mi0xLjA3LDEuNy0xLjI4LDEuOTFjLTAuNjQsMC44NCwwLjg1LDAuNjMsMS40OSwxLjQ4YzAuODUsMS4yNiwxLjQ5LDIuMTEsMS4wNiwyLjc1ICAgICBjLTAuMjEsMC42My0yLjc2LDAtMi4zNC0xLjA2YzAuNjQtMS4wNiwwLjIyLTEuMjctMC40Mi0xLjQ4Yy0wLjY0LDAtMC42NCwwLjg0LTAuNjQsMS45YzAsMC44NS0xLjcsMS4wNi0yLjU2LDEuOTEgICAgIGMtMC44NCwxLjA2LDAuNjQsMS45LDEuOTMsMi4zM2MxLjI3LDAuNDMsMC40Mi0xLjY5LDAuODQtMi43NmMwLjQzLTEuNDgsMS45Mi0wLjIxLDIuOTgsMS4wN2MwLjg1LDEuMjYsMi4zNCwyLjk2LDAuNDMsMy44MSAgICAgYy0zLjIsMS4yNi00LjQ3LDIuNzUtNS4xMSw0LjAyYy0wLjY0LDEuMjcsMCwxLjktMC40MywyLjMzYy0wLjQyLDAuNDMtMC40Mi0wLjIxLTAuODUtMS4yN2MtMC40Mi0wLjYzLTEuOTEtMC42My0yLjU1LDAuNjMgICAgIGMtMC40MiwwLjIxLTAuNDIsMC44NS0wLjQyLDEuNDljMCwyLjEyLDEuNDgtMC42NCwyLjM0LTAuMjFjMS4wNiwwLjIxLTAuODYsMC40Mi0wLjY0LDEuMjZjMC4yMSwwLjg2LDEuNDgtMC40MiwxLjA2LDEuNDggICAgIGMtMC4yMSwxLjA3LDEuNDksMC4yMiwyLjU2LTAuMmMyLjM0LTAuODUsNC4wNCwyLjk2LDUuNzQsMy42YzEuOTIsMC42MywyLjU1LDEuMDUsMi4xMywxLjljLTEuMjgsMi41NS0zLjgzLDQuMjQtNS4xMSw3LjIgICAgIGMxLjcsMC42MywzLjgzLDAuODUsNS43NCwwLjg1QzIyLjc3LDM3LjkxLDI1LjExLDM3LjQ4LDI3LjQ2LDM2LjQzeiBNMzcuNjcsMjQuMTVjLTAuNDMsMC0wLjg1LDAuMjEtMS4wNywwLjIxICAgICBjLTEuMDYtMC40Mi0wLjQyLTQuNjYtMS45MS00LjQ1Yy0wLjY0LDAuMjEsMC40MywzLjM5LDEuOTEsNS4wOGMwLjIyLDAuMjEsMC40MywwLDAuODYsMEMzNy40NiwyNC43OCwzNy42NywyNC4zNiwzNy42NywyNC4xNXogICAgICBNMzYuNiwyNy4xMWMtMS43LTAuNDMtMi45OCwzLjM5LTMuNCw1LjA4QzM0LjY5LDMwLjcxLDM1Ljc1LDI5LjAxLDM2LjYsMjcuMTF6IE0xMS4wNywzNS41OGMwLjIyLTEuNywwLjQzLTMuNiwwLTMuODEgICAgIEM5LjU4LDMwLjUsOC41MiwyOC41OSwxMCwyNi42OGMwLjIyLTAuMjEsMC40My0wLjQyLDAuNDMtMC44NGMwLjIxLTAuNjQtMC40My0wLjIxLTEuNDktMC4yMXMtMC4yMS0xLjY5LTIuMzQtMS45MSAgICAgYy0yLjEzLTAuMjEtMi4xMy0wLjY0LTIuMzQtMS45YzAtMS4yOC0xLjI3LTIuNTQtMi4zNC0yLjc2YzAsMC4yMiwwLDAuNjQsMCwwLjg1QzEuOTIsMjYuNjgsNS43NSwzMi42MiwxMS4wNywzNS41OHogICAgICBNMjIuOTgsOC42OWMwLjg2LDAuNDIsMS43MS0wLjIyLDEuNS0wLjg1QzIzLjg0LDYuNzgsMjEuOTMsNy40MSwyMi45OCw4LjY5eiBNMjYuNiwxMC4zOGMwLjY1LDAsMS4wNywxLjI3LDAuODYsMS45ICAgICBjLTAuNDMsMS4yOC0xLjUsMC40My0xLjcxLTAuNDJDMjUuNzUsMTEuMDIsMjUuOTYsMTAuMzgsMjYuNiwxMC4zOHogTTMzLjYyLDE2LjMxYy0wLjYzLTAuNjMtMC40Mi0xLjQ4LDAuNDMtMS43ICAgICBjMS40OS0wLjIxLDMuNDEsMS4yNywyLjEzLDEuN0MzNS41NCwxNi41MiwzNC40OCwxNi41MiwzMy42MiwxNi4zMXogTTkuNzksMjEuNjFjMC42NCwwLDIuMzQsMC40MiwyLjc3LDAuODQgICAgIGMwLjQyLDAuNjMtMS4yNywwLjQyLTIuMzQsMEM5LjU4LDIyLjI0LDkuMTUsMjEuODIsOS43OSwyMS42MXoiLz4mI3hhOwkJPC9nPiYjeGE7CTwvZz4mI3hhOzwvZz4mI3hhOzwvc3ZnPg==;fillColor=#009900;gradientColor=#CCCC00;" parent="1" vertex="1">
          <mxGeometry x="1220" y="557.4" width="40" height="40" as="geometry" />
        </mxCell>
        <mxCell id="oPtmLi2s78sQVJzXojm6-7" style="edgeStyle=orthogonalEdgeStyle;rounded=0;orthogonalLoop=1;jettySize=auto;html=1;entryX=0;entryY=0.5;entryDx=0;entryDy=0;entryPerimeter=0;" edge="1" parent="1" source="oPtmLi2s78sQVJzXojm6-73" target="oPtmLi2s78sQVJzXojm6-74">
          <mxGeometry relative="1" as="geometry">
            <mxPoint x="480" y="674.2500000000002" as="sourcePoint" />
            <mxPoint x="516" y="722.7499999999998" as="targetPoint" />
            <Array as="points">
              <mxPoint x="510" y="670" />
              <mxPoint x="510" y="708" />
            </Array>
          </mxGeometry>
        </mxCell>
        <mxCell id="oPtmLi2s78sQVJzXojm6-23" style="edgeStyle=orthogonalEdgeStyle;rounded=0;orthogonalLoop=1;jettySize=auto;html=1;" edge="1" parent="1" source="oPtmLi2s78sQVJzXojm6-73" target="oPtmLi2s78sQVJzXojm6-67">
          <mxGeometry relative="1" as="geometry">
            <mxPoint x="452.31999999999994" y="649.6120000000001" as="sourcePoint" />
            <mxPoint x="515.76" y="560.0124999999998" as="targetPoint" />
            <Array as="points">
              <mxPoint x="449" y="533" />
            </Array>
          </mxGeometry>
        </mxCell>
        <mxCell id="oPtmLi2s78sQVJzXojm6-6" style="edgeStyle=orthogonalEdgeStyle;rounded=0;orthogonalLoop=1;jettySize=auto;html=1;" edge="1" parent="1" source="oPtmLi2s78sQVJzXojm6-68" target="oPtmLi2s78sQVJzXojm6-73">
          <mxGeometry relative="1" as="geometry">
            <mxPoint x="516" y="625.7241379310346" as="sourcePoint" />
            <mxPoint x="480" y="662.125" as="targetPoint" />
            <Array as="points">
              <mxPoint x="510" y="609" />
              <mxPoint x="510" y="650" />
            </Array>
          </mxGeometry>
        </mxCell>
        <mxCell id="oPtmLi2s78sQVJzXojm6-20" style="edgeStyle=orthogonalEdgeStyle;rounded=0;orthogonalLoop=1;jettySize=auto;html=1;entryX=-0.105;entryY=0.561;entryDx=0;entryDy=0;entryPerimeter=0;exitX=1.028;exitY=0.573;exitDx=0;exitDy=0;exitPerimeter=0;" edge="1" parent="1" source="oPtmLi2s78sQVJzXojm6-68" target="oPtmLi2s78sQVJzXojm6-82">
          <mxGeometry relative="1" as="geometry">
            <mxPoint x="596" y="625.7241379310346" as="sourcePoint" />
            <mxPoint x="621.6799999999998" y="625.1680000000001" as="targetPoint" />
            <Array as="points">
              <mxPoint x="606" y="613" />
              <mxPoint x="625" y="613" />
            </Array>
          </mxGeometry>
        </mxCell>
        <mxCell id="oPtmLi2s78sQVJzXojm6-131" style="edgeStyle=orthogonalEdgeStyle;rounded=0;orthogonalLoop=1;jettySize=auto;html=1;entryX=1;entryY=0.5;entryDx=0;entryDy=0;startArrow=classic;startFill=1;endArrow=none;endFill=0;" edge="1" parent="1" source="wkqdaRXwN99UUoOsyKMl-20" target="wkqdaRXwN99UUoOsyKMl-37">
          <mxGeometry relative="1" as="geometry" />
        </mxCell>
        <mxCell id="oPtmLi2s78sQVJzXojm6-144" style="edgeStyle=orthogonalEdgeStyle;rounded=0;orthogonalLoop=1;jettySize=auto;html=1;entryX=0.508;entryY=0.999;entryDx=0;entryDy=0;entryPerimeter=0;" edge="1" parent="1" source="wkqdaRXwN99UUoOsyKMl-20" target="qsr4vKHVQG-YNDuzGZbX-3">
          <mxGeometry relative="1" as="geometry" />
        </mxCell>
        <mxCell id="wkqdaRXwN99UUoOsyKMl-20" value="" style="sketch=0;points=[[0,0,0],[0.25,0,0],[0.5,0,0],[0.75,0,0],[1,0,0],[0,1,0],[0.25,1,0],[0.5,1,0],[0.75,1,0],[1,1,0],[0,0.25,0],[0,0.5,0],[0,0.75,0],[1,0.25,0],[1,0.5,0],[1,0.75,0]];outlineConnect=0;fontColor=#232F3E;gradientColor=#4D72F3;gradientDirection=north;fillColor=#3334B9;strokeColor=#ffffff;dashed=0;verticalLabelPosition=bottom;verticalAlign=top;align=center;html=1;fontSize=12;fontStyle=0;aspect=fixed;shape=mxgraph.aws4.resourceIcon;resIcon=mxgraph.aws4.cloud_control_api;" parent="1" vertex="1">
          <mxGeometry x="1362" y="553.4999999999999" width="48" height="48" as="geometry" />
        </mxCell>
        <mxCell id="qsr4vKHVQG-YNDuzGZbX-3" value="" style="rounded=1;whiteSpace=wrap;html=1;rotation=90;fillColor=#f5f5f5;fontColor=#333333;strokeColor=#666666;" parent="1" vertex="1">
          <mxGeometry x="1559.5" y="358" width="323" height="435.5" as="geometry" />
        </mxCell>
        <mxCell id="oPtmLi2s78sQVJzXojm6-146" style="edgeStyle=orthogonalEdgeStyle;rounded=0;orthogonalLoop=1;jettySize=auto;html=1;entryX=0.003;entryY=0.564;entryDx=0;entryDy=0;entryPerimeter=0;" edge="1" parent="1" source="wkqdaRXwN99UUoOsyKMl-3" target="oPtmLi2s78sQVJzXojm6-100">
          <mxGeometry relative="1" as="geometry" />
        </mxCell>
        <mxCell id="wkqdaRXwN99UUoOsyKMl-3" value="" style="shape=image;verticalLabelPosition=bottom;labelBackgroundColor=#ffffff;verticalAlign=top;aspect=fixed;imageAspect=0;image=data:image/svg+xml,PHN2ZyB4bWxuczpjYz0iaHR0cDovL2NyZWF0aXZlY29tbW9ucy5vcmcvbnMjIiB4bWxuczpkYz0iaHR0cDovL3B1cmwub3JnL2RjL2VsZW1lbnRzLzEuMS8iIHhtbG5zOmlua3NjYXBlPSJodHRwOi8vd3d3Lmlua3NjYXBlLm9yZy9uYW1lc3BhY2VzL2lua3NjYXBlIiB4bWxuczpyZGY9Imh0dHA6Ly93d3cudzMub3JnLzE5OTkvMDIvMjItcmRmLXN5bnRheC1ucyMiIHhtbG5zOnNvZGlwb2RpPSJodHRwOi8vc29kaXBvZGkuc291cmNlZm9yZ2UubmV0L0RURC9zb2RpcG9kaS0wLmR0ZCIgeG1sbnM6c3ZnPSJodHRwOi8vd3d3LnczLm9yZy8yMDAwL3N2ZyIgeG1sbnM9Imh0dHA6Ly93d3cudzMub3JnLzIwMDAvc3ZnIiB4bWxuczp4bGluaz0iaHR0cDovL3d3dy53My5vcmcvMTk5OS94bGluayIgdmVyc2lvbj0iMS4xIiBpZD0ic3ZnMTUwMTk3IiBpbmtzY2FwZTp2ZXJzaW9uPSIwLjkyLjMgKDI0MDU1NDYsIDIwMTgtMDMtMTEpIiBzb2RpcG9kaTpkb2NuYW1lPSJkZXZlbG9wZXJfMS5zdmciIHg9IjBweCIgeT0iMHB4IiB2aWV3Qm94PSIwIDAgMTM0LjQgODkuNzkiIHN0eWxlPSJlbmFibGUtYmFja2dyb3VuZDpuZXcgMCAwIDEzNC40IDg5Ljc5OyIgeG1sOnNwYWNlPSJwcmVzZXJ2ZSI+JiN4YTs8c29kaXBvZGk6bmFtZWR2aWV3IGJvcmRlcmNvbG9yPSIjNjY2NjY2IiBib3JkZXJvcGFjaXR5PSIxIiBmaXQtbWFyZ2luLWJvdHRvbT0iMCIgZml0LW1hcmdpbi1sZWZ0PSIwIiBmaXQtbWFyZ2luLXJpZ2h0PSIwIiBmaXQtbWFyZ2luLXRvcD0iMCIgZ3JpZHRvbGVyYW5jZT0iMTAiIGd1aWRldG9sZXJhbmNlPSIxMCIgaWQ9Im5hbWVkdmlldzE1MDE5OSIgaW5rc2NhcGU6Y3VycmVudC1sYXllcj0ic3ZnMTUwMTk3IiBpbmtzY2FwZTpjeD0iODkuNTk4MzE2IiBpbmtzY2FwZTpjeT0iNTkuMzI5NTMzIiBpbmtzY2FwZTpwYWdlb3BhY2l0eT0iMCIgaW5rc2NhcGU6cGFnZXNoYWRvdz0iMiIgaW5rc2NhcGU6d2luZG93LWhlaWdodD0iMTAxNyIgaW5rc2NhcGU6d2luZG93LW1heGltaXplZD0iMSIgaW5rc2NhcGU6d2luZG93LXdpZHRoPSIxOTIwIiBpbmtzY2FwZTp3aW5kb3cteD0iLTgiIGlua3NjYXBlOndpbmRvdy15PSItOCIgaW5rc2NhcGU6em9vbT0iNy4wODk5NTA1IiBvYmplY3R0b2xlcmFuY2U9IjEwIiBwYWdlY29sb3I9IiNmZmZmZmYiIHNob3dncmlkPSJmYWxzZSI+JiN4YTsJPC9zb2RpcG9kaTpuYW1lZHZpZXc+JiN4YTs8ZyBpZD0iZzE1MDE5NSIgdHJhbnNmb3JtPSJ0cmFuc2xhdGUoLTEuMzYxNDY5MiwtMC41NjgzKSI+JiN4YTsJPHRpdGxlIGlkPSJ0aXRsZTE1MDAyMCI+UGFnZS0xPC90aXRsZT4mI3hhOwk8ZyBpZD0iZ3JvdXAzODctMSIgdHJhbnNmb3JtPSJ0cmFuc2xhdGUoMS4yNTg1NiwtMS4zNikiPiYjeGE7CQk8dGl0bGUgaWQ9InRpdGxlMTUwMDIyIj5EZXZlbG9wZXIgIzE8L3RpdGxlPiYjeGE7CQk8ZyBpZD0ic2hhcGUzODgtMiIgdHJhbnNmb3JtPSJtYXRyaXgoMSwwLDAsLTEsNjEuOTc3NywxMzEuNjkyKSI+JiN4YTsJCQk8dGl0bGUgaWQ9InRpdGxlMTUwMDI0Ij5wYXRoMjA2LTA8L3RpdGxlPiYjeGE7CQkJPHBhdGggaWQ9InBhdGgxNTAwMjYiIGlua3NjYXBlOmNvbm5lY3Rvci1jdXJ2YXR1cmU9IjAiIHN0eWxlPSJmaWxsOiMwMDcxQkM7IiBkPSJNNTIuMiw1MS4zOWMwLTIuNi0zLjIyLTQuNy03LjE5LTQuN0g3LjE5ICAgICBjLTMuOTcsMC03LjE5LDIuMS03LjE5LDQuN3YzNS42MmMwLDIuNiwzLjIyLDQuNyw3LjE5LDQuN2gzNy44MmMzLjk3LDAsNy4xOS0yLjEsNy4xOS00LjdMNTIuMiw1MS4zOXoiLz4mI3hhOwkJPC9nPiYjeGE7CQk8ZyBpZD0ic2hhcGUzODktNCIgdHJhbnNmb3JtPSJ0cmFuc2xhdGUoODMuMjY2MywtMzguMTQxMykiPiYjeGE7CQkJPHRpdGxlIGlkPSJ0aXRsZTE1MDAyOSI+cGF0aDIxMC00PC90aXRsZT4mI3hhOwkJCTxwYXRoIGlkPSJwYXRoMTUwMDMxIiBpbmtzY2FwZTpjb25uZWN0b3ItY3VydmF0dXJlPSIwIiBzdHlsZT0iZmlsbDojRTVFNUU1OyIgZD0iTTkuNjIsOTEuNzFIMHYtNS45Nmg5LjYyVjkxLjcxeiIvPiYjeGE7CQk8L2c+JiN4YTsJCTxnIGlkPSJzaGFwZTM5MC02IiB0cmFuc2Zvcm09Im1hdHJpeCgxLDAsMCwtMSw4Ny44Njg0LDE0MS42KSI+JiN4YTsJCQk8dGl0bGUgaWQ9InRpdGxlMTUwMDM0Ij5wYXRoMjE0LTk8L3RpdGxlPiYjeGE7CQkJPHBhdGggaWQ9InBhdGgxNTAwMzYiIGlua3NjYXBlOmNvbm5lY3Rvci1jdXJ2YXR1cmU9IjAiIHN0eWxlPSJmaWxsOm5vbmU7IiBkPSJNMCw5MS43MXYtMi42OFY5MS43MXoiLz4mI3hhOwkJCSYjeGE7CQkJCTxwYXRoIGlkPSJwYXRoMTUwMDM4IiBpbmtzY2FwZTpjb25uZWN0b3ItY3VydmF0dXJlPSIwIiBzdHlsZT0iZmlsbDpub25lO3N0cm9rZTojQjJCMkIyO3N0cm9rZS13aWR0aDoyLjA2MDY7c3Ryb2tlLW1pdGVybGltaXQ6MzsiIGQ9IiAgICAgTTAsOTEuNzF2LTIuNjgiLz4mI3hhOwkJPC9nPiYjeGE7CQk8ZyBpZD0ic2hhcGUzOTEtOSIgdHJhbnNmb3JtPSJtYXRyaXgoMSwwLDAsLTEsNDkuMTA0NywxMzcuMzIxKSI+JiN4YTsJCQk8dGl0bGUgaWQ9InRpdGxlMTUwMDQxIj5wYXRoMjE4LTI8L3RpdGxlPiYjeGE7CQkJPHBhdGggaWQ9InBhdGgxNTAwNDMiIGlua3NjYXBlOmNvbm5lY3Rvci1jdXJ2YXR1cmU9IjAiIHN0eWxlPSJmaWxsOiMzOUI1NEE7IiBkPSJNNzMuNCw2MS4wNGMtNC4xMiw4LjI1LTEyLjksMjYuNDgtMTQuNTcsMjcuODggICAgIGMtMS42NiwxLjQtMTAuNDQsMi43OS0xNS40NiwyLjc5YzAsMCwwLjk0LTYuMTgtNC42MS02LjE4Yy01LjU0LDAtNC42LDYuMTgtNC42LDYuMThjLTUuMDIsMC0xMy44LTEuMzktMTUuNDYtMi43OSAgICAgYy0xLjY3LTEuNC0xMC40NS0xOS42My0xNC41OC0yNy44OEMwLDUyLjc5LDUuMjYsNTIuMTksNS4yNiw1Mi4xOWgxNC40M3Y2LjkyYy0yLjEzLDAuNzMtNi43MiwxLjYtNi43MiwxLjYgICAgIGMxLjQsMy4zOSw5LjUyLDE4Ljg5LDkuNTIsMTguODlsMC44Ni0yNi42OGgxNS40MWgxNS40MWwwLjg3LDI2LjY4YzAsMCw4LjEyLTE1LjUsOS41MS0xOC44OWMwLDAtNC41OS0wLjg3LTYuNzItMS42di02LjkyICAgICBoMTQuNDRDNzIuMjcsNTIuMTksNzcuNTMsNTIuNzksNzMuNCw2MS4wNHoiLz4mI3hhOwkJPC9nPiYjeGE7CQk8ZyBpZD0ic2hhcGUzOTItMTEiIHRyYW5zZm9ybT0ibWF0cml4KDEsMCwwLC0xLDgzLjI2NjMsMTI4LjA5MykiPiYjeGE7CQkJPHRpdGxlIGlkPSJ0aXRsZTE1MDA0NiI+cGF0aDIyMi03PC90aXRsZT4mI3hhOwkJCTxwYXRoIGlkPSJwYXRoMTUwMDQ4IiBpbmtzY2FwZTpjb25uZWN0b3ItY3VydmF0dXJlPSIwIiBzdHlsZT0iZmlsbDojRkZEQUEyOyIgZD0iTTkuMiw4MC41NmMwLDAtMC42NS0yLjM1LTQuNi0yLjM1ICAgICBTMCw4MC41NiwwLDgwLjU2djExLjE1aDkuMlY4MC41NnoiLz4mI3hhOwkJPC9nPiYjeGE7CQk8ZyBpZD0ic2hhcGUzOTMtMTMiIHRyYW5zZm9ybT0ibWF0cml4KDEsMCwwLC0xLDc1LjExOTgsMTA1LjIwOCkiPiYjeGE7CQkJPHRpdGxlIGlkPSJ0aXRsZTE1MDA1MSI+cGF0aDIyNi05PC90aXRsZT4mI3hhOwkJCTxwYXRoIGlkPSJwYXRoMTUwMDUzIiBpbmtzY2FwZTpjb25uZWN0b3ItY3VydmF0dXJlPSIwIiBzdHlsZT0iZmlsbDojRkZEQUEyOyIgZD0iTTEyLjc1LDg4LjI4Yy04LjgxLDMuNDMtMTIuNzUsMC0xMi43NSwwICAgICBzMC42OC0xMi4xMSwxLTE0LjU2YzAuNzUtNS44Miw4LjMxLTkuNjksMTEuNzUtOS42OXMxMSwzLjg3LDExLjc1LDkuNjljMC4zMSwyLjQ1LDEsMTQuNTYsMSwxNC41NlMyMS41Niw5MS43MSwxMi43NSw4OC4yOHoiLz4mI3hhOwkJPC9nPiYjeGE7CQk8ZyBpZD0ic2hhcGUzOTQtMTUiIHRyYW5zZm9ybT0ibWF0cml4KDEsMCwwLC0xLDcwLjc0NTEsMTEzLjE5MSkiPiYjeGE7CQkJPHRpdGxlIGlkPSJ0aXRsZTE1MDA1NiI+cGF0aDIzMC01PC90aXRsZT4mI3hhOwkJCTxwYXRoIGlkPSJwYXRoMTUwMDU4IiBpbmtzY2FwZTpjb25uZWN0b3ItY3VydmF0dXJlPSIwIiBzdHlsZT0iZmlsbDojRjdEMTk3OyIgZD0iTTQuNzgsODkuNWMwLDAtMi4yNCwyLjIxLTMuMDMsMC44OSAgICAgQzAsODcuNDUsMy4wNiw4Ni4zNSwzLjI3LDgzLjU3YzAuMTQtMS45OCwxLjQ4LTEuOTcsMi4wMS0wLjk4QzUuODEsODMuNTcsNS41OSw4OC44Myw0Ljc4LDg5LjV6Ii8+JiN4YTsJCTwvZz4mI3hhOwkJPGcgaWQ9InNoYXBlMzk1LTE3IiB0cmFuc2Zvcm09Im1hdHJpeCgxLDAsMCwtMSw5OS4xNzk1LDExMy4xOTEpIj4mI3hhOwkJCTx0aXRsZSBpZD0idGl0bGUxNTAwNjEiPnBhdGgyMzQtMDwvdGl0bGU+JiN4YTsJCQk8cGF0aCBpZD0icGF0aDE1MDA2MyIgaW5rc2NhcGU6Y29ubmVjdG9yLWN1cnZhdHVyZT0iMCIgc3R5bGU9ImZpbGw6I0Y3RDE5NzsiIGQ9Ik0xLjAzLDg5LjVjMCwwLDIuMjQsMi4yMSwzLjAzLDAuODkgICAgIGMxLjc1LTIuOTQtMS4zMS00LjA0LTEuNTEtNi44MmMtMC4xNS0xLjk4LTEuNDktMS45Ny0yLjAyLTAuOThDMCw4My41NywwLjIyLDg4LjgzLDEuMDMsODkuNXoiLz4mI3hhOwkJPC9nPiYjeGE7CQk8ZyBpZD0ic2hhcGUzOTYtMTkiIHRyYW5zZm9ybT0ibWF0cml4KDEsMCwwLC0xLDc0Ljg3NzcsMTE5LjE4OCkiPiYjeGE7CQkJPHRpdGxlIGlkPSJ0aXRsZTE1MDA2NiI+cGF0aDIzOC04PC90aXRsZT4mI3hhOwkJCTxwYXRoIGlkPSJwYXRoMTUwMDY4IiBpbmtzY2FwZTpjb25uZWN0b3ItY3VydmF0dXJlPSIwIiBkPSJNMTIuOTksODIuMzhjLTIuNjQsMC00LDAuNzQtNCwxLjg0czEuNjEsMC40NSw0LDAuNDVzNCwwLjY1LDQtMC40NSAgICAgUzE1LjYzLDgyLjM4LDEyLjk5LDgyLjM4eiBNMjUuMjcsOTEuNzFoLTAuNDljMCwwLDAuNjMtNS4xNC0xMS43OS01LjE0UzEuMjEsOTEuNzEsMS4yMSw5MS43MWgtMC41YzAsMC0wLjcxLTUuODEsMS42NC05LjEzICAgICBjMy4yNS00LjU3LDEwLjY0LTQuNTcsMTAuNjQtNC41N3M3LjM5LDAsMTAuNjQsNC41N0MyNS45OCw4NS45LDI1LjI3LDkxLjcxLDI1LjI3LDkxLjcxeiIvPiYjeGE7CQk8L2c+JiN4YTsJCTxnIGlkPSJzaGFwZTM5Ny0yMSIgdHJhbnNmb3JtPSJtYXRyaXgoMSwwLDAsLTEsNjcuMzUxMSw5My42MzgzKSI+JiN4YTsJCQk8dGl0bGUgaWQ9InRpdGxlMTUwMDcxIj5wYXRoMjQyLTE8L3RpdGxlPiYjeGE7CQkJPHBhdGggaWQ9InBhdGgxNTAwNzMiIGlua3NjYXBlOmNvbm5lY3Rvci1jdXJ2YXR1cmU9IjAiIGQ9Ik0zMi44LDY2LjE3YzAsMC0wLjUyLDMuNjcsMS4yNSw0LjdjMCwwLDMuMTMsMTAuNDIsMC40MywxMy4xNiAgICAgYy0yLjY5LDIuNzQtNi41NCw0LjQ5LTkuNzgsNC44NHMtNi44NCwxLTguNTMsMi44NGMwLDAsMC44NS0yLjM0LDEuOTktMi40OWMwLDAtNy41My0xLjM1LTEyLjM3LDAuM2MwLDAsMS4zNS0zLjY0LDQuMzktNC4yOSAgICAgYzAsMC02LjM5LTEuNS0xMC4xOC0wLjI1YzAsMCwzLjAxLTYuMTYsNy43Ny04LjI3YzAsMCwzLjYxLDEuNjMsNS4zNSwwLjkzYzAsMCwwLjM1LTEtMS4xOS0xLjY0YzAsMCw0LjI0LDAuMTUsNi4wOCwxLjA0ICAgICBjMCwwLDAuMTUtMC42OSwwLjA1LTEuMzRjMCwwLDQuODQsMS4wNyw3LjM0LDIuMzVjMCwwLDIuMDktMS41NiwxLjQtMi4yYzAsMCw1LjA0LTAuMiw2LjEsMC42OSAgICAgQzMyLjksNzYuNTQsMzIuMzIsNjcuNTEsMzIuOCw2Ni4xN3oiLz4mI3hhOwkJPC9nPiYjeGE7CQk8ZyBpZD0ic2hhcGUzOTgtMjMiIHRyYW5zZm9ybT0ibWF0cml4KDEsMCwwLC0xLDcyLjM5MDksMTA2LjQxMykiPiYjeGE7CQkJPHRpdGxlIGlkPSJ0aXRsZTE1MDA3NiI+cGF0aDI0NjwvdGl0bGU+JiN4YTsJCQk8cGF0aCBpZD0icGF0aDE1MDA3OCIgaW5rc2NhcGU6Y29ubmVjdG9yLWN1cnZhdHVyZT0iMCIgZD0iTTMuMTksNzguOTRjMCwwLDAuMTksNC4xMS0yLjAzLDUuMDVjMCwwLTEuMTYsNi4zMy0wLjU2LDcuNzIgICAgIGwyLjQ5LTIuMDdjMCwwLDAuNjktOC45NSwwLjM1LTEwLjdMMy4xOSw3OC45NHoiLz4mI3hhOwkJPC9nPiYjeGE7CQk8ZyBpZD0ic2hhcGUzOTktMjUiIHRyYW5zZm9ybT0ibWF0cml4KDEsMCwwLC0xLDgxLjU0MjEsMTM3LjMyMSkiPiYjeGE7CQkJPHRpdGxlIGlkPSJ0aXRsZTE1MDA4MSI+cGF0aDI1MDwvdGl0bGU+JiN4YTsJCQk8cGF0aCBpZD0icGF0aDE1MDA4MyIgaW5rc2NhcGU6Y29ubmVjdG9yLWN1cnZhdHVyZT0iMCIgc3R5bGU9ImZpbGw6I0YxRjFGMTsiIGQ9Ik02LjMzLDg3LjQzYzAsMC0zLjg1LTAuMDEtNS4wNS0yLjY4ICAgICBjMCwwLTEuMjgsNC44OSwwLjQ0LDYuOTZDMS43Miw5MS43MSwyLjE5LDg3Ljc3LDYuMzMsODcuNDN6Ii8+JiN4YTsJCTwvZz4mI3hhOwkJPGcgaWQ9InNoYXBlNDAwLTI3IiB0cmFuc2Zvcm09Im1hdHJpeCgxLDAsMCwtMSw4Ny44Njg0LDEzNy4zMjEpIj4mI3hhOwkJCTx0aXRsZSBpZD0idGl0bGUxNTAwODYiPnBhdGgyNTQ8L3RpdGxlPiYjeGE7CQkJPHBhdGggaWQ9InBhdGgxNTAwODgiIGlua3NjYXBlOmNvbm5lY3Rvci1jdXJ2YXR1cmU9IjAiIHN0eWxlPSJmaWxsOiNGMUYxRjE7IiBkPSJNMCw4Ny40M2MwLDAsMy44NS0wLjAxLDUuMDUtMi42OCAgICAgYzAsMCwxLjI4LDQuODktMC40NSw2Ljk2QzQuNiw5MS43MSw0LjEzLDg3Ljc3LDAsODcuNDN6Ii8+JiN4YTsJCTwvZz4mI3hhOwkJPGcgaWQ9InNoYXBlNDAxLTI5IiB0cmFuc2Zvcm09Im1hdHJpeCgxLDAsMCwtMSw2Ni4wMDM5LDE1NC43OTEpIj4mI3hhOwkJCTx0aXRsZSBpZD0idGl0bGUxNTAwOTEiPnBhdGgyOTg8L3RpdGxlPiYjeGE7CQkJPHBhdGggaWQ9InBhdGgxNTAwOTMiIGlua3NjYXBlOmNvbm5lY3Rvci1jdXJ2YXR1cmU9IjAiIHN0eWxlPSJmaWxsOiNDQkNCQ0I7IiBkPSJNNDMuMzMsOTAuOTJjLTAuNCwwLjY2LTEuNzMsMC43OS0xLjczLDAuNzkgICAgIEgyMS44NkgyLjEzYzAsMC0xLjMzLTAuMTMtMS43My0wLjc5QzAsOTAuMjUsMC44LDY5LjA5LDAuOCw2OS4wOWgyMS4wNmgyMS4wN0M0Mi45Myw2OS4wOSw0My43Myw5MC4yNSw0My4zMyw5MC45MnoiLz4mI3hhOwkJPC9nPiYjeGE7CQk8ZyBpZD0ic2hhcGU0MDItMzEiIHRyYW5zZm9ybT0ibWF0cml4KDEsMCwwLC0xLDY2LjAwMzksMTU1LjE4MikiPiYjeGE7CQkJPHRpdGxlIGlkPSJ0aXRsZTE1MDA5NiI+cGF0aDMwMjwvdGl0bGU+JiN4YTsJCQk8cGF0aCBpZD0icGF0aDE1MDA5OCIgaW5rc2NhcGU6Y29ubmVjdG9yLWN1cnZhdHVyZT0iMCIgc3R5bGU9ImZpbGw6I0U1RTVFNTsiIGQ9Ik00My4zMyw5MC45MmMtMC40LDAuNjYtMS43MywwLjc5LTEuNzMsMC43OSAgICAgSDIxLjg2SDIuMTNjMCwwLTEuMzMtMC4xMy0xLjczLTAuNzlDMCw5MC4yNSwwLjgsNjkuMDksMC44LDY5LjA5aDIxLjA2aDIxLjA3QzQyLjkzLDY5LjA5LDQzLjczLDkwLjI1LDQzLjMzLDkwLjkyeiIvPiYjeGE7CQk8L2c+JiN4YTsJCTxnIGlkPSJncm91cDQwMy0zMyIgdHJhbnNmb3JtPSJ0cmFuc2xhdGUoODMuODE5MSwtMTIuODg5KSI+JiN4YTsJCQk8dGl0bGUgaWQ9InRpdGxlMTUwMTAxIj5NaWNyb3NvZnQ8L3RpdGxlPiYjeGE7CQkJPGcgaWQ9InNoYXBlNDA0LTM0IiB0cmFuc2Zvcm09InRyYW5zbGF0ZSgwLC00LjI2NTMpIj4mI3hhOwkJCQk8dGl0bGUgaWQ9InRpdGxlMTUwMTAzIj5IVFRQIEFQSSBBcHA8L3RpdGxlPiYjeGE7CQkJCTxwYXRoIGlkPSJwYXRoMTUwMTA1IiBpbmtzY2FwZTpjb25uZWN0b3ItY3VydmF0dXJlPSIwIiBzdHlsZT0iZmlsbDojRjI1MDIyOyIgZD0iTTAsODcuODl2My44MmgzLjg0di0zLjgySDB6Ii8+JiN4YTsJCQk8L2c+JiN4YTsJCQk8ZyBpZD0ic2hhcGU0MDUtMzYiIHRyYW5zZm9ybT0idHJhbnNsYXRlKDQuMjYyOCwtNC4yNjUzKSI+JiN4YTsJCQkJPHRpdGxlIGlkPSJ0aXRsZTE1MDEwOCI+SFRUUCBBUEkgQXBwLjE0NjE8L3RpdGxlPiYjeGE7CQkJCTxwYXRoIGlkPSJwYXRoMTUwMTEwIiBpbmtzY2FwZTpjb25uZWN0b3ItY3VydmF0dXJlPSIwIiBzdHlsZT0iZmlsbDojN0ZCQTAwOyIgZD0iTTAsODcuODl2My44MmgzLjg0di0zLjgySDB6Ii8+JiN4YTsJCQk8L2c+JiN4YTsJCQk8ZyBpZD0ic2hhcGU0MDYtMzgiIHRyYW5zZm9ybT0idHJhbnNsYXRlKDQuMjYyOCkiPiYjeGE7CQkJCTx0aXRsZSBpZD0idGl0bGUxNTAxMTMiPkhUVFAgQVBJIEFwcC4xNDYyPC90aXRsZT4mI3hhOwkJCQk8cGF0aCBpZD0icGF0aDE1MDExNSIgaW5rc2NhcGU6Y29ubmVjdG9yLWN1cnZhdHVyZT0iMCIgc3R5bGU9ImZpbGw6I0ZGQjkwMDsiIGQ9Ik0wLDg3Ljg5djMuODJoMy44NHYtMy44MkgweiIvPiYjeGE7CQkJPC9nPiYjeGE7CQkJPGcgaWQ9InNoYXBlNDA3LTQwIj4mI3hhOwkJCQk8dGl0bGUgaWQ9InRpdGxlMTUwMTE4Ij5IVFRQIEFQSSBBcHAuMTQ2MzwvdGl0bGU+JiN4YTsJCQkJPHBhdGggaWQ9InBhdGgxNTAxMjAiIGlua3NjYXBlOmNvbm5lY3Rvci1jdXJ2YXR1cmU9IjAiIHN0eWxlPSJmaWxsOiMwMEE0RUY7IiBkPSJNMCw4Ny44OXYzLjgyaDMuODR2LTMuODJIMHoiLz4mI3hhOwkJCTwvZz4mI3hhOwkJPC9nPiYjeGE7CQk8ZyBpZD0ic2hhcGU0MDgtNDIiIHRyYW5zZm9ybT0idHJhbnNsYXRlKDc1LjExOTgsLTUxLjU2NzIpIj4mI3hhOwkJCTx0aXRsZSBpZD0idGl0bGUxNTAxMjQiPnBhdGg3OTU8L3RpdGxlPiYjeGE7CQkJPHBhdGggaWQ9InBhdGgxNTAxMjYiIGlua3NjYXBlOmNvbm5lY3Rvci1jdXJ2YXR1cmU9IjAiIGQ9Ik0xMy43Niw5MC40OWgtMi4wM2wwLjUxLDAuOTRsMC41LDAuMjd2MC4wMWgwLjAxbDAsMFY5MS43bDAuNS0wLjI3ICAgICBMMTMuNzYsOTAuNDl6IE0yNS41LDczLjY1bC0xLjc5LDAuMjNsLTAuMi0wLjA3bC0yLjQ0LTAuNDhoLTQuMDNsLTMuNzIsMC42aC0xLjE4bC0zLjcyLTAuNkg0LjRsLTIuNDMsMC40OGwtMC4xOSwwLjA3TDAsNzMuNjUgICAgIHYwLjcybDAuOTYsMC4xM2wwLjczLDMuMzhsMC42MywwLjYzbDEuOTIsMC40N2gzLjI1bDIuODQtMC42NGwxLjQ3LTIuMzVsMC41OS0wLjY3aDAuNjdsMC41OSwwLjY3bDEuNDcsMi4zNWwyLjg0LDAuNjRoMy4yNSAgICAgbDEuOTItMC40N2wwLjYzLTAuNjNsMC43My0zLjM4bDAuOTYtMC4xM0wyNS41LDczLjY1eiBNMTAuNzgsNzUuNDdsLTAuOCwyLjI2bC0yLjY3LDAuNThINC4xOGwtMS40Mi0wLjM3bC0wLjUyLTAuNDVsLTAuMzktMi41ICAgICBsMC40My0wLjUybDIuMDktMC40aDMuOTlsMi40NCwwLjM3TDEwLjc4LDc1LjQ3eiBNMjMuMjUsNzcuNDlsLTAuNTIsMC40NWwtMS40MiwwLjM2aC0zLjE0bC0yLjY2LTAuNTdsLTAuODEtMi4yNXYtMS4wNSAgICAgbDIuNDQtMC4zN2gzLjk4bDIuMDksMC40bDAuNDMsMC41MkwyMy4yNSw3Ny40OXoiLz4mI3hhOwkJPC9nPiYjeGE7CQk8ZyBpZD0ic2hhcGU0MDktNDQiIHRyYW5zZm9ybT0idHJhbnNsYXRlKDAuMDY3NjI4NywtNy4wMjU3MSkiPiYjeGE7CQkJPHRpdGxlIGlkPSJ0aXRsZTE1MDEyOSI+U2hlZXQuNDA5PC90aXRsZT4mI3hhOwkJCTxwYXRoIGlkPSJwYXRoMTUwMTMxIiBpbmtzY2FwZTpjb25uZWN0b3ItY3VydmF0dXJlPSIwIiBzdHlsZT0iZmlsbDojMDA5MjQ1OyIgZD0iTTI4LjY3LDkxLjcxYy0wLjI3LDAtMC41NC0wLjEzLTAuNzQtMC4zMyAgICAgTDAuNDEsNjMuODVjLTAuNDEtMC40LTAuNDEtMS4wOCwwLTEuNDljMC40LTAuNCwxLjA4LTAuNCwxLjQ4LDBsMjcuNTMsMjcuNTNjMC40LDAuNCwwLjQsMS4wOCwwLDEuNDkgICAgIEMyOS4xNSw5MS41MSwyOC44OCw5MS43MSwyOC42Nyw5MS43MXoiLz4mI3hhOwkJPC9nPiYjeGE7CQk8ZyBpZD0ic2hhcGU0MTAtNDYiIHRyYW5zZm9ybT0idHJhbnNsYXRlKDMuOTIyNDYsLTExLjAxNTgpIj4mI3hhOwkJCTx0aXRsZSBpZD0idGl0bGUxNTAxMzQiPlNoZWV0LjQxMDwvdGl0bGU+JiN4YTsJCQk8cGF0aCBpZD0icGF0aDE1MDEzNiIgaW5rc2NhcGU6Y29ubmVjdG9yLWN1cnZhdHVyZT0iMCIgc3R5bGU9ImZpbGw6IzAwOTI0NTsiIGQ9Ik0yOC43NCw5MS43MWMtMC4yNywwLTAuNTQtMC4xMy0wLjc0LTAuMzMgICAgIEwwLjQxLDYzLjkyQzAsNjMuNTEsMCw2Mi44NCwwLjQxLDYyLjQzYzAuNC0wLjQsMS4wOC0wLjQsMS40OCwwbDI3LjYsMjcuNTNjMC40LDAuNCwwLjQsMS4wOCwwLDEuNDggICAgIEMyOS4yOCw5MS42NSwyOS4wMSw5MS43MSwyOC43NCw5MS43MXoiLz4mI3hhOwkJPC9nPiYjeGE7CQk8ZyBpZD0ic2hhcGU0MTEtNDgiIHRyYW5zZm9ybT0idHJhbnNsYXRlKDAsLTM0LjY4NTgpIj4mI3hhOwkJCTx0aXRsZSBpZD0idGl0bGUxNTAxMzkiPlNoZWV0LjQxMTwvdGl0bGU+JiN4YTsJCQk8cGF0aCBpZD0icGF0aDE1MDE0MSIgaW5rc2NhcGU6Y29ubmVjdG9yLWN1cnZhdHVyZT0iMCIgc3R5bGU9ImZpbGw6IzAwOTI0NTsiIGQ9Ik0xLjE1LDkxLjcxYy0wLjI3LDAtMC41NC0wLjEzLTAuNzQtMC4zMyAgICAgQzAsOTAuOTcsMCw5MC4yOSwwLjQxLDg5Ljg5TDI4LDYyLjQzYzAuNC0wLjQsMS4wOC0wLjQsMS40OSwwYzAuNCwwLjQxLDAuNCwxLjA4LDAsMS40OUwxLjk2LDkxLjQ0ICAgICBDMS42OSw5MS43MSwxLjQyLDkxLjcxLDEuMTUsOTEuNzF6Ii8+JiN4YTsJCTwvZz4mI3hhOwkJPGcgaWQ9InNoYXBlNDEyLTUwIiB0cmFuc2Zvcm09InRyYW5zbGF0ZSgzLjkyMjQ2LC0zMC42MjgxKSI+JiN4YTsJCQk8dGl0bGUgaWQ9InRpdGxlMTUwMTQ0Ij5TaGVldC40MTI8L3RpdGxlPiYjeGE7CQkJPHBhdGggaWQ9InBhdGgxNTAxNDYiIGlua3NjYXBlOmNvbm5lY3Rvci1jdXJ2YXR1cmU9IjAiIHN0eWxlPSJmaWxsOiMwMDkyNDU7IiBkPSJNMS4xNSw5MS43MWMtMC4yNywwLTAuNTQtMC4xMy0wLjc0LTAuMzMgICAgIEMwLDkwLjk3LDAsOTAuMjksMC40MSw4OS44OWwyNy41Mi0yNy41M2MwLjQxLTAuNCwxLjA4LTAuNCwxLjQ5LDBjMC40LDAuNDEsMC40LDEuMDksMCwxLjQ5TDEuODksOTEuMzggICAgIEMxLjY5LDkxLjUxLDEuNDIsOTEuNzEsMS4xNSw5MS43MXoiLz4mI3hhOwkJPC9nPiYjeGE7CQk8ZyBpZD0ic2hhcGU0MTMtNTIiIHRyYW5zZm9ybT0idHJhbnNsYXRlKDI3LjcyNzgsLTYyLjE0MzEpIj4mI3hhOwkJCTx0aXRsZSBpZD0idGl0bGUxNTAxNDkiPlNoZWV0LjQxMzwvdGl0bGU+JiN4YTsJCQk8cGF0aCBpZD0icGF0aDE1MDE1MSIgaW5rc2NhcGU6Y29ubmVjdG9yLWN1cnZhdHVyZT0iMCIgc3R5bGU9ImZpbGw6IzAwOTI0NTsiIGQ9Ik00Ljk0LDkxLjcxSDEuMDFDMC40MSw5MS43MSwwLDkxLjI0LDAsOTAuNyAgICAgYzAtMC42MSwwLjQ3LTEuMDEsMS4wMS0xLjAxaDMuOTNjMC42MSwwLDEuMDEsMC40NywxLjAxLDEuMDFDNS45NSw5MS4xNyw1LjQ4LDkxLjcxLDQuOTQsOTEuNzF6Ii8+JiN4YTsJCTwvZz4mI3hhOwkJPGcgaWQ9InNoYXBlNDE0LTU0IiB0cmFuc2Zvcm09InRyYW5zbGF0ZSgzMS42NTAyLC01OC4yODgyKSI+JiN4YTsJCQk8dGl0bGUgaWQ9InRpdGxlMTUwMTU0Ij5TaGVldC40MTQ8L3RpdGxlPiYjeGE7CQkJPHBhdGggaWQ9InBhdGgxNTAxNTYiIGlua3NjYXBlOmNvbm5lY3Rvci1jdXJ2YXR1cmU9IjAiIHN0eWxlPSJmaWxsOiMwMDkyNDU7IiBkPSJNMS4wMSw5MS43MUMwLjQxLDkxLjcxLDAsOTEuMjQsMCw5MC43di0zLjkyICAgICBjMC0wLjYxLDAuNDctMS4wMiwxLjAxLTEuMDJjMC42MSwwLDEuMDIsMC40OCwxLjAyLDEuMDJ2My45MkMyLjAzLDkxLjI0LDEuNTYsOTEuNzEsMS4wMSw5MS43MXoiLz4mI3hhOwkJPC9nPiYjeGE7CQk8ZyBpZD0ic2hhcGU0MTUtNTYiIHRyYW5zZm9ybT0idHJhbnNsYXRlKDMxLjUxNSwtNjIuMTQzMSkiPiYjeGE7CQkJPHRpdGxlIGlkPSJ0aXRsZTE1MDE1OSI+U2hlZXQuNDE1PC90aXRsZT4mI3hhOwkJCTxwYXRoIGlkPSJwYXRoMTUwMTYxIiBpbmtzY2FwZTpjb25uZWN0b3ItY3VydmF0dXJlPSIwIiBzdHlsZT0iZmlsbDojMDA5MjQ1OyIgZD0iTTEuMTUsOTEuNzFjLTAuMjcsMC0wLjU0LTAuMTMtMC43NC0wLjMzICAgICBDMCw5MC45NywwLDkwLjI5LDAuNDEsODkuODlMNi4yOSw4NGMwLjQxLTAuNCwxLjA4LTAuNCwxLjQ5LDBjMC40LDAuNDEsMC40LDEuMDksMCwxLjQ5bC01Ljg5LDUuODkgICAgIEMxLjY5LDkxLjUxLDEuNDIsOTEuNzEsMS4xNSw5MS43MXoiLz4mI3hhOwkJPC9nPiYjeGE7CQk8ZyBpZD0ic2hhcGU0MTYtNTgiIHRyYW5zZm9ybT0icm90YXRlKC00NSwtMzguNDU3ODUsMS4zNjk0NjMpIj4mI3hhOwkJCTx0aXRsZSBpZD0idGl0bGUxNTAxNjQiPlNoZWV0LjQxNjwvdGl0bGU+JiN4YTsJCQk8Y2lyY2xlIGlkPSJlbGxpcHNlMTUwMTY2IiBzdHlsZT0iZmlsbDojQzlEQTJBOyIgY3g9IjUuNjgiIGN5PSI4Ni4wMyIgcj0iNS42OCIvPiYjeGE7CQk8L2c+JiN4YTsJCTxnIGlkPSJzaGFwZTQxNy02MCIgdHJhbnNmb3JtPSJyb3RhdGUoLTQ0Ljk5NTksLTQwLjIwNDM3MywxNC4yOTA0NDMpIj4mI3hhOwkJCTx0aXRsZSBpZD0idGl0bGUxNTAxNjkiPlNoZWV0LjQxNzwvdGl0bGU+JiN4YTsJCQkmI3hhOwkJCQk8cmVjdCBpZD0icmVjdDE1MDE3MSIgeD0iMCIgeT0iOTAuNSIgdHJhbnNmb3JtPSJtYXRyaXgoLTEgMi4zODc2NDVlLTA2IC0yLjM4NzY0NWUtMDYgLTEgMjguNjA5NSAxODIuMjEyNCkiIHN0eWxlPSJmaWxsOiMwMDkyNDU7IiB3aWR0aD0iMjguNjEiIGhlaWdodD0iMS4yMiIvPiYjeGE7CQk8L2c+JiN4YTsJCTxnIGlkPSJzaGFwZTQxOC02MiIgdHJhbnNmb3JtPSJ0cmFuc2xhdGUoMjkuNzU2NiwtNjIuNDgxMikiPiYjeGE7CQkJPHRpdGxlIGlkPSJ0aXRsZTE1MDE3NCI+U2hlZXQuNDE4PC90aXRsZT4mI3hhOwkJCTxwYXRoIGlkPSJwYXRoMTUwMTc2IiBpbmtzY2FwZTpjb25uZWN0b3ItY3VydmF0dXJlPSIwIiBzdHlsZT0iZmlsbDojMjJCNTczOyIgZD0iTTAsNzcuMzFsNy43MS03LjcxbDE0LjM0LDEyLjExbC05Ljk0LDEwICAgICBMMCw3Ny4zMXoiLz4mI3hhOwkJPC9nPiYjeGE7CQk8ZyBpZD0ic2hhcGU0MTktNjQiIHRyYW5zZm9ybT0idHJhbnNsYXRlKDM3LjYwMTUsLTUxLjk5ODgpIj4mI3hhOwkJCTx0aXRsZSBpZD0idGl0bGUxNTAxNzkiPlNoZWV0LjQxOTwvdGl0bGU+JiN4YTsJCQk8cGF0aCBpZD0icGF0aDE1MDE4MSIgaW5rc2NhcGU6Y29ubmVjdG9yLWN1cnZhdHVyZT0iMCIgc3R5bGU9ImZpbGw6IzIyQjU3MzsiIGQ9Ik0yNC42OCw3MS41Nkw0LjQ2LDkxLjcxTDAsNzQuOTRsNy44NC03LjkxICAgICBMMjQuNjgsNzEuNTZ6Ii8+JiN4YTsJCTwvZz4mI3hhOwkJPGcgaWQ9InNoYXBlNDIwLTY2IiB0cmFuc2Zvcm09InRyYW5zbGF0ZSgxNC44NzgzLC02LjY4NzU3KSI+JiN4YTsJCQk8dGl0bGUgaWQ9InRpdGxlMTUwMTg0Ij5TaGVldC40MjA8L3RpdGxlPiYjeGE7CQkJPHBhdGggaWQ9InBhdGgxNTAxODYiIGlua3NjYXBlOmNvbm5lY3Rvci1jdXJ2YXR1cmU9IjAiIHN0eWxlPSJmaWxsOiMyMkI1NzM7IiBkPSJNMjIuMjUsODYuMTdINS41NUMyLjUsODYuMTcsMCw4OC42NywwLDkxLjcxICAgICBoMjcuODZDMjcuODYsODguNzQsMjUuMzYsODYuMTcsMjIuMjUsODYuMTd6Ii8+JiN4YTsJCTwvZz4mI3hhOwkJPGcgaWQ9InNoYXBlNDIxLTY4IiB0cmFuc2Zvcm09InRyYW5zbGF0ZSgxMy44NjUyKSI+JiN4YTsJCQk8dGl0bGUgaWQ9InRpdGxlMTUwMTg5Ij5TaGVldC40MjE8L3RpdGxlPiYjeGE7CQkJPHJlY3QgaWQ9InJlY3QxNTAxOTEiIHg9IjAiIHk9Ijg0LjIxIiBzdHlsZT0iZmlsbDojMDBBRUVGOyIgd2lkdGg9IjEyMC42NCIgaGVpZ2h0PSI3LjUxIi8+JiN4YTsJCTwvZz4mI3hhOwk8L2c+JiN4YTs8L2c+JiN4YTs8L3N2Zz4=;" parent="1" vertex="1">
          <mxGeometry x="50" y="880" width="94" height="63.13" as="geometry" />
        </mxCell>
        <mxCell id="oPtmLi2s78sQVJzXojm6-67" value="" style="shape=image;html=1;verticalAlign=top;verticalLabelPosition=bottom;labelBackgroundColor=#ffffff;imageAspect=0;aspect=fixed;image=https://cdn3.iconfinder.com/data/icons/snowish/128x128/apps/file-manager.png" vertex="1" parent="1">
          <mxGeometry x="569.5" y="492" width="66" height="66" as="geometry" />
        </mxCell>
        <mxCell id="oPtmLi2s78sQVJzXojm6-68" value="" style="image;aspect=fixed;html=1;points=[];align=center;fontSize=12;image=img/lib/azure2/ai_machine_learning/Azure_Object_Understanding.svg;" vertex="1" parent="1">
          <mxGeometry x="532" y="585" width="48" height="48" as="geometry" />
        </mxCell>
        <mxCell id="oPtmLi2s78sQVJzXojm6-116" style="edgeStyle=orthogonalEdgeStyle;rounded=0;orthogonalLoop=1;jettySize=auto;html=1;" edge="1" parent="1" source="oPtmLi2s78sQVJzXojm6-70" target="oPtmLi2s78sQVJzXojm6-67">
          <mxGeometry relative="1" as="geometry">
            <mxPoint x="560" y="510" as="targetPoint" />
            <Array as="points">
              <mxPoint x="442" y="510" />
            </Array>
          </mxGeometry>
        </mxCell>
        <mxCell id="oPtmLi2s78sQVJzXojm6-117" style="edgeStyle=orthogonalEdgeStyle;rounded=0;orthogonalLoop=1;jettySize=auto;html=1;" edge="1" parent="1" source="oPtmLi2s78sQVJzXojm6-70" target="oPtmLi2s78sQVJzXojm6-71">
          <mxGeometry relative="1" as="geometry" />
        </mxCell>
        <mxCell id="oPtmLi2s78sQVJzXojm6-70" value="" style="shape=image;html=1;verticalAlign=top;verticalLabelPosition=bottom;labelBackgroundColor=#ffffff;imageAspect=0;aspect=fixed;image=https://cdn1.iconfinder.com/data/icons/seo-and-web-development-6/32/development_laptop_setting_gear_cogwheel-128.png" vertex="1" parent="1">
          <mxGeometry x="413" y="434" width="58" height="58" as="geometry" />
        </mxCell>
        <mxCell id="oPtmLi2s78sQVJzXojm6-71" value="" style="shape=image;html=1;verticalAlign=top;verticalLabelPosition=bottom;labelBackgroundColor=#ffffff;imageAspect=0;aspect=fixed;image=https://cdn1.iconfinder.com/data/icons/seo-and-web-development-6/32/development_laptop_setting_gear_cogwheel-128.png" vertex="1" parent="1">
          <mxGeometry x="523.13" y="433" width="58" height="58" as="geometry" />
        </mxCell>
        <mxCell id="oPtmLi2s78sQVJzXojm6-72" value="" style="shape=image;html=1;verticalAlign=top;verticalLabelPosition=bottom;labelBackgroundColor=#ffffff;imageAspect=0;aspect=fixed;image=https://cdn2.iconfinder.com/data/icons/boxicons-logos/24/bxl-unity-128.png" vertex="1" parent="1">
          <mxGeometry x="552" y="426" width="38" height="38" as="geometry" />
        </mxCell>
        <mxCell id="oPtmLi2s78sQVJzXojm6-63" value="" style="shape=image;html=1;verticalAlign=top;verticalLabelPosition=bottom;labelBackgroundColor=#ffffff;imageAspect=0;aspect=fixed;image=https://cdn2.iconfinder.com/data/icons/boxicons-logos/24/bxl-unity-128.png" vertex="1" parent="1">
          <mxGeometry x="540" y="695.63" width="24.25" height="24.25" as="geometry" />
        </mxCell>
        <mxCell id="oPtmLi2s78sQVJzXojm6-73" value="" style="pointerEvents=1;shadow=0;dashed=0;html=1;strokeColor=none;fillColor=#4495D1;labelPosition=center;verticalLabelPosition=bottom;verticalAlign=top;align=center;outlineConnect=0;shape=mxgraph.veeam.controller;" vertex="1" parent="1">
          <mxGeometry x="426.2" y="636" width="44.8" height="44.8" as="geometry" />
        </mxCell>
        <mxCell id="oPtmLi2s78sQVJzXojm6-74" value="" style="verticalLabelPosition=bottom;html=1;verticalAlign=top;align=center;strokeColor=none;fillColor=#00BEF2;shape=mxgraph.azure.mobile;pointerEvents=1;" vertex="1" parent="1">
          <mxGeometry x="535" y="677.75" width="35" height="60" as="geometry" />
        </mxCell>
        <mxCell id="oPtmLi2s78sQVJzXojm6-76" value="" style="shadow=0;dashed=0;html=1;strokeColor=none;fillColor=#4495D1;labelPosition=center;verticalLabelPosition=bottom;verticalAlign=top;align=center;outlineConnect=0;shape=mxgraph.veeam.video_file;" vertex="1" parent="1">
          <mxGeometry x="727.55" y="585.7" width="36.8" height="50.8" as="geometry" />
        </mxCell>
        <mxCell id="oPtmLi2s78sQVJzXojm6-77" value="" style="shadow=0;dashed=0;html=1;strokeColor=none;fillColor=#4495D1;labelPosition=center;verticalLabelPosition=bottom;verticalAlign=top;align=center;outlineConnect=0;shape=mxgraph.veeam.audio_file;" vertex="1" parent="1">
          <mxGeometry x="727.55" y="508.6" width="36.8" height="50.8" as="geometry" />
        </mxCell>
        <mxCell id="oPtmLi2s78sQVJzXojm6-80" value="" style="shadow=0;dashed=0;html=1;strokeColor=none;fillColor=#4495D1;labelPosition=center;verticalLabelPosition=bottom;verticalAlign=top;align=center;outlineConnect=0;shape=mxgraph.veeam.data_file;" vertex="1" parent="1">
          <mxGeometry x="727.5500000000001" y="663" width="47.2" height="60.8" as="geometry" />
        </mxCell>
        <mxCell id="oPtmLi2s78sQVJzXojm6-122" style="edgeStyle=orthogonalEdgeStyle;rounded=0;orthogonalLoop=1;jettySize=auto;html=1;" edge="1" parent="1" source="oPtmLi2s78sQVJzXojm6-82" target="oPtmLi2s78sQVJzXojm6-76">
          <mxGeometry relative="1" as="geometry" />
        </mxCell>
        <mxCell id="oPtmLi2s78sQVJzXojm6-123" style="edgeStyle=orthogonalEdgeStyle;rounded=0;orthogonalLoop=1;jettySize=auto;html=1;" edge="1" parent="1" source="oPtmLi2s78sQVJzXojm6-82" target="oPtmLi2s78sQVJzXojm6-80">
          <mxGeometry relative="1" as="geometry">
            <Array as="points">
              <mxPoint x="700" y="610" />
              <mxPoint x="700" y="690" />
            </Array>
          </mxGeometry>
        </mxCell>
        <mxCell id="oPtmLi2s78sQVJzXojm6-124" style="edgeStyle=orthogonalEdgeStyle;rounded=0;orthogonalLoop=1;jettySize=auto;html=1;" edge="1" parent="1" source="oPtmLi2s78sQVJzXojm6-82" target="oPtmLi2s78sQVJzXojm6-77">
          <mxGeometry relative="1" as="geometry">
            <Array as="points">
              <mxPoint x="700" y="610" />
              <mxPoint x="700" y="534" />
            </Array>
          </mxGeometry>
        </mxCell>
        <mxCell id="oPtmLi2s78sQVJzXojm6-82" value="" style="sketch=0;aspect=fixed;pointerEvents=1;shadow=0;dashed=0;html=1;strokeColor=none;labelPosition=center;verticalLabelPosition=bottom;verticalAlign=top;align=center;fillColor=#00188D;shape=mxgraph.mscae.enterprise.code_file" vertex="1" parent="1">
          <mxGeometry x="630" y="585.25" width="49" height="50" as="geometry" />
        </mxCell>
        <mxCell id="oPtmLi2s78sQVJzXojm6-83" value="" style="image;aspect=fixed;html=1;points=[];align=center;fontSize=12;image=img/lib/azure2/general/Image.svg;" vertex="1" parent="1">
          <mxGeometry x="1028" y="492.5" width="64" height="44" as="geometry" />
        </mxCell>
        <mxCell id="oPtmLi2s78sQVJzXojm6-84" value="" style="image;aspect=fixed;html=1;points=[];align=center;fontSize=12;image=img/lib/azure2/azure_stack/User_Subscriptions.svg;" vertex="1" parent="1">
          <mxGeometry x="1700" y="464" width="68" height="66" as="geometry" />
        </mxCell>
        <mxCell id="oPtmLi2s78sQVJzXojm6-136" style="edgeStyle=orthogonalEdgeStyle;rounded=0;orthogonalLoop=1;jettySize=auto;html=1;entryX=0.003;entryY=0.539;entryDx=0;entryDy=0;entryPerimeter=0;" edge="1" parent="1" source="oPtmLi2s78sQVJzXojm6-88" target="oPtmLi2s78sQVJzXojm6-84">
          <mxGeometry relative="1" as="geometry">
            <Array as="points">
              <mxPoint x="1670" y="575" />
              <mxPoint x="1670" y="500" />
            </Array>
          </mxGeometry>
        </mxCell>
        <mxCell id="oPtmLi2s78sQVJzXojm6-88" value="" style="shape=mxgraph.gcp2.doubleRect;strokeColor=#dddddd;shadow=1;strokeWidth=1;" vertex="1" parent="1">
          <mxGeometry x="1530" y="541" width="108" height="68" as="geometry" />
        </mxCell>
        <mxCell id="oPtmLi2s78sQVJzXojm6-89" value="&lt;font color=&quot;#000000&quot;&gt;Name&lt;/font&gt;&lt;br&gt;Firebase" style="sketch=0;dashed=0;connectable=0;html=1;fillColor=#5184F3;strokeColor=none;shape=mxgraph.gcp2.firebase;part=1;labelPosition=right;verticalLabelPosition=middle;align=left;verticalAlign=middle;spacingLeft=5;fontColor=#999999;fontSize=12;" vertex="1" parent="oPtmLi2s78sQVJzXojm6-88">
          <mxGeometry width="32.4" height="45" relative="1" as="geometry">
            <mxPoint x="5" y="7" as="offset" />
          </mxGeometry>
        </mxCell>
        <mxCell id="oPtmLi2s78sQVJzXojm6-86" value="" style="strokeColor=#dddddd;shadow=1;strokeWidth=1;rounded=1;absoluteArcSize=1;arcSize=2;" vertex="1" parent="oPtmLi2s78sQVJzXojm6-88">
          <mxGeometry y="0.5" width="100" height="60" as="geometry" />
        </mxCell>
        <mxCell id="oPtmLi2s78sQVJzXojm6-87" value="Firebase" style="sketch=0;dashed=0;connectable=0;html=1;fillColor=#5184F3;strokeColor=none;shape=mxgraph.gcp2.firebase;part=1;labelPosition=right;verticalLabelPosition=middle;align=left;verticalAlign=middle;spacingLeft=5;fontColor=#999999;fontSize=12;" vertex="1" parent="oPtmLi2s78sQVJzXojm6-86">
          <mxGeometry width="32.4" height="45" relative="1" as="geometry">
            <mxPoint x="5" y="7" as="offset" />
          </mxGeometry>
        </mxCell>
        <mxCell id="oPtmLi2s78sQVJzXojm6-147" style="edgeStyle=orthogonalEdgeStyle;rounded=0;orthogonalLoop=1;jettySize=auto;html=1;entryX=0.5;entryY=1;entryDx=0;entryDy=0;" edge="1" parent="1" source="oPtmLi2s78sQVJzXojm6-100" target="wkqdaRXwN99UUoOsyKMl-37">
          <mxGeometry relative="1" as="geometry" />
        </mxCell>
        <mxCell id="oPtmLi2s78sQVJzXojm6-100" value="" style="image;aspect=fixed;html=1;points=[];align=center;fontSize=12;image=img/lib/azure2/compute/Virtual_Machine.svg;" vertex="1" parent="1">
          <mxGeometry x="218.54999999999995" y="875" width="69" height="64" as="geometry" />
        </mxCell>
        <mxCell id="oPtmLi2s78sQVJzXojm6-142" style="edgeStyle=orthogonalEdgeStyle;rounded=0;orthogonalLoop=1;jettySize=auto;html=1;entryX=0.026;entryY=0.385;entryDx=0;entryDy=0;entryPerimeter=0;" edge="1" parent="1" source="oPtmLi2s78sQVJzXojm6-101" target="oPtmLi2s78sQVJzXojm6-102">
          <mxGeometry relative="1" as="geometry" />
        </mxCell>
        <mxCell id="oPtmLi2s78sQVJzXojm6-101" value="" style="image;aspect=fixed;html=1;points=[];align=center;fontSize=12;image=img/lib/azure2/general/Production_Ready_Database.svg;" vertex="1" parent="1">
          <mxGeometry x="1703" y="616" width="48" height="64" as="geometry" />
        </mxCell>
        <mxCell id="oPtmLi2s78sQVJzXojm6-102" value="" style="image;aspect=fixed;html=1;points=[];align=center;fontSize=12;image=img/lib/azure2/general/Files.svg;" vertex="1" parent="1">
          <mxGeometry x="1820.5" y="620" width="67.11" height="73.4" as="geometry" />
        </mxCell>
        <mxCell id="oPtmLi2s78sQVJzXojm6-103" value="" style="image;aspect=fixed;html=1;points=[];align=center;fontSize=12;image=img/lib/azure2/general/Mobile.svg;" vertex="1" parent="1">
          <mxGeometry x="233.05" y="521.5" width="40" height="67" as="geometry" />
        </mxCell>
        <mxCell id="oPtmLi2s78sQVJzXojm6-104" value="" style="image;aspect=fixed;html=1;points=[];align=center;fontSize=12;image=img/lib/azure2/identity/Verifiable_Credentials.svg;" vertex="1" parent="1">
          <mxGeometry x="1032" y="581.5" width="77" height="77" as="geometry" />
        </mxCell>
        <mxCell id="oPtmLi2s78sQVJzXojm6-105" value="Scene manager" style="text;strokeColor=none;align=center;fillColor=none;html=1;verticalAlign=middle;whiteSpace=wrap;rounded=0;" vertex="1" parent="1">
          <mxGeometry x="412" y="399" width="60" height="40" as="geometry" />
        </mxCell>
        <mxCell id="oPtmLi2s78sQVJzXojm6-106" value="Unity scene manager" style="text;strokeColor=none;align=center;fillColor=none;html=1;verticalAlign=middle;whiteSpace=wrap;rounded=0;" vertex="1" parent="1">
          <mxGeometry x="522.28" y="389" width="67.45" height="50" as="geometry" />
        </mxCell>
        <mxCell id="oPtmLi2s78sQVJzXojm6-108" value="Game manager" style="text;strokeColor=none;align=center;fillColor=none;html=1;verticalAlign=middle;whiteSpace=wrap;rounded=0;" vertex="1" parent="1">
          <mxGeometry x="625.5" y="510" width="60" height="30" as="geometry" />
        </mxCell>
        <mxCell id="oPtmLi2s78sQVJzXojm6-109" value="Unity Objects" style="text;strokeColor=none;align=center;fillColor=none;html=1;verticalAlign=middle;whiteSpace=wrap;rounded=0;" vertex="1" parent="1">
          <mxGeometry x="526" y="635.25" width="60" height="30" as="geometry" />
        </mxCell>
        <mxCell id="oPtmLi2s78sQVJzXojm6-111" value="Components" style="text;strokeColor=none;align=center;fillColor=none;html=1;verticalAlign=middle;whiteSpace=wrap;rounded=0;" vertex="1" parent="1">
          <mxGeometry x="622.5" y="636" width="60" height="30" as="geometry" />
        </mxCell>
        <mxCell id="oPtmLi2s78sQVJzXojm6-112" value="Unity UI" style="text;strokeColor=none;align=center;fillColor=none;html=1;verticalAlign=middle;whiteSpace=wrap;rounded=0;" vertex="1" parent="1">
          <mxGeometry x="522.13" y="733" width="60" height="30" as="geometry" />
        </mxCell>
        <mxCell id="oPtmLi2s78sQVJzXojm6-113" value="Controller" style="text;strokeColor=none;align=center;fillColor=none;html=1;verticalAlign=middle;whiteSpace=wrap;rounded=0;" vertex="1" parent="1">
          <mxGeometry x="418.6" y="680.8" width="60" height="30" as="geometry" />
        </mxCell>
        <mxCell id="oPtmLi2s78sQVJzXojm6-118" value="Audio source" style="text;strokeColor=none;align=center;fillColor=none;html=1;verticalAlign=middle;whiteSpace=wrap;rounded=0;" vertex="1" parent="1">
          <mxGeometry x="776.35" y="521" width="60" height="30" as="geometry" />
        </mxCell>
        <mxCell id="oPtmLi2s78sQVJzXojm6-120" value="Video Player" style="text;strokeColor=none;align=center;fillColor=none;html=1;verticalAlign=middle;whiteSpace=wrap;rounded=0;" vertex="1" parent="1">
          <mxGeometry x="776" y="600" width="60" height="30" as="geometry" />
        </mxCell>
        <mxCell id="oPtmLi2s78sQVJzXojm6-121" value="Physics Components" style="text;strokeColor=none;align=center;fillColor=none;html=1;verticalAlign=middle;whiteSpace=wrap;rounded=0;" vertex="1" parent="1">
          <mxGeometry x="774.75" y="677.75" width="60" height="30" as="geometry" />
        </mxCell>
        <mxCell id="wkqdaRXwN99UUoOsyKMl-26" value="&lt;h3&gt;&lt;b&gt;Game Engine&lt;/b&gt;&lt;/h3&gt;" style="text;html=1;align=center;verticalAlign=middle;resizable=0;points=[];autosize=1;strokeColor=none;fillColor=none;" parent="1" vertex="1">
          <mxGeometry x="565.74" y="763" width="110" height="60" as="geometry" />
        </mxCell>
        <mxCell id="wkqdaRXwN99UUoOsyKMl-31" value="&lt;h3&gt;&lt;b&gt;Website Interface&lt;/b&gt;&lt;/h3&gt;" style="text;html=1;align=center;verticalAlign=middle;resizable=0;points=[];autosize=1;strokeColor=none;fillColor=none;" parent="1" vertex="1">
          <mxGeometry x="186" y="932.27" width="140" height="60" as="geometry" />
        </mxCell>
        <mxCell id="wkqdaRXwN99UUoOsyKMl-25" value="&lt;h3&gt;&lt;b&gt;App Interface&lt;/b&gt;&lt;/h3&gt;" style="text;html=1;align=center;verticalAlign=middle;resizable=0;points=[];autosize=1;strokeColor=none;fillColor=none;" parent="1" vertex="1">
          <mxGeometry x="198.05" y="581.0999999999999" width="110" height="60" as="geometry" />
        </mxCell>
        <mxCell id="wkqdaRXwN99UUoOsyKMl-24" value="&lt;h3&gt;&lt;b&gt;Child&lt;/b&gt;&lt;/h3&gt;" style="text;html=1;align=center;verticalAlign=middle;resizable=0;points=[];autosize=1;strokeColor=none;fillColor=none;" parent="1" vertex="1">
          <mxGeometry x="70" y="580" width="60" height="60" as="geometry" />
        </mxCell>
        <mxCell id="wkqdaRXwN99UUoOsyKMl-30" value="&lt;h3&gt;&lt;b&gt;Parent&lt;/b&gt;&lt;/h3&gt;" style="text;html=1;align=center;verticalAlign=middle;resizable=0;points=[];autosize=1;strokeColor=none;fillColor=none;" parent="1" vertex="1">
          <mxGeometry x="70" y="931.5" width="70" height="60" as="geometry" />
        </mxCell>
        <mxCell id="oPtmLi2s78sQVJzXojm6-125" value="" style="rounded=0;orthogonalLoop=1;jettySize=auto;html=1;strokeColor=#808080;elbow=vertical;startArrow=classic;startFill=1;exitX=1.028;exitY=0.508;exitDx=0;exitDy=0;exitPerimeter=0;" edge="1" parent="1" source="oPtmLi2s78sQVJzXojm6-103">
          <mxGeometry relative="1" as="geometry">
            <mxPoint x="274" y="556" as="sourcePoint" />
            <mxPoint x="380" y="556" as="targetPoint" />
          </mxGeometry>
        </mxCell>
        <mxCell id="oPtmLi2s78sQVJzXojm6-126" value="Assets" style="text;strokeColor=none;align=center;fillColor=none;html=1;verticalAlign=middle;whiteSpace=wrap;rounded=0;" vertex="1" parent="1">
          <mxGeometry x="1032" y="540" width="60" height="30" as="geometry" />
        </mxCell>
        <mxCell id="oPtmLi2s78sQVJzXojm6-127" value="user information" style="text;strokeColor=none;align=center;fillColor=none;html=1;verticalAlign=middle;whiteSpace=wrap;rounded=0;" vertex="1" parent="1">
          <mxGeometry x="1030" y="658.5" width="60" height="30" as="geometry" />
        </mxCell>
        <mxCell id="wkqdaRXwN99UUoOsyKMl-27" value="&lt;h3&gt;&lt;b&gt;Local Storage&lt;/b&gt;&lt;/h3&gt;" style="text;html=1;align=center;verticalAlign=middle;resizable=0;points=[];autosize=1;strokeColor=none;fillColor=none;" parent="1" vertex="1">
          <mxGeometry x="1002" y="710.8" width="120" height="60" as="geometry" />
        </mxCell>
        <mxCell id="xwrEd6JPqay10O_X7JMk-4" value="&lt;b style=&quot;&quot;&gt;&lt;font style=&quot;font-size: 12px;&quot;&gt;Send Data&lt;/font&gt;&lt;br&gt;&lt;/b&gt;" style="text;html=1;align=center;verticalAlign=middle;resizable=0;points=[];autosize=1;strokeColor=none;fillColor=none;" parent="1" vertex="1">
          <mxGeometry x="1273" y="550" width="80" height="30" as="geometry" />
        </mxCell>
        <mxCell id="wkqdaRXwN99UUoOsyKMl-36" value="&lt;b style=&quot;&quot;&gt;&lt;font style=&quot;font-size: 12px;&quot;&gt;Retrieve Data&lt;/font&gt;&lt;br&gt;&lt;/b&gt;" style="text;html=1;align=center;verticalAlign=middle;resizable=0;points=[];autosize=1;strokeColor=none;fillColor=none;" parent="1" vertex="1">
          <mxGeometry x="1260" y="575" width="100" height="30" as="geometry" />
        </mxCell>
        <mxCell id="wkqdaRXwN99UUoOsyKMl-39" value="&lt;h3&gt;&lt;b&gt;Internet&lt;/b&gt;&lt;/h3&gt;" style="text;html=1;align=center;verticalAlign=middle;resizable=0;points=[];autosize=1;strokeColor=none;fillColor=none;" parent="1" vertex="1">
          <mxGeometry x="1200" y="511.5" width="80" height="60" as="geometry" />
        </mxCell>
        <mxCell id="wkqdaRXwN99UUoOsyKMl-28" value="&lt;h3&gt;&lt;b&gt;API&lt;/b&gt;&lt;/h3&gt;" style="text;html=1;align=center;verticalAlign=middle;resizable=0;points=[];autosize=1;strokeColor=none;fillColor=none;" parent="1" vertex="1">
          <mxGeometry x="1362" y="585.7" width="50" height="60" as="geometry" />
        </mxCell>
        <mxCell id="oPtmLi2s78sQVJzXojm6-135" value="firebase" style="text;strokeColor=none;align=center;fillColor=none;html=1;verticalAlign=middle;whiteSpace=wrap;rounded=0;" vertex="1" parent="1">
          <mxGeometry x="1554" y="620" width="60" height="30" as="geometry" />
        </mxCell>
        <mxCell id="oPtmLi2s78sQVJzXojm6-137" style="edgeStyle=orthogonalEdgeStyle;rounded=0;orthogonalLoop=1;jettySize=auto;html=1;exitX=1;exitY=0.5;exitDx=0;exitDy=0;" edge="1" parent="1" source="oPtmLi2s78sQVJzXojm6-88" target="oPtmLi2s78sQVJzXojm6-101">
          <mxGeometry relative="1" as="geometry">
            <Array as="points">
              <mxPoint x="1670" y="575" />
              <mxPoint x="1670" y="648" />
            </Array>
          </mxGeometry>
        </mxCell>
        <mxCell id="oPtmLi2s78sQVJzXojm6-138" value="Authentication" style="text;strokeColor=none;align=center;fillColor=none;html=1;verticalAlign=middle;whiteSpace=wrap;rounded=0;" vertex="1" parent="1">
          <mxGeometry x="1699" y="534" width="60" height="30" as="geometry" />
        </mxCell>
        <mxCell id="oPtmLi2s78sQVJzXojm6-139" value="Database" style="text;strokeColor=none;align=center;fillColor=none;html=1;verticalAlign=middle;whiteSpace=wrap;rounded=0;" vertex="1" parent="1">
          <mxGeometry x="1697" y="689.8" width="60" height="30" as="geometry" />
        </mxCell>
        <mxCell id="oPtmLi2s78sQVJzXojm6-143" value="Collections" style="text;strokeColor=none;align=center;fillColor=none;html=1;verticalAlign=middle;whiteSpace=wrap;rounded=0;" vertex="1" parent="1">
          <mxGeometry x="1820.5" y="691.5" width="60" height="30" as="geometry" />
        </mxCell>
        <mxCell id="oPtmLi2s78sQVJzXojm6-145" value="&lt;h3&gt;&lt;b&gt;Cloud Storage&lt;/b&gt;&lt;/h3&gt;" style="text;html=1;align=center;verticalAlign=middle;resizable=0;points=[];autosize=1;strokeColor=none;fillColor=none;" vertex="1" parent="1">
          <mxGeometry x="1661" y="733" width="120" height="60" as="geometry" />
        </mxCell>
      </root>
    </mxGraphModel>
  </diagram>
</mxfile>
